<svg id="svg" version="1.1" width="400" height="400" xmlns="http://www.w3.org/2000/svg" xmlns:xlink="http://www.w3.org/1999/xlink" style="display: block;"><g id="svgg"><path id="path0" d="" stroke="none" fill="#005555" fill-rule="evenodd"></path><path id="path1" d="M116.797 8.835 C 38.769 13.017,-15.339 85.745,3.564 161.035 C 18.329 219.844,75.085 259.323,135.156 252.568 C 207.273 244.459,256.161 177.387,241.809 106.246 C 230.057 47.999,175.742 5.676,116.797 8.835 M368.886 118.718 C 353.437 122.911,345.642 140.336,352.965 154.307 C 364.832 176.944,398.824 169.580,399.888 144.141 C 400.603 127.062,385.071 114.326,368.886 118.718 " stroke="none" fill="#4086f4" fill-rule="evenodd"></path><path id="path2" d="M300.781 153.890 C 259.363 158.195,241.073 208.222,269.989 238.113 C 294.817 263.779,338.073 255.546,351.730 222.555 C 366.043 187.977,337.889 150.032,300.781 153.890 " stroke="none" fill="#eb4132" fill-rule="evenodd"></path><path id="path3" d="M298.633 272.119 C 266.671 276.920,245.263 301.948,246.218 333.398 C 247.805 385.696,310.782 410.630,347.882 373.648 C 381.348 340.290,364.360 282.995,318.046 273.020 C 314.357 272.225,301.803 271.643,298.633 272.119 " stroke="none" fill="#fbbe01" fill-rule="evenodd"></path><path id="path4" d="" stroke="none" fill="#00ffff" fill-rule="evenodd"></path></g></svg>