<svg id="svg" version="1.1" width="400" height="137.82771535580525" xmlns="http://www.w3.org/2000/svg" xmlns:xlink="http://www.w3.org/1999/xlink" style="display: block;"><g id="svgg"><path id="path0" d="M26.747 64.583 C 26.747 74.208,26.767 78.121,26.792 73.279 C 26.816 68.436,26.816 60.561,26.792 55.779 C 26.767 50.996,26.747 54.958,26.747 64.583 M329.398 56.905 C 329.348 57.035,329.335 57.317,329.369 57.530 C 329.415 57.814,329.453 57.751,329.515 57.292 C 329.603 56.645,329.557 56.492,329.398 56.905 M372.653 57.292 C 372.733 57.867,372.745 57.879,372.800 57.438 C 372.833 57.175,372.794 56.894,372.713 56.813 C 372.629 56.729,372.604 56.934,372.653 57.292 " stroke="none" fill="#000000" fill-rule="evenodd"></path><path id="path1" d="M265.413 71.250 C 265.413 78.950,265.433 82.076,265.458 78.196 C 265.483 74.316,265.483 68.016,265.458 64.196 C 265.433 60.376,265.413 63.550,265.413 71.250 M269.958 62.624 C 270.623 62.655,271.710 62.655,272.375 62.624 C 273.040 62.592,272.496 62.566,271.167 62.566 C 269.837 62.566,269.294 62.592,269.958 62.624 M281.051 62.624 C 282.041 62.654,283.616 62.654,284.551 62.624 C 285.485 62.595,284.675 62.570,282.750 62.571 C 280.825 62.571,280.060 62.595,281.051 62.624 M242.892 70.833 C 242.892 71.612,242.920 71.931,242.955 71.542 C 242.990 71.152,242.990 70.515,242.955 70.125 C 242.920 69.735,242.892 70.054,242.892 70.833 " stroke="none" fill="#333333" fill-rule="evenodd"></path><path id="path2" d="M283.047 43.789 C 283.485 43.824,284.160 43.823,284.547 43.788 C 284.934 43.754,284.575 43.725,283.750 43.726 C 282.925 43.726,282.609 43.755,283.047 43.789 M125.077 50.208 C 125.033 50.323,125.017 57.017,125.041 65.083 L 125.085 79.750 125.126 64.961 L 125.167 50.173 128.958 50.125 L 132.750 50.077 128.953 50.038 C 126.040 50.009,125.138 50.049,125.077 50.208 M137.500 50.917 C 137.614 51.054,137.830 51.158,137.979 51.147 C 138.208 51.131,138.204 51.116,137.958 51.052 C 137.798 51.010,137.667 50.906,137.667 50.821 C 137.667 50.736,137.582 50.667,137.480 50.667 C 137.350 50.667,137.357 50.744,137.500 50.917 M273.556 51.083 C 273.556 51.221,273.610 51.333,273.677 51.333 C 273.743 51.333,273.841 51.221,273.894 51.083 C 273.949 50.940,273.897 50.833,273.773 50.833 C 273.653 50.833,273.556 50.946,273.556 51.083 M161.000 51.321 C 161.000 51.406,160.869 51.510,160.708 51.552 C 160.462 51.616,160.459 51.631,160.688 51.647 C 160.837 51.658,161.053 51.554,161.167 51.417 C 161.310 51.244,161.316 51.167,161.187 51.167 C 161.084 51.167,161.000 51.236,161.000 51.321 M179.833 55.891 C 180.063 56.012,180.285 56.082,180.329 56.046 C 180.446 55.950,179.954 55.672,179.667 55.672 C 179.529 55.672,179.604 55.770,179.833 55.891 M217.760 55.922 C 217.578 56.059,217.529 56.167,217.647 56.167 C 217.762 56.167,217.970 56.054,218.107 55.917 C 218.427 55.597,218.184 55.601,217.760 55.922 M220.333 55.917 C 220.447 56.054,220.616 56.167,220.707 56.167 C 220.800 56.167,220.782 56.056,220.667 55.917 C 220.553 55.779,220.384 55.667,220.293 55.667 C 220.200 55.667,220.218 55.777,220.333 55.917 M172.833 56.917 C 172.718 57.056,172.700 57.167,172.793 57.167 C 172.884 57.167,173.053 57.054,173.167 56.917 C 173.282 56.777,173.300 56.667,173.207 56.667 C 173.116 56.667,172.947 56.779,172.833 56.917 M329.700 56.867 C 329.471 57.095,329.431 57.771,329.639 57.899 C 329.715 57.947,329.778 57.894,329.778 57.781 C 329.778 57.669,329.829 57.372,329.892 57.122 C 330.019 56.614,329.991 56.576,329.700 56.867 M348.093 56.922 C 347.912 57.059,347.862 57.167,347.980 57.167 C 348.096 57.167,348.303 57.054,348.440 56.917 C 348.760 56.597,348.518 56.601,348.093 56.922 M366.333 56.973 C 366.333 57.170,366.380 57.172,366.625 56.984 C 366.785 56.861,366.944 56.744,366.977 56.723 C 367.010 56.702,366.879 56.696,366.686 56.711 C 366.492 56.726,366.333 56.843,366.333 56.973 M372.219 56.889 C 372.282 57.057,372.333 57.380,372.333 57.607 C 372.333 57.840,372.406 57.975,372.500 57.917 C 372.765 57.753,372.693 57.063,372.385 56.812 C 372.138 56.611,372.118 56.620,372.219 56.889 M169.333 59.417 C 168.650 60.104,168.143 60.667,168.207 60.667 C 168.326 60.667,170.667 58.350,170.667 58.233 C 170.667 58.090,170.533 58.209,169.333 59.417 M209.104 59.609 C 208.860 59.852,208.696 60.085,208.738 60.127 C 208.808 60.197,209.667 59.363,209.667 59.226 C 209.667 59.092,209.522 59.190,209.104 59.609 M365.444 59.444 C 365.242 59.647,365.329 59.824,365.583 59.727 C 365.721 59.674,365.833 59.564,365.833 59.482 C 365.833 59.307,365.604 59.285,365.444 59.444 M189.000 60.482 C 189.000 60.564,189.100 60.669,189.222 60.716 C 189.344 60.763,189.444 60.696,189.444 60.567 C 189.444 60.439,189.344 60.333,189.222 60.333 C 189.100 60.333,189.000 60.400,189.000 60.482 M240.056 60.567 C 240.056 60.696,240.156 60.763,240.278 60.716 C 240.400 60.669,240.500 60.564,240.500 60.482 C 240.500 60.400,240.400 60.333,240.278 60.333 C 240.156 60.333,240.056 60.439,240.056 60.567 M167.763 61.188 C 167.586 61.360,167.521 61.500,167.617 61.500 C 167.809 61.500,168.254 61.027,168.149 60.934 C 168.113 60.902,167.939 61.017,167.763 61.188 M178.625 61.618 C 178.831 61.657,179.169 61.657,179.375 61.618 C 179.581 61.578,179.412 61.545,179.000 61.545 C 178.588 61.545,178.419 61.578,178.625 61.618 M218.960 61.618 C 219.168 61.658,219.468 61.656,219.627 61.615 C 219.786 61.573,219.617 61.540,219.250 61.542 C 218.883 61.544,218.753 61.578,218.960 61.618 M250.625 61.618 C 250.831 61.657,251.169 61.657,251.375 61.618 C 251.581 61.578,251.412 61.545,251.000 61.545 C 250.588 61.545,250.419 61.578,250.625 61.618 M314.628 61.621 C 314.928 61.658,315.378 61.657,315.628 61.619 C 315.878 61.581,315.633 61.551,315.083 61.552 C 314.533 61.553,314.328 61.584,314.628 61.621 M190.000 61.982 C 190.000 62.064,190.100 62.169,190.222 62.216 C 190.344 62.263,190.444 62.196,190.444 62.067 C 190.444 61.939,190.344 61.833,190.222 61.833 C 190.100 61.833,190.000 61.900,190.000 61.982 M254.243 62.323 C 254.297 62.409,254.571 62.594,254.853 62.735 C 255.291 62.953,255.337 62.955,255.163 62.746 C 255.051 62.611,254.856 62.500,254.730 62.500 C 254.603 62.500,254.500 62.425,254.500 62.333 C 254.500 62.242,254.421 62.167,254.323 62.167 C 254.226 62.167,254.190 62.237,254.243 62.323 M238.556 62.567 C 238.556 62.696,238.656 62.763,238.778 62.716 C 238.900 62.669,239.000 62.564,239.000 62.482 C 239.000 62.400,238.900 62.333,238.778 62.333 C 238.656 62.333,238.556 62.439,238.556 62.567 M302.113 63.439 C 301.946 63.662,301.846 63.936,301.891 64.047 C 301.938 64.162,301.979 64.123,301.987 63.958 C 301.994 63.798,302.067 63.667,302.149 63.667 C 302.291 63.667,302.557 63.166,302.462 63.076 C 302.437 63.052,302.280 63.215,302.113 63.439 M232.000 63.480 C 232.000 63.582,232.070 63.667,232.154 63.667 C 232.239 63.667,232.343 63.798,232.385 63.958 C 232.449 64.204,232.464 64.208,232.481 63.979 C 232.491 63.830,232.387 63.614,232.250 63.500 C 232.077 63.357,232.000 63.350,232.000 63.480 M327.833 63.468 C 327.833 63.558,327.952 63.677,328.097 63.732 C 328.260 63.795,328.336 63.757,328.295 63.636 C 328.212 63.386,327.833 63.249,327.833 63.468 M167.514 63.543 C 167.552 63.567,167.752 63.729,167.958 63.903 C 168.165 64.076,168.333 64.175,168.333 64.121 C 168.333 63.953,167.818 63.500,167.627 63.500 C 167.527 63.500,167.476 63.520,167.514 63.543 M245.277 63.972 C 244.957 64.306,244.898 64.444,245.076 64.444 C 245.215 64.444,245.372 64.306,245.426 64.136 C 245.480 63.967,245.594 63.872,245.679 63.924 C 245.764 63.977,245.833 63.903,245.833 63.760 C 245.833 63.412,245.801 63.424,245.277 63.972 M337.833 64.230 C 337.833 64.264,337.946 64.386,338.083 64.500 C 338.288 64.670,338.333 64.659,338.333 64.437 C 338.333 64.288,338.221 64.167,338.083 64.167 C 337.946 64.167,337.833 64.195,337.833 64.230 M237.556 64.567 C 237.556 64.696,237.656 64.763,237.778 64.716 C 237.900 64.669,238.000 64.564,238.000 64.482 C 238.000 64.400,237.900 64.333,237.778 64.333 C 237.656 64.333,237.556 64.439,237.556 64.567 M328.333 64.415 C 328.333 64.475,328.454 64.644,328.601 64.792 C 328.847 65.038,328.864 65.035,328.810 64.752 C 328.754 64.467,328.333 64.169,328.333 64.415 M191.111 64.778 C 190.934 64.955,190.981 65.124,191.234 65.221 C 191.372 65.274,191.453 65.215,191.433 65.077 C 191.388 64.769,191.249 64.640,191.111 64.778 M338.427 65.817 C 338.364 65.919,338.429 66.120,338.573 66.263 C 338.768 66.458,338.833 66.468,338.831 66.304 C 338.826 65.930,338.557 65.606,338.427 65.817 M357.435 66.804 C 357.367 66.913,357.429 67.120,357.573 67.263 C 357.852 67.543,357.885 67.443,357.684 66.928 C 357.596 66.705,357.520 66.667,357.435 66.804 M344.439 67.419 C 344.255 67.897,344.324 68.033,344.606 67.751 C 344.788 67.569,344.823 67.423,344.711 67.311 C 344.600 67.200,344.509 67.235,344.439 67.419 M329.427 67.817 C 329.364 67.919,329.429 68.120,329.573 68.263 C 329.768 68.458,329.833 68.468,329.831 68.304 C 329.826 67.930,329.557 67.606,329.427 67.817 M233.608 68.294 C 233.714 68.362,233.835 68.604,233.877 68.833 C 233.943 69.186,233.958 69.167,233.977 68.708 C 233.995 68.294,233.931 68.167,233.708 68.169 C 233.521 68.171,233.485 68.216,233.608 68.294 M357.924 68.321 C 357.851 68.440,357.867 68.585,357.959 68.644 C 358.052 68.702,358.166 68.900,358.211 69.083 L 358.295 69.417 358.302 69.083 C 358.315 68.537,358.081 68.067,357.924 68.321 M344.000 68.786 C 344.000 68.889,343.948 69.110,343.884 69.278 C 343.773 69.573,343.779 69.573,344.074 69.281 C 344.301 69.055,344.331 68.931,344.189 68.789 C 344.051 68.651,344.000 68.651,344.000 68.786 M210.814 69.464 C 210.759 69.795,210.783 69.950,210.876 69.858 C 210.960 69.774,211.000 69.528,210.966 69.311 C 210.914 68.977,210.890 69.001,210.814 69.464 M300.396 70.917 C 300.396 71.925,300.424 72.316,300.457 71.786 C 300.490 71.255,300.490 70.430,300.456 69.952 C 300.422 69.474,300.395 69.908,300.396 70.917 M227.562 71.000 C 227.562 71.962,227.589 72.356,227.623 71.875 C 227.657 71.394,227.657 70.606,227.623 70.125 C 227.589 69.644,227.562 70.037,227.562 71.000 M333.346 69.698 C 333.339 69.854,333.410 70.027,333.503 70.085 C 333.596 70.143,333.622 70.278,333.562 70.387 C 333.493 70.509,333.539 70.502,333.682 70.368 C 333.843 70.219,333.858 70.117,333.732 70.035 C 333.632 69.970,333.507 69.804,333.455 69.667 C 333.377 69.463,333.357 69.468,333.346 69.698 M358.424 69.821 C 358.351 69.940,358.367 70.085,358.459 70.144 C 358.552 70.202,358.666 70.400,358.711 70.583 L 358.795 70.917 358.802 70.583 C 358.815 70.037,358.581 69.567,358.424 69.821 M343.500 70.286 C 343.500 70.389,343.448 70.610,343.384 70.778 C 343.273 71.073,343.279 71.073,343.574 70.781 C 343.801 70.555,343.831 70.431,343.689 70.289 C 343.551 70.151,343.500 70.151,343.500 70.286 M167.238 71.411 C 167.090 71.638,166.994 71.890,167.026 71.973 C 167.058 72.055,167.205 71.870,167.354 71.561 C 167.672 70.901,167.618 70.831,167.238 71.411 M358.833 71.480 C 358.833 71.582,358.903 71.667,358.988 71.667 C 359.073 71.667,359.177 71.798,359.218 71.958 C 359.283 72.204,359.298 72.208,359.314 71.979 C 359.325 71.830,359.221 71.614,359.083 71.500 C 358.911 71.357,358.833 71.350,358.833 71.480 M181.722 71.718 C 181.722 71.842,181.824 71.944,181.949 71.944 C 182.202 71.944,182.158 71.636,181.892 71.547 C 181.799 71.516,181.722 71.593,181.722 71.718 M210.613 71.785 C 210.552 71.884,210.613 72.179,210.750 72.441 C 210.946 72.817,210.996 72.847,210.987 72.583 C 210.971 72.069,210.741 71.579,210.613 71.785 M343.000 71.786 C 343.000 71.889,342.948 72.110,342.884 72.278 C 342.773 72.573,342.779 72.573,343.074 72.281 C 343.301 72.055,343.331 71.931,343.189 71.789 C 343.051 71.651,343.000 71.651,343.000 71.786 M175.500 72.245 C 175.500 72.393,175.598 72.452,175.749 72.394 C 175.886 72.341,175.957 72.231,175.906 72.149 C 175.760 71.914,175.500 71.975,175.500 72.245 M334.454 73.177 C 334.500 73.353,334.604 73.455,334.686 73.405 C 334.905 73.269,334.865 73.048,334.602 72.947 C 334.440 72.885,334.396 72.954,334.454 73.177 M348.501 72.996 C 348.320 73.111,348.302 73.202,348.437 73.337 C 348.572 73.472,348.646 73.430,348.712 73.178 C 348.762 72.988,348.790 72.834,348.776 72.836 C 348.762 72.837,348.638 72.909,348.501 72.996 M236.503 73.625 C 236.501 73.831,236.575 74.000,236.667 74.000 C 236.875 74.000,236.875 73.823,236.667 73.500 C 236.536 73.298,236.505 73.322,236.503 73.625 M329.686 73.695 C 329.675 73.848,329.624 74.110,329.571 74.278 C 329.480 74.567,329.485 74.568,329.665 74.286 C 329.770 74.123,329.822 73.861,329.781 73.703 C 329.713 73.445,329.703 73.444,329.686 73.695 M211.111 74.278 C 210.935 74.454,210.981 74.624,211.231 74.720 C 211.393 74.782,211.437 74.713,211.378 74.488 C 211.285 74.131,211.270 74.119,211.111 74.278 M348.001 74.496 C 347.820 74.611,347.802 74.702,347.937 74.837 C 348.072 74.972,348.146 74.930,348.212 74.678 C 348.262 74.488,348.290 74.334,348.276 74.336 C 348.262 74.337,348.138 74.409,348.001 74.496 M166.056 76.667 C 166.056 77.354,166.085 77.635,166.121 77.292 C 166.157 76.948,166.157 76.385,166.121 76.042 C 166.085 75.698,166.056 75.979,166.056 76.667 M141.615 76.186 C 141.357 76.450,141.207 76.665,141.281 76.664 C 141.450 76.660,142.235 75.845,142.148 75.764 C 142.112 75.731,141.872 75.921,141.615 76.186 M322.346 76.042 C 322.355 76.292,322.391 76.334,322.455 76.167 C 322.507 76.029,322.632 75.862,322.733 75.794 C 322.846 75.719,322.805 75.671,322.625 75.669 C 322.429 75.668,322.338 75.790,322.346 76.042 M301.353 77.188 C 301.342 77.337,301.446 77.553,301.583 77.667 C 301.756 77.810,301.833 77.816,301.833 77.687 C 301.833 77.584,301.764 77.500,301.679 77.500 C 301.594 77.500,301.490 77.369,301.448 77.208 C 301.384 76.962,301.369 76.959,301.353 77.188 M205.551 77.389 C 205.615 77.557,205.667 77.778,205.667 77.880 C 205.667 78.016,205.718 78.015,205.856 77.877 C 205.997 77.736,205.968 77.611,205.740 77.386 C 205.446 77.094,205.439 77.094,205.551 77.389 M183.672 77.577 C 183.556 77.716,183.377 77.781,183.273 77.721 C 183.169 77.662,183.139 77.675,183.207 77.750 C 183.351 77.908,183.021 78.366,182.842 78.255 C 182.776 78.215,182.722 78.291,182.722 78.424 C 182.722 78.557,182.745 78.667,182.772 78.667 C 182.894 78.667,184.015 77.459,183.952 77.396 C 183.913 77.357,183.787 77.439,183.672 77.577 M206.051 78.389 C 206.115 78.557,206.167 78.778,206.167 78.880 C 206.167 79.016,206.218 79.015,206.356 78.877 C 206.497 78.736,206.468 78.611,206.240 78.386 C 205.946 78.094,205.939 78.094,206.051 78.389 M355.345 79.260 C 355.372 79.615,355.616 80.050,355.706 79.904 C 355.760 79.817,355.698 79.602,355.569 79.425 C 355.439 79.248,355.339 79.174,355.345 79.260 M207.000 79.942 C 207.000 80.037,207.187 80.333,207.416 80.599 C 207.954 81.224,207.954 81.062,207.417 80.333 C 207.188 80.023,207.000 79.846,207.000 79.942 M178.722 80.444 C 178.722 80.567,178.810 80.667,178.917 80.667 C 179.024 80.667,179.111 80.567,179.111 80.444 C 179.111 80.322,179.024 80.222,178.917 80.222 C 178.810 80.222,178.722 80.322,178.722 80.444 M249.389 80.444 C 249.389 80.567,249.476 80.667,249.583 80.667 C 249.690 80.667,249.778 80.567,249.778 80.444 C 249.778 80.322,249.690 80.222,249.583 80.222 C 249.476 80.222,249.389 80.322,249.389 80.444 M145.792 80.513 C 145.631 80.607,145.501 80.773,145.503 80.883 C 145.504 81.022,145.543 81.028,145.628 80.902 C 145.695 80.803,145.900 80.636,146.083 80.532 C 146.267 80.429,146.342 80.343,146.250 80.343 C 146.158 80.343,145.952 80.420,145.792 80.513 M355.845 80.760 C 355.872 81.115,356.116 81.550,356.206 81.404 C 356.260 81.317,356.198 81.102,356.069 80.925 C 355.939 80.748,355.839 80.674,355.845 80.760 M325.333 82.157 C 325.333 82.436,325.629 82.505,325.727 82.249 C 325.785 82.098,325.727 82.000,325.578 82.000 C 325.443 82.000,325.333 82.071,325.333 82.157 M345.500 82.250 C 345.330 82.455,345.341 82.500,345.563 82.500 C 345.712 82.500,345.833 82.387,345.833 82.250 C 345.833 82.112,345.805 82.000,345.770 82.000 C 345.736 82.000,345.614 82.112,345.500 82.250 M356.336 82.363 C 356.340 82.736,356.609 83.061,356.740 82.850 C 356.803 82.748,356.737 82.547,356.594 82.403 C 356.399 82.208,356.334 82.198,356.336 82.363 M185.025 82.658 C 185.097 82.873,185.325 82.912,185.346 82.712 C 185.353 82.646,185.268 82.562,185.158 82.525 C 185.048 82.488,184.988 82.548,185.025 82.658 M324.833 82.657 C 324.833 82.936,325.129 83.005,325.227 82.749 C 325.285 82.598,325.227 82.500,325.078 82.500 C 324.943 82.500,324.833 82.571,324.833 82.657 M184.525 83.158 C 184.562 83.268,184.646 83.353,184.713 83.346 C 184.912 83.325,184.873 83.097,184.658 83.025 C 184.548 82.988,184.488 83.048,184.525 83.158 M184.025 83.658 C 184.097 83.873,184.325 83.912,184.346 83.712 C 184.353 83.646,184.268 83.562,184.158 83.525 C 184.048 83.488,183.988 83.548,184.025 83.658 M322.782 84.227 C 322.731 84.359,322.778 84.454,322.887 84.438 C 323.136 84.402,323.243 84.109,323.033 84.039 C 322.946 84.010,322.833 84.094,322.782 84.227 M213.500 85.250 C 213.500 85.388,213.622 85.500,213.770 85.500 C 213.992 85.500,214.003 85.455,213.833 85.250 C 213.719 85.112,213.598 85.000,213.563 85.000 C 213.528 85.000,213.500 85.112,213.500 85.250 M320.782 85.227 C 320.731 85.359,320.778 85.454,320.887 85.438 C 321.136 85.402,321.243 85.109,321.033 85.039 C 320.946 85.010,320.833 85.094,320.782 85.227 M222.841 85.741 C 222.678 85.938,222.704 85.976,222.987 85.955 C 223.178 85.941,223.333 85.833,223.333 85.715 C 223.333 85.429,223.089 85.442,222.841 85.741 M319.282 85.727 C 319.231 85.859,319.278 85.954,319.387 85.938 C 319.636 85.902,319.743 85.609,319.533 85.539 C 319.446 85.510,319.333 85.594,319.282 85.727 M241.550 87.731 C 241.477 87.859,241.267 88.000,241.083 88.045 C 240.777 88.121,240.780 88.130,241.119 88.147 C 241.332 88.158,241.564 88.026,241.667 87.833 C 241.866 87.461,241.759 87.368,241.550 87.731 M240.234 88.358 C 239.918 88.713,239.919 88.714,240.292 88.518 C 240.498 88.410,240.667 88.249,240.667 88.161 C 240.667 87.924,240.587 87.960,240.234 88.358 M237.667 90.000 C 237.524 90.266,237.540 90.333,237.744 90.333 C 237.889 90.333,238.000 90.189,238.000 90.000 C 238.000 89.817,237.965 89.667,237.923 89.667 C 237.880 89.667,237.765 89.817,237.667 90.000 M256.747 90.336 C 256.391 90.701,256.149 91.000,256.211 91.000 C 256.366 91.000,257.537 89.815,257.459 89.736 C 257.424 89.701,257.103 89.971,256.747 90.336 M263.738 90.961 C 263.564 91.080,263.285 91.667,263.403 91.667 C 263.435 91.667,263.585 91.479,263.735 91.250 C 264.024 90.808,264.025 90.765,263.738 90.961 M262.853 92.237 C 262.842 92.413,262.705 92.713,262.548 92.904 C 262.273 93.238,262.276 93.237,262.647 92.896 C 262.881 92.681,263.001 92.419,262.952 92.229 C 262.875 91.930,262.871 91.930,262.853 92.237 M250.208 92.621 C 250.552 92.657,251.115 92.657,251.458 92.621 C 251.802 92.585,251.521 92.556,250.833 92.556 C 250.146 92.556,249.865 92.585,250.208 92.621 " stroke="none" fill="#555555" fill-rule="evenodd"></path><path id="path3" d="M157.272 43.868 C 157.319 43.946,157.128 44.089,156.846 44.187 C 156.564 44.286,156.333 44.429,156.333 44.505 C 156.333 44.582,156.183 44.692,156.000 44.750 C 155.817 44.808,155.667 44.993,155.667 45.160 C 155.667 45.327,155.554 45.508,155.417 45.560 C 155.213 45.639,155.167 46.043,155.167 47.750 C 155.167 49.457,155.213 49.861,155.417 49.940 C 155.554 49.992,155.667 50.175,155.667 50.346 C 155.667 50.553,155.750 50.624,155.917 50.560 C 156.091 50.493,156.167 50.573,156.167 50.825 C 156.167 51.039,156.239 51.141,156.344 51.076 C 156.442 51.016,156.611 51.088,156.719 51.236 C 156.836 51.396,157.280 51.549,157.806 51.611 C 158.296 51.669,158.732 51.810,158.776 51.923 C 158.857 52.136,159.500 52.059,159.500 51.836 C 159.500 51.767,159.811 51.669,160.191 51.618 C 160.571 51.567,160.928 51.451,160.984 51.359 C 161.040 51.268,161.292 51.142,161.542 51.079 C 161.793 51.016,161.953 50.892,161.899 50.804 C 161.844 50.716,161.942 50.607,162.115 50.562 C 162.289 50.516,162.443 50.317,162.458 50.118 C 162.473 49.919,162.601 49.672,162.743 49.568 C 163.114 49.297,163.120 46.082,162.750 45.940 C 162.612 45.887,162.500 45.758,162.500 45.652 C 162.500 45.419,161.426 44.351,160.781 43.942 C 160.286 43.628,157.082 43.561,157.272 43.868 M282.114 43.907 C 282.086 43.993,281.563 44.095,280.952 44.134 C 280.287 44.177,279.766 44.297,279.651 44.436 C 279.545 44.563,279.343 44.667,279.201 44.667 C 279.059 44.667,278.810 44.787,278.648 44.934 C 278.486 45.081,278.168 45.212,277.942 45.225 C 277.717 45.239,277.567 45.307,277.610 45.376 C 277.653 45.446,277.552 45.553,277.386 45.614 C 277.128 45.709,276.618 46.202,275.245 47.681 C 275.110 47.826,275.000 48.024,275.000 48.121 C 275.000 48.218,274.887 48.341,274.750 48.394 C 274.612 48.446,274.500 48.671,274.500 48.894 C 274.500 49.116,274.387 49.341,274.250 49.394 C 274.079 49.459,274.000 49.726,274.000 50.233 C 274.000 50.671,273.897 51.079,273.750 51.226 C 273.549 51.427,273.500 51.986,273.500 54.067 L 273.500 56.658 271.042 56.704 L 268.583 56.750 268.537 59.394 C 268.479 62.728,268.285 62.500,271.186 62.500 L 273.498 62.500 273.540 73.708 L 273.583 84.917 276.458 84.962 L 279.333 85.008 279.333 73.754 L 279.333 62.500 282.761 62.500 C 287.206 62.500,286.833 62.773,286.833 59.512 C 286.833 56.337,287.298 56.667,282.820 56.667 L 279.333 56.667 279.333 55.083 C 279.333 53.787,279.379 53.500,279.583 53.500 C 279.721 53.500,279.824 53.444,279.814 53.375 C 279.713 52.735,279.865 51.506,280.042 51.542 C 280.158 51.565,280.273 51.385,280.302 51.136 C 280.341 50.794,280.469 50.663,280.845 50.581 C 281.115 50.521,281.294 50.404,281.242 50.320 C 281.190 50.236,281.266 50.167,281.412 50.167 C 281.558 50.167,281.720 50.054,281.773 49.917 C 281.887 49.620,285.404 49.543,285.583 49.833 C 285.640 49.925,285.836 50.000,286.020 50.000 C 286.213 50.000,286.307 49.926,286.243 49.822 C 286.183 49.724,286.290 49.603,286.483 49.553 C 286.737 49.486,286.833 49.329,286.833 48.981 C 286.833 48.698,286.922 48.500,287.049 48.500 C 287.180 48.500,287.282 48.254,287.307 47.877 C 287.330 47.535,287.458 47.193,287.591 47.119 C 287.724 47.044,287.833 46.771,287.833 46.512 C 287.833 46.253,287.946 45.947,288.083 45.833 C 288.443 45.535,288.394 44.877,287.995 44.664 C 287.809 44.565,287.704 44.407,287.762 44.314 C 287.820 44.221,287.766 44.158,287.642 44.175 C 286.985 44.265,285.829 44.140,285.637 43.958 C 285.375 43.710,282.195 43.664,282.114 43.907 M119.167 64.582 L 119.167 85.005 128.234 84.997 C 136.045 84.990,137.315 84.955,137.396 84.745 C 137.459 84.579,137.735 84.500,138.245 84.500 C 138.805 84.500,139.000 84.435,139.000 84.250 C 139.000 84.065,139.194 84.000,139.750 84.000 C 140.306 84.000,140.500 83.935,140.500 83.750 C 140.500 83.535,140.946 83.438,141.599 83.511 C 141.653 83.517,141.785 83.401,141.893 83.254 C 142.001 83.106,142.255 82.973,142.457 82.957 C 142.659 82.942,142.862 82.833,142.907 82.715 C 142.952 82.597,143.104 82.500,143.245 82.500 C 143.385 82.500,143.500 82.387,143.500 82.250 C 143.500 82.112,143.579 82.000,143.677 82.000 C 143.774 82.000,143.797 82.094,143.728 82.208 C 143.567 82.476,144.202 81.992,144.383 81.708 C 144.457 81.594,144.625 81.500,144.758 81.500 C 144.891 81.500,145.000 81.387,145.000 81.250 C 145.000 81.112,145.075 81.000,145.167 81.000 C 145.258 81.000,145.489 80.844,145.680 80.654 C 145.870 80.463,146.135 80.350,146.270 80.401 C 146.434 80.464,146.498 80.401,146.465 80.206 C 146.433 80.016,146.518 79.925,146.712 79.940 C 146.899 79.955,146.990 79.864,146.962 79.690 C 146.933 79.516,147.024 79.425,147.212 79.440 C 147.399 79.455,147.490 79.364,147.462 79.190 C 147.433 79.014,147.524 78.926,147.720 78.942 C 147.919 78.958,147.992 78.885,147.932 78.730 C 147.882 78.599,147.989 78.344,148.170 78.163 C 148.352 77.982,148.500 77.766,148.500 77.684 C 148.500 77.603,148.612 77.492,148.750 77.440 C 148.887 77.387,149.000 77.221,149.000 77.071 C 149.000 76.921,149.094 76.834,149.208 76.878 C 149.338 76.927,149.426 76.798,149.442 76.536 C 149.456 76.304,149.588 76.048,149.734 75.966 C 149.880 75.884,150.000 75.668,150.000 75.486 C 150.000 75.305,150.112 75.113,150.250 75.060 C 150.387 75.008,150.500 74.783,150.500 74.560 C 150.500 74.338,150.612 74.113,150.750 74.060 C 150.893 74.006,151.000 73.757,151.000 73.482 C 151.000 73.165,151.085 73.000,151.250 73.000 C 151.435 73.000,151.500 72.805,151.500 72.245 C 151.500 71.727,151.579 71.459,151.750 71.394 C 151.929 71.325,152.000 71.046,152.000 70.413 C 152.000 69.853,152.077 69.502,152.208 69.458 C 152.546 69.346,152.583 60.022,152.247 59.892 C 152.071 59.825,152.000 59.539,152.000 58.894 C 152.000 58.244,151.930 57.963,151.750 57.894 C 151.587 57.831,151.500 57.571,151.500 57.144 C 151.500 56.716,151.413 56.456,151.250 56.394 C 151.111 56.340,151.000 56.092,151.000 55.833 C 151.000 55.574,150.889 55.327,150.750 55.273 C 150.612 55.220,150.500 54.995,150.500 54.773 C 150.500 54.551,150.387 54.326,150.250 54.273 C 150.112 54.220,150.000 53.985,150.000 53.750 C 150.000 53.515,149.887 53.280,149.750 53.227 C 149.612 53.174,149.500 53.024,149.500 52.894 C 149.500 52.763,149.387 52.613,149.250 52.560 C 149.112 52.508,149.000 52.338,149.000 52.183 C 149.000 52.028,148.778 51.717,148.507 51.492 C 148.236 51.267,148.011 51.016,148.007 50.933 C 147.999 50.770,146.380 49.177,145.535 48.500 C 145.248 48.271,145.011 47.985,145.007 47.865 C 145.003 47.745,144.927 47.692,144.838 47.747 C 144.748 47.803,144.280 47.582,143.798 47.257 C 143.316 46.932,142.836 46.667,142.731 46.667 C 142.626 46.667,142.447 46.554,142.333 46.417 C 142.219 46.279,141.985 46.167,141.813 46.167 C 141.641 46.167,141.500 46.070,141.500 45.952 C 141.500 45.832,141.273 45.720,140.984 45.698 C 140.701 45.677,140.358 45.548,140.222 45.413 C 140.087 45.277,139.725 45.167,139.419 45.167 C 139.112 45.167,138.832 45.080,138.797 44.974 C 138.761 44.868,138.217 44.737,137.575 44.680 C 136.815 44.614,136.430 44.511,136.455 44.381 C 136.485 44.231,134.413 44.181,127.830 44.171 L 119.167 44.159 119.167 64.582 M195.001 64.579 L 194.997 85.000 197.999 85.000 L 201.001 85.000 200.959 64.625 L 200.917 44.250 197.961 44.204 L 195.005 44.159 195.001 64.579 M291.615 44.274 C 291.552 44.337,291.500 53.593,291.500 64.842 L 291.500 85.294 291.875 85.395 C 292.081 85.450,293.394 85.496,294.792 85.498 L 297.335 85.500 297.292 64.875 L 297.250 44.250 294.490 44.204 C 292.972 44.179,291.678 44.211,291.615 44.274 M135.862 50.401 C 136.070 50.547,136.562 50.667,136.954 50.667 C 137.346 50.667,137.667 50.742,137.667 50.833 C 137.667 50.925,137.760 51.003,137.875 51.006 C 137.990 51.009,138.383 51.156,138.750 51.333 C 139.117 51.510,139.510 51.658,139.625 51.661 C 139.740 51.664,139.833 51.737,139.833 51.822 C 139.833 51.908,140.002 52.031,140.208 52.095 C 140.415 52.160,140.749 52.390,140.950 52.606 C 141.152 52.823,141.396 53.000,141.492 53.000 C 141.588 53.000,141.667 53.112,141.667 53.250 C 141.667 53.387,141.779 53.500,141.917 53.500 C 142.054 53.500,142.167 53.612,142.167 53.750 C 142.167 53.887,142.279 54.000,142.417 54.000 C 142.554 54.000,142.667 54.112,142.667 54.250 C 142.667 54.387,142.779 54.500,142.917 54.500 C 143.054 54.500,143.167 54.612,143.167 54.750 C 143.167 54.887,143.279 55.000,143.417 55.000 C 143.554 55.000,143.667 55.070,143.667 55.155 C 143.667 55.240,143.784 55.427,143.927 55.570 C 144.070 55.713,144.198 55.981,144.212 56.165 C 144.226 56.349,144.334 56.500,144.452 56.500 C 144.570 56.500,144.667 56.615,144.667 56.755 C 144.667 56.896,144.779 57.054,144.917 57.106 C 145.080 57.169,145.167 57.428,145.167 57.851 C 145.167 58.317,145.237 58.500,145.417 58.500 C 145.602 58.500,145.667 58.694,145.667 59.250 C 145.667 59.806,145.731 60.000,145.917 60.000 C 146.118 60.000,146.167 60.258,146.167 61.321 C 146.167 62.274,146.236 62.713,146.417 62.893 C 146.604 63.081,146.667 63.544,146.667 64.756 C 146.667 66.121,146.628 66.354,146.417 66.273 C 146.205 66.192,146.167 66.422,146.167 67.765 C 146.167 68.645,146.101 69.312,146.019 69.262 C 145.839 69.150,145.672 69.724,145.669 70.464 C 145.668 70.794,145.568 71.048,145.417 71.106 C 145.274 71.161,145.167 71.410,145.167 71.684 C 145.167 72.002,145.081 72.167,144.917 72.167 C 144.760 72.167,144.667 72.325,144.667 72.589 C 144.667 72.821,144.554 73.054,144.417 73.106 C 144.279 73.159,144.167 73.299,144.167 73.417 C 144.167 73.535,144.054 73.674,143.917 73.727 C 143.779 73.780,143.667 73.978,143.667 74.167 C 143.667 74.356,143.554 74.554,143.417 74.606 C 143.279 74.659,143.167 74.807,143.167 74.934 C 143.167 75.062,143.054 75.167,142.917 75.167 C 142.779 75.167,142.667 75.279,142.667 75.417 C 142.667 75.554,142.587 75.667,142.491 75.667 C 142.394 75.667,142.113 75.883,141.866 76.148 C 141.619 76.412,141.248 76.680,141.042 76.742 C 140.835 76.805,140.667 76.926,140.667 77.011 C 140.667 77.097,140.562 77.167,140.434 77.167 C 140.307 77.167,140.159 77.279,140.106 77.417 C 140.054 77.554,139.829 77.667,139.606 77.667 C 139.384 77.667,139.163 77.769,139.115 77.893 C 139.068 78.018,138.719 78.169,138.340 78.230 C 137.954 78.291,137.695 78.412,137.752 78.503 C 137.812 78.601,137.547 78.667,137.093 78.667 C 136.529 78.667,136.333 78.731,136.333 78.917 C 136.333 79.123,136.028 79.167,134.583 79.167 C 133.139 79.167,132.833 79.210,132.833 79.417 C 132.833 79.632,132.287 79.667,128.917 79.667 L 125.000 79.667 125.000 64.944 C 125.000 56.847,125.056 50.163,125.125 50.090 C 125.382 49.819,135.446 50.110,135.862 50.401 M177.407 55.911 C 177.189 56.076,176.664 56.158,175.804 56.161 C 174.894 56.165,174.452 56.239,174.274 56.417 C 174.136 56.554,173.878 56.667,173.699 56.667 C 173.520 56.667,173.281 56.779,173.167 56.917 C 173.053 57.054,172.779 57.167,172.558 57.167 C 172.337 57.167,172.113 57.279,172.060 57.417 C 172.008 57.554,171.785 57.667,171.566 57.667 C 171.322 57.667,171.167 57.764,171.167 57.917 C 171.167 58.054,171.083 58.167,170.980 58.167 C 170.782 58.167,168.391 60.545,168.041 61.091 C 167.926 61.270,167.760 61.585,167.670 61.792 C 167.581 61.998,167.440 62.167,167.356 62.167 C 167.137 62.167,167.031 63.333,167.238 63.461 C 167.333 63.519,167.550 63.578,167.721 63.590 C 167.891 63.603,168.096 63.719,168.176 63.848 C 168.256 63.978,168.461 64.083,168.631 64.083 C 168.801 64.083,169.072 64.215,169.232 64.375 C 169.393 64.535,169.710 64.667,169.938 64.667 C 170.172 64.667,170.308 64.739,170.250 64.833 C 170.193 64.925,170.245 65.006,170.365 65.014 C 171.080 65.059,171.360 65.138,171.623 65.368 C 172.086 65.773,173.000 65.458,173.000 64.893 C 173.000 64.765,173.177 64.379,173.394 64.036 C 173.800 63.393,174.333 62.857,174.333 63.092 C 174.333 63.165,174.521 63.049,174.750 62.833 C 174.979 62.618,175.167 62.509,175.167 62.591 C 175.167 62.674,175.287 62.570,175.433 62.361 C 175.597 62.126,175.837 61.998,176.058 62.027 C 176.255 62.052,176.510 62.015,176.625 61.943 C 176.740 61.872,176.833 61.861,176.833 61.919 C 176.833 61.977,176.937 61.920,177.065 61.793 C 177.355 61.503,180.613 61.481,180.798 61.768 C 180.863 61.869,181.190 62.002,181.525 62.064 C 181.859 62.125,182.224 62.285,182.335 62.419 C 182.447 62.553,182.610 62.618,182.699 62.563 C 182.787 62.509,182.972 62.623,183.108 62.818 C 183.245 63.013,183.438 63.122,183.537 63.060 C 183.637 62.999,183.674 63.020,183.619 63.108 C 183.565 63.196,183.779 63.549,184.094 63.893 C 184.409 64.237,184.667 64.594,184.667 64.686 C 184.667 64.778,184.742 64.807,184.833 64.750 C 184.930 64.690,185.000 64.853,185.000 65.136 C 185.000 65.406,185.112 65.719,185.250 65.833 C 185.584 66.110,185.601 67.667,185.270 67.667 C 185.144 67.667,184.947 67.554,184.833 67.417 C 184.716 67.275,184.353 67.167,183.997 67.167 C 183.604 67.167,183.335 67.077,183.277 66.927 C 183.135 66.556,174.371 66.541,174.229 66.912 C 174.162 67.086,173.904 67.167,173.417 67.167 C 172.935 67.167,172.671 67.248,172.606 67.417 C 172.554 67.554,172.318 67.667,172.083 67.667 C 171.848 67.667,171.613 67.779,171.560 67.917 C 171.508 68.054,171.320 68.167,171.144 68.167 C 170.967 68.167,170.780 68.279,170.727 68.417 C 170.674 68.554,170.449 68.667,170.227 68.667 C 170.005 68.667,169.780 68.779,169.727 68.917 C 169.674 69.054,169.527 69.167,169.399 69.167 C 169.271 69.167,169.167 69.279,169.167 69.417 C 169.167 69.554,169.054 69.667,168.917 69.667 C 168.779 69.667,168.667 69.779,168.667 69.917 C 168.667 70.054,168.554 70.167,168.417 70.167 C 168.279 70.167,168.167 70.279,168.167 70.417 C 168.167 70.554,168.073 70.668,167.958 70.669 C 167.844 70.670,167.601 70.988,167.418 71.377 C 167.235 71.765,166.991 72.182,166.876 72.304 C 166.761 72.425,166.655 72.668,166.642 72.845 C 166.628 73.022,166.609 73.260,166.600 73.375 C 166.591 73.490,166.480 73.664,166.353 73.764 C 166.070 73.986,166.010 79.132,166.289 79.309 C 166.382 79.368,166.511 79.660,166.576 79.958 C 166.640 80.256,166.762 80.500,166.847 80.500 C 166.931 80.500,166.992 80.556,166.982 80.625 C 166.948 80.863,167.206 81.500,167.336 81.500 C 167.408 81.500,167.546 81.725,167.642 82.000 C 167.738 82.275,167.895 82.500,167.991 82.500 C 168.088 82.500,168.167 82.612,168.167 82.750 C 168.167 82.887,168.279 83.000,168.417 83.000 C 168.554 83.000,168.667 83.112,168.667 83.250 C 168.667 83.387,168.771 83.500,168.899 83.500 C 169.027 83.500,169.174 83.612,169.227 83.750 C 169.280 83.887,169.478 84.000,169.667 84.000 C 169.856 84.000,170.051 84.105,170.100 84.234 C 170.149 84.362,170.316 84.510,170.470 84.562 C 170.624 84.614,170.862 84.724,171.000 84.805 C 171.798 85.276,172.349 85.500,172.716 85.500 C 172.944 85.500,173.175 85.615,173.229 85.756 C 173.370 86.123,180.136 86.106,180.278 85.738 C 180.335 85.588,180.611 85.500,181.023 85.500 C 181.451 85.500,181.710 85.413,181.773 85.250 C 181.826 85.112,182.051 85.000,182.273 85.000 C 182.495 85.000,182.720 84.887,182.773 84.750 C 182.826 84.612,182.976 84.500,183.106 84.500 C 183.237 84.500,183.387 84.387,183.440 84.250 C 183.492 84.112,183.640 84.000,183.768 84.000 C 183.896 84.000,184.000 83.887,184.000 83.750 C 184.000 83.612,184.112 83.500,184.250 83.500 C 184.387 83.500,184.500 83.387,184.500 83.250 C 184.500 83.112,184.612 83.000,184.750 83.000 C 184.887 83.000,185.000 82.887,185.000 82.750 C 185.000 82.612,185.112 82.500,185.250 82.500 C 185.440 82.500,185.501 82.709,185.502 83.375 C 185.507 85.123,185.297 85.014,188.562 84.962 L 191.417 84.917 191.454 75.118 C 191.487 66.607,191.460 65.308,191.246 65.225 C 191.076 65.160,191.000 64.882,191.000 64.327 C 191.000 63.835,190.903 63.427,190.750 63.274 C 190.612 63.136,190.500 62.866,190.500 62.673 C 190.500 62.481,190.387 62.280,190.250 62.227 C 190.112 62.174,190.000 61.992,190.000 61.821 C 190.000 61.651,189.775 61.281,189.500 61.000 C 189.225 60.719,189.000 60.346,189.000 60.171 C 189.000 59.996,188.913 59.799,188.808 59.734 C 188.680 59.655,188.661 59.689,188.750 59.833 C 188.839 59.978,188.820 60.011,188.692 59.933 C 188.587 59.867,188.500 59.710,188.500 59.583 C 188.500 59.457,188.413 59.299,188.308 59.234 C 188.180 59.155,188.161 59.189,188.250 59.333 C 188.339 59.478,188.320 59.511,188.192 59.433 C 188.087 59.367,188.000 59.210,188.000 59.083 C 188.000 58.957,187.913 58.799,187.808 58.734 C 187.694 58.664,187.660 58.688,187.724 58.792 C 187.796 58.907,187.688 58.901,187.418 58.776 C 187.190 58.670,187.002 58.490,187.001 58.375 C 187.001 58.260,186.896 58.167,186.768 58.167 C 186.640 58.167,186.492 58.054,186.440 57.917 C 186.387 57.779,186.162 57.667,185.940 57.667 C 185.717 57.667,185.492 57.554,185.440 57.417 C 185.387 57.279,185.162 57.167,184.940 57.167 C 184.717 57.167,184.492 57.054,184.440 56.917 C 184.382 56.766,184.125 56.665,183.797 56.661 C 183.496 56.658,183.104 56.546,182.926 56.411 C 182.717 56.253,182.210 56.167,181.487 56.167 C 180.822 56.167,180.179 56.066,179.894 55.918 C 179.278 55.596,177.828 55.593,177.407 55.911 M218.107 55.917 C 217.922 56.102,217.466 56.167,216.340 56.167 C 215.145 56.167,214.802 56.220,214.727 56.417 C 214.664 56.580,214.405 56.667,213.977 56.667 C 213.549 56.667,213.290 56.753,213.227 56.917 C 213.174 57.054,212.949 57.167,212.727 57.167 C 212.505 57.167,212.280 57.279,212.227 57.417 C 212.174 57.554,212.024 57.667,211.894 57.667 C 211.763 57.667,211.613 57.779,211.560 57.917 C 211.508 58.054,211.331 58.167,211.168 58.167 C 211.005 58.167,210.404 58.617,209.833 59.167 C 209.262 59.717,208.729 60.167,208.648 60.167 C 208.566 60.167,208.500 60.242,208.500 60.333 C 208.500 60.549,207.883 61.167,207.667 61.167 C 207.575 61.167,207.500 61.270,207.500 61.396 C 207.500 61.523,207.387 61.719,207.250 61.833 C 207.112 61.947,207.000 62.182,207.000 62.354 C 207.000 62.526,206.922 62.667,206.827 62.667 C 206.606 62.667,205.500 64.961,205.500 65.420 C 205.500 65.611,205.411 65.856,205.302 65.965 C 205.193 66.073,205.075 66.520,205.039 66.956 C 205.003 67.393,204.874 67.862,204.753 68.000 C 204.468 68.323,204.481 74.112,204.766 74.298 C 204.867 74.363,204.997 74.829,205.055 75.332 C 205.113 75.836,205.237 76.273,205.330 76.305 C 205.424 76.336,205.500 76.537,205.500 76.752 C 205.500 76.967,205.600 77.243,205.722 77.365 C 205.844 77.487,205.995 77.792,206.058 78.043 C 206.121 78.294,206.247 78.500,206.337 78.500 C 206.426 78.500,206.500 78.645,206.500 78.821 C 206.500 78.998,206.594 79.243,206.708 79.365 C 206.823 79.488,207.174 79.962,207.489 80.419 C 207.804 80.876,208.273 81.444,208.531 81.682 C 208.789 81.919,209.000 82.200,209.000 82.307 C 209.000 82.413,209.096 82.500,209.213 82.500 C 209.456 82.500,210.000 83.084,210.000 83.345 C 210.000 83.441,210.066 83.479,210.147 83.429 C 210.228 83.379,210.484 83.487,210.715 83.669 C 210.947 83.851,211.218 84.000,211.318 84.000 C 211.418 84.000,211.500 84.074,211.500 84.163 C 211.500 84.253,211.706 84.379,211.957 84.442 C 212.208 84.505,212.513 84.656,212.635 84.778 C 212.757 84.900,213.030 85.000,213.241 85.000 C 213.453 85.000,213.719 85.112,213.833 85.250 C 213.947 85.388,214.275 85.502,214.562 85.505 C 214.849 85.508,215.229 85.621,215.407 85.755 C 215.889 86.120,222.530 86.115,222.833 85.750 C 222.958 85.599,223.323 85.500,223.750 85.500 C 224.177 85.500,224.542 85.401,224.667 85.250 C 224.781 85.112,225.082 85.000,225.336 85.000 C 225.593 85.000,225.840 84.889,225.894 84.750 C 225.946 84.612,226.144 84.500,226.333 84.500 C 226.522 84.500,226.720 84.387,226.773 84.250 C 226.826 84.112,227.011 84.000,227.184 84.000 C 227.358 84.000,227.500 83.887,227.500 83.750 C 227.500 83.610,227.649 83.500,227.839 83.500 C 228.025 83.500,228.220 83.387,228.273 83.250 C 228.326 83.112,228.437 83.000,228.520 83.000 C 228.724 83.000,230.333 81.371,230.333 81.164 C 230.333 81.074,230.410 81.000,230.504 81.000 C 230.597 81.000,230.766 80.794,230.879 80.542 C 230.991 80.290,231.247 79.930,231.447 79.742 C 231.647 79.554,231.861 79.197,231.923 78.950 C 231.985 78.702,232.095 78.500,232.167 78.500 C 232.238 78.500,232.349 78.295,232.412 78.043 C 232.475 77.792,232.614 77.532,232.722 77.466 C 232.930 77.337,232.947 77.274,232.979 76.500 C 232.991 76.223,233.093 76.000,233.208 75.999 C 233.345 75.999,233.435 75.669,233.469 75.045 C 233.497 74.520,233.610 74.035,233.719 73.968 C 234.008 73.789,233.998 68.472,233.708 68.375 C 233.575 68.330,233.499 67.967,233.498 67.361 C 233.495 66.262,233.357 65.632,233.148 65.762 C 233.066 65.812,233.000 65.666,233.000 65.438 C 233.000 65.210,232.891 64.915,232.758 64.782 C 232.625 64.649,232.467 64.344,232.407 64.103 C 232.347 63.863,232.236 63.667,232.162 63.667 C 232.087 63.667,231.977 63.442,231.917 63.167 C 231.856 62.892,231.738 62.667,231.653 62.667 C 231.569 62.667,231.500 62.561,231.500 62.433 C 231.500 62.045,228.873 59.167,228.519 59.167 C 228.406 59.167,228.363 59.087,228.424 58.989 C 228.484 58.891,228.377 58.770,228.185 58.720 C 227.994 58.670,227.874 58.568,227.920 58.495 C 227.966 58.421,227.777 58.311,227.501 58.250 C 227.226 58.190,227.000 58.069,227.000 57.983 C 227.000 57.896,226.813 57.754,226.583 57.667 C 226.354 57.580,226.167 57.447,226.167 57.373 C 226.167 57.298,225.924 57.219,225.629 57.197 C 225.333 57.174,225.029 57.046,224.954 56.911 C 224.874 56.768,224.572 56.667,224.230 56.667 C 223.907 56.667,223.530 56.554,223.393 56.417 C 223.213 56.237,222.776 56.167,221.842 56.167 C 220.889 56.167,220.485 56.100,220.333 55.917 C 220.197 55.752,219.824 55.667,219.241 55.667 C 218.678 55.667,218.267 55.757,218.107 55.917 M249.147 55.820 C 249.136 55.873,249.136 55.973,249.147 56.042 C 249.158 56.110,248.585 56.178,247.875 56.192 C 246.228 56.224,246.216 56.226,246.053 56.404 C 245.974 56.491,246.014 56.497,246.151 56.418 C 246.308 56.326,246.346 56.345,246.266 56.474 C 246.201 56.580,245.924 56.667,245.652 56.667 C 245.365 56.667,245.116 56.772,245.060 56.917 C 245.008 57.054,244.783 57.167,244.560 57.167 C 244.338 57.167,244.113 57.279,244.060 57.417 C 244.008 57.554,243.800 57.667,243.599 57.667 C 243.398 57.667,243.051 57.888,242.826 58.160 C 242.601 58.431,242.360 58.656,242.292 58.660 C 242.103 58.670,241.500 59.310,241.500 59.500 C 241.500 59.592,241.387 59.667,241.250 59.667 C 241.112 59.667,241.000 59.779,241.000 59.917 C 241.000 60.054,240.887 60.167,240.750 60.167 C 240.612 60.167,240.500 60.242,240.500 60.334 C 240.500 60.425,240.205 60.787,239.844 61.137 C 239.483 61.487,239.139 61.969,239.079 62.208 C 239.019 62.447,238.864 62.683,238.735 62.733 C 238.606 62.782,238.500 62.942,238.500 63.088 C 238.500 63.234,238.430 63.310,238.344 63.257 C 238.258 63.204,238.138 63.494,238.077 63.902 C 238.016 64.310,237.861 64.684,237.733 64.734 C 237.605 64.783,237.498 64.994,237.495 65.203 C 237.492 65.412,237.379 65.729,237.245 65.907 C 237.096 66.103,237.000 66.603,237.000 67.178 C 237.000 67.817,236.919 68.193,236.750 68.333 C 236.398 68.626,236.398 73.051,236.750 73.667 C 236.881 73.896,236.991 74.479,236.994 74.964 C 236.998 75.588,237.073 75.872,237.250 75.940 C 237.413 76.002,237.500 76.262,237.500 76.690 C 237.500 77.117,237.587 77.377,237.750 77.440 C 237.887 77.492,238.000 77.672,238.000 77.839 C 238.000 78.006,238.112 78.255,238.250 78.393 C 238.387 78.530,238.500 78.755,238.500 78.893 C 238.500 79.030,238.603 79.245,238.728 79.371 C 238.853 79.496,239.003 79.745,239.060 79.924 C 239.116 80.103,239.351 80.453,239.581 80.701 C 239.812 80.949,240.000 81.230,240.000 81.326 C 240.000 81.422,240.075 81.500,240.166 81.500 C 240.257 81.500,240.770 81.950,241.307 82.500 C 241.844 83.050,242.369 83.500,242.475 83.500 C 242.580 83.500,242.667 83.612,242.667 83.750 C 242.667 83.889,242.815 84.000,243.000 84.000 C 243.183 84.000,243.333 84.097,243.333 84.215 C 243.333 84.333,243.497 84.441,243.697 84.456 C 243.897 84.472,244.126 84.600,244.205 84.742 C 244.285 84.884,244.526 85.000,244.740 85.000 C 244.955 85.000,245.174 85.112,245.227 85.250 C 245.290 85.413,245.549 85.500,245.977 85.500 C 246.389 85.500,246.665 85.588,246.722 85.737 C 246.863 86.104,253.359 86.121,253.662 85.756 C 253.779 85.615,254.123 85.500,254.427 85.500 C 254.731 85.500,255.023 85.431,255.074 85.348 C 255.126 85.264,255.512 85.029,255.931 84.826 C 256.350 84.623,256.733 84.354,256.781 84.229 C 256.830 84.103,257.051 84.000,257.273 84.000 C 257.495 84.000,257.720 83.887,257.773 83.750 C 257.826 83.612,257.936 83.500,258.018 83.500 C 258.220 83.500,258.833 82.873,258.833 82.667 C 258.833 82.575,258.940 82.500,259.071 82.500 C 259.202 82.500,259.343 82.369,259.385 82.208 C 259.427 82.048,259.470 82.616,259.481 83.470 C 259.495 84.649,259.440 85.084,259.250 85.274 C 259.101 85.423,258.998 85.839,258.995 86.304 C 258.992 86.732,258.879 87.229,258.745 87.407 C 258.610 87.585,258.500 87.906,258.500 88.120 C 258.500 88.335,258.387 88.554,258.250 88.606 C 258.112 88.659,258.000 88.807,258.000 88.934 C 258.000 89.062,257.887 89.167,257.750 89.167 C 257.612 89.167,257.500 89.314,257.500 89.494 C 257.500 89.919,256.494 90.924,255.927 91.066 C 255.684 91.127,255.530 91.247,255.583 91.333 C 255.637 91.420,255.471 91.540,255.215 91.601 C 254.959 91.663,254.655 91.787,254.540 91.878 C 254.424 91.970,254.091 92.072,253.799 92.106 C 253.508 92.140,253.211 92.261,253.141 92.375 C 252.957 92.672,248.474 92.672,248.375 92.375 C 248.337 92.260,248.179 92.167,248.025 92.167 C 247.648 92.167,246.800 91.687,246.170 91.119 C 245.887 90.863,245.466 90.582,245.234 90.494 C 245.003 90.406,244.858 90.261,244.913 90.172 C 244.968 90.084,244.860 89.915,244.673 89.799 C 244.486 89.682,244.333 89.500,244.333 89.394 C 244.333 89.289,244.235 89.165,244.116 89.119 C 243.996 89.073,243.797 88.729,243.674 88.354 C 243.550 87.979,243.329 87.638,243.183 87.596 C 242.679 87.450,241.789 87.621,241.636 87.894 C 241.552 88.044,241.318 88.169,241.117 88.172 C 240.915 88.175,240.611 88.282,240.442 88.411 C 240.273 88.539,240.028 88.603,239.898 88.553 C 239.769 88.503,239.563 88.545,239.441 88.647 C 239.319 88.748,239.170 88.781,239.110 88.721 C 239.049 88.660,239.000 88.736,239.000 88.889 C 239.000 89.042,238.944 89.158,238.875 89.147 C 238.029 89.013,237.462 90.637,238.250 90.940 C 238.387 90.992,238.500 91.211,238.500 91.426 C 238.500 91.641,238.610 91.879,238.745 91.954 C 238.880 92.030,239.016 92.256,239.047 92.458 C 239.077 92.660,239.166 92.883,239.245 92.954 C 239.323 93.025,239.326 92.978,239.251 92.849 C 239.160 92.692,239.178 92.654,239.308 92.734 C 239.413 92.799,239.500 92.946,239.500 93.059 C 239.500 93.173,239.722 93.450,239.993 93.674 C 240.264 93.899,240.489 94.177,240.493 94.292 C 240.497 94.406,240.594 94.503,240.708 94.507 C 240.823 94.511,241.101 94.736,241.326 95.007 C 241.550 95.278,241.827 95.500,241.941 95.500 C 242.054 95.500,242.201 95.587,242.266 95.692 C 242.345 95.820,242.311 95.839,242.167 95.750 C 242.022 95.661,241.989 95.680,242.067 95.808 C 242.133 95.913,242.369 96.000,242.593 96.000 C 242.844 96.000,243.000 96.096,243.000 96.250 C 243.000 96.388,243.104 96.500,243.232 96.500 C 243.360 96.500,243.501 96.595,243.546 96.712 C 243.590 96.829,243.839 96.942,244.098 96.963 C 244.357 96.984,244.647 97.088,244.743 97.192 C 244.869 97.330,244.852 97.345,244.683 97.249 C 244.526 97.159,244.488 97.179,244.567 97.308 C 244.633 97.413,244.974 97.500,245.325 97.500 C 245.707 97.500,245.999 97.590,246.050 97.724 C 246.110 97.879,246.515 97.959,247.360 97.984 C 248.033 98.003,248.658 98.101,248.750 98.201 C 248.867 98.328,248.846 98.342,248.683 98.249 C 248.536 98.165,248.488 98.180,248.555 98.288 C 248.675 98.482,251.728 98.575,252.402 98.405 C 252.638 98.346,252.790 98.231,252.739 98.149 C 252.661 98.023,254.467 97.902,255.128 97.988 C 255.244 98.003,255.319 97.919,255.294 97.800 C 255.265 97.655,255.513 97.556,256.046 97.500 C 256.483 97.454,256.821 97.342,256.796 97.250 C 256.771 97.158,256.994 97.060,257.292 97.031 C 257.627 96.999,257.833 96.888,257.833 96.739 C 257.833 96.608,257.978 96.500,258.155 96.500 C 258.332 96.500,258.589 96.388,258.726 96.250 C 258.864 96.112,259.026 96.000,259.087 96.000 C 259.148 96.000,259.387 95.851,259.618 95.669 C 259.850 95.487,260.117 95.386,260.212 95.445 C 260.315 95.509,260.334 95.470,260.259 95.348 C 260.179 95.218,260.260 95.111,260.483 95.053 C 260.676 95.002,260.833 94.862,260.833 94.742 C 260.833 94.621,260.989 94.473,261.179 94.413 C 261.369 94.352,261.488 94.266,261.443 94.221 C 261.341 94.119,261.946 93.500,262.147 93.500 C 262.228 93.500,262.336 93.342,262.386 93.150 C 262.438 92.952,262.557 92.849,262.660 92.912 C 262.760 92.974,262.831 92.963,262.818 92.887 C 262.738 92.426,262.874 92.010,263.131 91.928 C 263.295 91.876,263.441 91.671,263.456 91.473 C 263.471 91.275,263.581 91.053,263.700 90.979 C 263.819 90.906,263.917 90.690,263.917 90.500 C 263.917 90.310,264.005 90.100,264.114 90.033 C 264.223 89.965,264.351 89.586,264.398 89.190 C 264.446 88.793,264.561 88.378,264.653 88.266 C 264.790 88.101,264.933 87.162,265.040 85.708 C 265.049 85.594,265.119 85.500,265.196 85.500 C 265.274 85.500,265.334 79.047,265.331 71.159 C 265.328 61.852,265.269 56.853,265.163 56.919 C 265.073 56.974,265.000 56.938,265.000 56.839 C 265.000 56.715,264.154 56.673,262.292 56.704 L 259.583 56.750 259.500 58.365 L 259.417 59.980 258.625 59.231 C 258.190 58.819,257.833 58.411,257.833 58.324 C 257.833 58.238,257.721 58.167,257.583 58.167 C 257.446 58.167,257.333 58.098,257.333 58.013 C 257.333 57.929,257.108 57.810,256.833 57.750 C 256.558 57.690,256.333 57.534,256.333 57.403 C 256.333 57.251,256.154 57.167,255.833 57.167 C 255.500 57.167,255.333 57.083,255.333 56.917 C 255.333 56.759,255.175 56.667,254.905 56.667 C 254.669 56.667,254.364 56.554,254.226 56.417 C 254.048 56.239,253.615 56.167,252.726 56.167 C 251.821 56.167,251.405 56.096,251.218 55.909 C 250.969 55.660,249.195 55.584,249.147 55.820 M311.171 56.412 C 311.047 56.561,310.689 56.667,310.308 56.667 C 309.882 56.667,309.623 56.753,309.560 56.917 C 309.506 57.059,309.257 57.167,308.982 57.167 C 308.665 57.167,308.500 57.252,308.500 57.417 C 308.500 57.554,308.384 57.667,308.241 57.667 C 307.669 57.667,306.511 58.499,304.938 60.042 C 304.027 60.935,303.348 61.667,303.428 61.667 C 303.508 61.667,303.406 61.784,303.201 61.928 C 302.996 62.072,302.871 62.260,302.924 62.346 C 302.978 62.432,302.904 62.547,302.761 62.602 C 302.617 62.657,302.500 62.839,302.500 63.006 C 302.500 63.173,302.388 63.422,302.251 63.559 C 302.114 63.696,301.977 63.970,301.947 64.168 C 301.917 64.365,301.811 64.577,301.713 64.639 C 301.614 64.700,301.487 65.044,301.430 65.404 C 301.373 65.764,301.254 66.144,301.167 66.250 C 301.080 66.355,300.967 66.843,300.917 67.333 C 300.866 67.824,300.754 68.312,300.666 68.418 C 300.445 68.684,300.427 73.852,300.646 73.987 C 300.740 74.045,300.855 74.484,300.902 74.962 C 300.949 75.441,301.079 76.001,301.191 76.208 C 301.302 76.414,301.414 76.764,301.438 76.985 C 301.463 77.206,301.560 77.434,301.654 77.492 C 301.748 77.550,301.846 77.782,301.871 78.007 C 301.896 78.232,302.048 78.562,302.208 78.740 C 302.369 78.917,302.500 79.161,302.500 79.281 C 302.500 79.402,302.570 79.500,302.655 79.500 C 302.741 79.500,302.862 79.669,302.925 79.875 C 302.987 80.081,303.255 80.452,303.519 80.699 C 303.784 80.946,304.000 81.227,304.000 81.324 C 304.000 81.421,304.121 81.500,304.268 81.500 C 304.437 81.500,304.500 81.592,304.440 81.750 C 304.381 81.902,304.439 82.000,304.589 82.000 C 304.723 82.000,304.833 82.112,304.833 82.250 C 304.833 82.387,304.948 82.500,305.089 82.500 C 305.229 82.500,305.387 82.612,305.440 82.750 C 305.492 82.887,305.598 83.000,305.674 83.000 C 305.750 83.000,306.059 83.225,306.360 83.500 C 306.661 83.775,307.003 84.000,307.120 84.000 C 307.238 84.000,307.333 84.067,307.333 84.150 C 307.333 84.357,308.602 85.000,309.010 85.000 C 309.194 85.000,309.387 85.112,309.440 85.250 C 309.502 85.413,309.762 85.500,310.190 85.500 C 310.617 85.500,310.877 85.587,310.940 85.750 C 311.015 85.946,311.353 86.000,312.504 86.000 C 313.524 86.000,313.993 86.063,314.041 86.207 C 314.145 86.518,316.114 86.545,316.232 86.237 C 316.301 86.058,316.670 86.000,317.750 86.000 C 318.865 86.000,319.198 85.945,319.273 85.750 C 319.336 85.587,319.595 85.500,320.023 85.500 C 320.451 85.500,320.710 85.413,320.773 85.250 C 320.832 85.095,321.086 85.000,321.440 85.000 C 321.793 85.000,322.047 84.905,322.106 84.750 C 322.159 84.612,322.309 84.500,322.440 84.500 C 322.570 84.500,322.720 84.387,322.773 84.250 C 322.826 84.112,323.048 84.000,323.268 84.000 C 323.511 84.000,323.667 83.903,323.667 83.750 C 323.667 83.611,323.815 83.500,324.000 83.500 C 324.185 83.500,324.333 83.389,324.333 83.250 C 324.333 83.112,324.446 83.000,324.583 83.000 C 324.721 83.000,324.833 82.887,324.833 82.750 C 324.833 82.612,324.946 82.500,325.083 82.500 C 325.221 82.500,325.333 82.387,325.333 82.250 C 325.333 82.112,325.408 82.000,325.500 82.000 C 325.683 82.000,326.333 81.397,326.333 81.227 C 326.333 81.169,326.521 80.948,326.750 80.735 C 326.979 80.523,327.167 80.271,327.167 80.175 C 327.167 80.079,327.298 79.867,327.458 79.705 C 327.902 79.257,328.833 77.380,328.833 76.935 C 328.833 76.718,328.931 76.460,329.050 76.361 C 329.170 76.262,329.286 75.859,329.309 75.465 C 329.332 75.072,329.463 74.415,329.602 74.006 C 329.934 73.026,329.899 68.589,329.557 68.247 C 329.432 68.123,329.333 67.668,329.332 67.220 C 329.332 66.778,329.231 66.224,329.108 65.989 C 328.985 65.754,328.834 65.360,328.773 65.114 C 328.711 64.868,328.587 64.667,328.497 64.667 C 328.407 64.667,328.333 64.477,328.333 64.245 C 328.333 64.013,328.221 63.780,328.083 63.727 C 327.946 63.674,327.833 63.494,327.833 63.327 C 327.833 63.160,327.725 62.915,327.592 62.782 C 327.459 62.649,327.301 62.344,327.240 62.105 C 327.180 61.865,327.064 61.710,326.982 61.761 C 326.900 61.812,326.833 61.699,326.833 61.510 C 326.833 61.316,326.725 61.167,326.583 61.167 C 326.446 61.167,326.333 61.054,326.333 60.917 C 326.333 60.779,326.259 60.667,326.168 60.667 C 326.076 60.667,325.563 60.217,325.026 59.667 C 324.490 59.117,323.969 58.667,323.869 58.667 C 323.768 58.667,323.633 58.580,323.567 58.474 C 323.487 58.345,323.525 58.326,323.683 58.418 C 323.811 58.492,323.858 58.489,323.787 58.411 C 323.716 58.333,323.493 58.244,323.291 58.213 C 323.090 58.182,322.863 58.047,322.787 57.912 C 322.712 57.777,322.474 57.667,322.260 57.667 C 322.045 57.667,321.826 57.554,321.773 57.417 C 321.720 57.279,321.514 57.167,321.315 57.167 C 321.116 57.167,320.846 57.035,320.714 56.875 C 320.568 56.697,320.522 56.680,320.595 56.833 C 320.693 57.036,320.673 57.044,320.491 56.875 C 320.368 56.760,320.024 56.667,319.727 56.667 C 319.429 56.667,319.133 56.580,319.067 56.474 C 318.989 56.347,319.022 56.327,319.167 56.417 C 319.306 56.503,319.344 56.486,319.273 56.370 C 319.078 56.055,311.435 56.094,311.171 56.412 M156.278 56.778 C 156.217 56.839,156.167 63.214,156.167 70.944 L 156.167 85.000 159.083 85.000 L 162.000 85.000 162.000 70.934 C 162.000 58.262,161.974 56.859,161.736 56.768 C 161.377 56.630,156.417 56.639,156.278 56.778 M329.903 57.042 C 329.681 57.738,329.800 58.950,330.125 59.300 C 330.297 59.485,330.365 59.860,330.327 60.423 C 330.324 60.472,330.437 60.627,330.577 60.768 C 330.718 60.909,330.843 61.168,330.854 61.345 C 330.866 61.522,330.882 61.798,330.892 61.958 C 330.901 62.119,331.005 62.325,331.124 62.417 C 331.243 62.509,331.357 62.846,331.378 63.167 C 331.399 63.488,331.505 63.825,331.613 63.917 C 331.721 64.008,331.830 64.308,331.856 64.583 C 331.882 64.858,331.997 65.198,332.111 65.338 C 332.225 65.478,332.337 65.877,332.360 66.224 C 332.384 66.572,332.496 66.908,332.610 66.972 C 332.724 67.036,332.837 67.373,332.860 67.722 C 332.884 68.070,332.988 68.407,333.093 68.470 C 333.197 68.532,333.330 68.883,333.387 69.249 C 333.445 69.615,333.569 69.940,333.663 69.971 C 333.757 70.002,333.833 70.101,333.833 70.190 C 333.833 70.280,333.740 70.297,333.625 70.228 C 333.459 70.128,333.459 70.155,333.622 70.356 C 333.734 70.495,333.852 70.779,333.884 70.985 C 333.916 71.192,334.014 71.411,334.104 71.472 C 334.193 71.533,334.280 71.733,334.297 71.917 C 334.359 72.579,334.443 72.862,334.611 72.972 C 334.705 73.033,334.832 73.454,334.892 73.908 C 334.953 74.361,335.066 74.773,335.144 74.824 C 335.222 74.875,335.340 75.216,335.408 75.583 C 335.475 75.949,335.596 76.290,335.677 76.339 C 335.757 76.389,335.841 76.675,335.864 76.975 C 335.887 77.274,336.002 77.599,336.120 77.697 C 336.237 77.794,336.333 78.118,336.333 78.417 C 336.333 78.715,336.446 79.053,336.583 79.167 C 336.721 79.281,336.833 79.618,336.833 79.917 C 336.833 80.215,336.946 80.553,337.083 80.667 C 337.224 80.784,337.333 81.147,337.333 81.500 C 337.333 81.853,337.442 82.216,337.583 82.333 C 337.721 82.447,337.833 82.785,337.833 83.083 C 337.833 83.382,337.946 83.719,338.083 83.833 C 338.221 83.947,338.333 84.245,338.333 84.495 C 338.333 85.384,338.654 85.481,341.609 85.482 C 344.576 85.483,344.749 85.427,344.861 84.417 C 344.893 84.127,345.004 83.934,345.125 83.958 C 345.269 83.987,345.333 83.749,345.333 83.187 C 345.333 82.668,345.424 82.299,345.583 82.167 C 345.721 82.053,345.833 81.704,345.833 81.391 C 345.833 81.040,345.929 80.786,346.083 80.727 C 346.247 80.664,346.333 80.405,346.333 79.977 C 346.333 79.595,346.423 79.288,346.550 79.240 C 346.669 79.194,346.784 78.886,346.806 78.555 C 346.829 78.224,346.956 77.797,347.090 77.606 C 347.224 77.415,347.333 77.057,347.333 76.810 C 347.333 76.563,347.416 76.334,347.516 76.300 C 347.617 76.267,347.740 75.867,347.790 75.411 C 347.840 74.956,347.982 74.523,348.107 74.450 C 348.235 74.374,348.333 74.039,348.333 73.676 C 348.333 73.261,348.421 73.002,348.583 72.940 C 348.743 72.878,348.835 72.616,348.839 72.214 C 348.842 71.867,348.954 71.438,349.089 71.260 C 349.223 71.082,349.336 70.744,349.339 70.510 C 349.342 70.275,349.454 69.938,349.589 69.760 C 349.723 69.582,349.836 69.244,349.839 69.010 C 349.842 68.775,349.954 68.438,350.089 68.260 C 350.223 68.082,350.333 67.732,350.333 67.482 C 350.333 67.232,350.412 67.001,350.509 66.969 C 350.680 66.912,350.795 66.543,350.821 65.964 C 350.849 65.336,351.333 65.865,351.333 66.523 C 351.333 66.951,351.420 67.210,351.583 67.273 C 351.747 67.336,351.833 67.595,351.833 68.023 C 351.833 68.451,351.920 68.710,352.083 68.773 C 352.245 68.835,352.333 69.094,352.333 69.506 C 352.333 69.856,352.446 70.255,352.583 70.393 C 352.721 70.530,352.833 70.868,352.833 71.143 C 352.833 71.418,352.946 71.755,353.083 71.893 C 353.221 72.030,353.333 72.349,353.333 72.600 C 353.333 72.851,353.443 73.178,353.577 73.326 C 353.710 73.474,353.842 73.905,353.868 74.283 C 353.895 74.662,353.987 74.959,354.073 74.944 C 354.252 74.913,354.511 76.172,354.373 76.401 C 354.323 76.484,354.363 76.501,354.463 76.440 C 354.717 76.283,354.830 76.530,354.861 77.309 C 354.875 77.679,354.966 77.967,355.061 77.949 C 355.157 77.931,355.281 78.237,355.338 78.628 C 355.394 79.020,355.528 79.428,355.637 79.537 C 355.745 79.645,355.833 79.929,355.833 80.168 C 355.833 80.407,355.943 80.749,356.078 80.926 C 356.213 81.104,356.325 81.451,356.328 81.696 C 356.331 81.942,356.446 82.255,356.583 82.393 C 356.721 82.530,356.833 82.871,356.833 83.150 C 356.833 83.429,357.028 84.069,357.266 84.571 L 357.698 85.485 360.665 85.484 C 363.912 85.483,363.823 85.512,363.831 84.446 C 363.832 84.279,363.946 84.030,364.083 83.893 C 364.221 83.755,364.336 83.404,364.339 83.113 C 364.342 82.822,364.454 82.438,364.589 82.260 C 364.723 82.082,364.833 81.684,364.833 81.375 C 364.833 81.066,364.900 80.855,364.981 80.905 C 365.153 81.011,365.328 80.452,365.331 79.782 C 365.332 79.524,365.400 79.355,365.481 79.405 C 365.653 79.511,365.828 78.952,365.831 78.282 C 365.832 78.024,365.901 77.856,365.984 77.907 C 366.067 77.958,366.187 77.625,366.250 77.167 C 366.313 76.708,366.426 76.371,366.500 76.417 C 366.574 76.463,366.687 76.125,366.750 75.667 C 366.813 75.208,366.933 74.875,367.016 74.926 C 367.099 74.978,367.174 74.921,367.183 74.802 C 367.283 73.489,367.365 73.079,367.548 72.976 C 367.667 72.910,367.783 72.570,367.806 72.222 C 367.830 71.873,367.942 71.536,368.056 71.472 C 368.170 71.408,368.283 71.070,368.306 70.722 C 368.330 70.373,368.442 70.036,368.556 69.972 C 368.670 69.908,368.783 69.570,368.806 69.222 C 368.830 68.873,368.942 68.536,369.056 68.472 C 369.170 68.408,369.282 68.078,369.305 67.738 C 369.328 67.398,369.456 66.964,369.590 66.773 C 369.724 66.582,369.833 66.227,369.833 65.983 C 369.833 65.740,369.930 65.461,370.047 65.363 C 370.165 65.266,370.279 64.938,370.301 64.635 C 370.323 64.331,370.459 63.995,370.604 63.886 C 370.748 63.778,370.825 63.621,370.773 63.537 C 370.642 63.325,370.981 62.167,371.175 62.167 C 371.262 62.167,371.324 62.110,371.314 62.042 C 371.247 61.620,371.364 60.992,371.544 60.804 C 371.660 60.682,371.778 60.321,371.806 60.000 C 371.834 59.679,371.945 59.342,372.053 59.250 C 372.277 59.060,372.416 57.524,372.255 57.016 C 372.153 56.695,372.016 56.680,369.324 56.688 C 367.770 56.693,366.538 56.760,366.586 56.837 C 366.633 56.914,366.596 57.024,366.503 57.082 C 366.410 57.139,366.333 57.323,366.333 57.489 C 366.333 57.656,366.221 57.886,366.083 58.000 C 365.933 58.125,365.833 58.490,365.833 58.919 C 365.833 59.398,365.752 59.662,365.583 59.727 C 365.411 59.793,365.333 60.062,365.333 60.588 C 365.333 61.009,365.267 61.312,365.187 61.263 C 365.026 61.163,364.833 61.938,364.833 62.688 C 364.833 62.970,364.744 63.167,364.616 63.167 C 364.479 63.167,364.384 63.420,364.358 63.853 C 364.336 64.231,364.209 64.649,364.075 64.782 C 363.942 64.915,363.831 65.262,363.828 65.554 C 363.825 65.845,363.713 66.229,363.578 66.407 C 363.443 66.585,363.333 67.054,363.333 67.449 C 363.333 67.976,363.267 68.167,363.083 68.167 C 362.904 68.167,362.833 68.350,362.833 68.814 C 362.833 69.170,362.721 69.677,362.584 69.939 C 362.447 70.202,362.335 70.663,362.334 70.964 C 362.334 71.264,362.240 71.547,362.125 71.591 C 362.010 71.635,361.895 71.986,361.868 72.371 C 361.842 72.757,361.710 73.193,361.577 73.341 C 361.443 73.489,361.333 73.868,361.333 74.184 C 361.333 74.501,361.227 74.911,361.098 75.096 C 360.968 75.281,360.837 75.633,360.806 75.878 C 360.724 76.532,360.358 76.213,360.306 75.442 C 360.283 75.095,360.170 74.759,360.056 74.695 C 359.942 74.631,359.830 74.294,359.806 73.945 C 359.783 73.596,359.678 73.260,359.574 73.197 C 359.469 73.135,359.338 72.789,359.281 72.430 C 359.225 72.071,359.110 71.733,359.026 71.680 C 358.943 71.627,358.821 71.265,358.756 70.875 C 358.691 70.485,358.579 70.167,358.507 70.167 C 358.435 70.167,358.325 69.850,358.263 69.463 C 358.202 69.076,358.088 68.720,358.011 68.672 C 357.933 68.623,357.831 68.292,357.784 67.936 C 357.736 67.580,357.614 67.237,357.511 67.174 C 357.409 67.110,357.317 66.764,357.307 66.404 C 357.296 66.044,357.192 65.637,357.074 65.500 C 356.956 65.362,356.832 65.025,356.798 64.750 C 356.764 64.475,356.650 64.094,356.544 63.904 C 356.439 63.713,356.326 63.376,356.294 63.154 C 356.261 62.932,356.149 62.594,356.044 62.404 C 355.939 62.213,355.826 61.876,355.794 61.654 C 355.761 61.432,355.645 61.086,355.534 60.886 C 355.424 60.686,355.333 60.346,355.333 60.131 C 355.333 59.917,355.228 59.590,355.099 59.406 C 354.970 59.222,354.826 58.849,354.779 58.578 C 354.733 58.306,354.542 57.776,354.355 57.400 L 354.017 56.717 351.363 56.682 C 349.150 56.653,348.667 56.690,348.450 56.907 C 348.307 57.050,348.110 57.167,348.012 57.167 C 347.914 57.167,347.831 57.373,347.828 57.625 C 347.825 57.877,347.713 58.229,347.578 58.407 C 347.443 58.585,347.333 58.895,347.333 59.096 C 347.333 59.297,347.221 59.677,347.084 59.939 C 346.947 60.202,346.835 60.571,346.834 60.760 C 346.834 60.949,346.723 61.249,346.589 61.426 C 346.454 61.604,346.342 61.942,346.339 62.176 C 346.336 62.411,346.223 62.749,346.089 62.926 C 345.954 63.104,345.839 63.438,345.833 63.667 C 345.827 63.896,345.714 64.271,345.583 64.500 C 345.452 64.729,345.340 65.104,345.334 65.333 C 345.328 65.563,345.213 65.896,345.078 66.074 C 344.943 66.251,344.833 66.651,344.833 66.960 C 344.833 67.270,344.721 67.636,344.583 67.774 C 344.446 67.911,344.333 68.249,344.333 68.524 C 344.333 68.799,344.221 69.136,344.083 69.274 C 343.946 69.411,343.833 69.749,343.833 70.024 C 343.833 70.299,343.721 70.636,343.583 70.774 C 343.446 70.911,343.333 71.275,343.333 71.581 C 343.333 71.888,343.247 72.168,343.141 72.203 C 343.035 72.238,342.900 72.601,342.842 73.009 C 342.773 73.484,342.659 73.734,342.522 73.704 C 342.405 73.679,342.344 73.717,342.386 73.788 C 342.525 74.017,342.235 75.251,342.051 75.215 C 341.953 75.196,341.876 75.271,341.879 75.382 C 341.914 76.445,341.833 76.730,341.589 76.407 C 341.454 76.229,341.339 75.821,341.333 75.500 C 341.328 75.179,341.213 74.771,341.078 74.593 C 340.943 74.415,340.833 74.016,340.833 73.706 C 340.833 73.396,340.721 73.030,340.583 72.893 C 340.446 72.755,340.322 72.423,340.308 72.155 C 340.264 71.294,340.253 71.252,340.042 71.117 C 339.927 71.043,339.831 70.743,339.827 70.450 C 339.824 70.157,339.714 69.729,339.583 69.500 C 339.452 69.271,339.342 68.849,339.339 68.562 C 339.336 68.275,339.221 67.947,339.083 67.833 C 338.946 67.719,338.833 67.378,338.833 67.075 C 338.833 66.772,338.721 66.411,338.583 66.274 C 338.446 66.136,338.333 65.728,338.333 65.366 C 338.333 64.984,338.228 64.620,338.083 64.500 C 337.933 64.375,337.833 64.010,337.833 63.581 C 337.833 63.102,337.752 62.838,337.583 62.773 C 337.413 62.708,337.333 62.442,337.333 61.942 C 337.333 61.492,337.236 61.127,337.083 61.000 C 336.933 60.875,336.833 60.510,336.833 60.081 C 336.833 59.602,336.752 59.338,336.583 59.273 C 336.412 59.207,336.333 58.939,336.333 58.422 C 336.333 57.862,336.269 57.667,336.083 57.667 C 335.931 57.667,335.833 57.511,335.833 57.268 C 335.833 56.706,335.628 56.667,332.664 56.667 C 330.071 56.667,330.020 56.674,329.903 57.042 M221.000 61.698 C 221.137 61.732,221.362 61.830,221.500 61.916 C 221.637 62.002,221.919 62.051,222.125 62.025 C 222.354 61.995,222.500 62.065,222.500 62.203 C 222.500 62.327,222.667 62.442,222.872 62.457 C 223.076 62.472,223.328 62.601,223.432 62.743 C 223.535 62.884,223.663 63.000,223.716 63.000 C 224.029 63.000,226.506 65.699,226.537 66.074 C 226.557 66.308,226.669 66.500,226.786 66.500 C 226.915 66.500,227.000 66.709,227.000 67.023 C 227.000 67.329,227.121 67.635,227.292 67.760 C 227.551 67.949,227.583 68.308,227.583 70.969 C 227.583 73.588,227.547 74.006,227.292 74.287 C 227.131 74.465,227.000 74.847,227.000 75.138 C 227.000 75.429,226.934 75.667,226.854 75.667 C 226.773 75.667,226.621 75.875,226.515 76.129 C 226.264 76.736,225.464 77.667,225.193 77.667 C 225.076 77.667,225.027 77.742,225.084 77.835 C 225.141 77.927,225.015 78.072,224.802 78.158 C 224.590 78.243,224.484 78.317,224.566 78.323 C 224.793 78.339,223.891 79.126,223.505 79.248 C 223.319 79.307,223.167 79.426,223.167 79.511 C 223.167 79.597,223.022 79.667,222.845 79.667 C 222.668 79.667,222.411 79.779,222.274 79.917 C 222.136 80.055,221.728 80.167,221.363 80.167 C 220.929 80.167,220.669 80.253,220.606 80.417 C 220.467 80.780,217.912 80.779,217.772 80.415 C 217.719 80.277,217.618 80.173,217.546 80.185 C 216.855 80.298,215.975 80.139,216.060 79.917 C 216.135 79.723,216.022 79.667,215.560 79.667 C 215.111 79.667,214.987 79.608,215.056 79.427 C 215.116 79.271,215.021 79.168,214.782 79.131 C 214.581 79.101,214.435 78.983,214.458 78.871 C 214.481 78.759,214.403 78.667,214.284 78.667 C 214.165 78.667,213.884 78.445,213.659 78.174 C 213.434 77.903,213.148 77.678,213.024 77.674 C 212.893 77.670,212.838 77.562,212.893 77.419 C 212.945 77.282,212.934 77.189,212.869 77.210 C 212.550 77.317,211.500 75.746,211.500 75.161 C 211.500 74.990,211.397 74.790,211.271 74.717 C 211.133 74.636,211.009 74.170,210.957 73.540 C 210.910 72.966,210.784 72.391,210.677 72.263 C 210.442 71.980,210.507 69.905,210.750 69.943 C 210.844 69.958,210.939 69.451,210.968 68.779 C 211.000 68.040,211.111 67.487,211.260 67.323 C 211.392 67.177,211.500 66.985,211.500 66.897 C 211.500 66.531,212.198 65.412,212.907 64.642 C 213.325 64.189,213.667 63.746,213.667 63.659 C 213.667 63.571,213.800 63.500,213.963 63.500 C 214.126 63.500,214.450 63.282,214.684 63.015 C 214.918 62.749,215.291 62.505,215.513 62.474 C 215.735 62.442,216.016 62.323,216.137 62.208 C 216.336 62.020,216.705 61.927,217.042 61.980 C 217.110 61.991,217.167 61.930,217.167 61.846 C 217.167 61.578,220.061 61.467,221.000 61.698 M252.984 61.807 C 253.052 61.917,253.402 62.045,253.762 62.091 C 254.122 62.137,254.442 62.248,254.472 62.337 C 254.503 62.427,254.622 62.500,254.738 62.500 C 254.854 62.500,255.082 62.648,255.246 62.829 C 255.410 63.011,255.610 63.118,255.690 63.069 C 255.770 63.019,255.881 63.096,255.936 63.239 C 255.991 63.383,256.140 63.500,256.268 63.500 C 256.396 63.500,256.500 63.612,256.500 63.750 C 256.500 63.887,256.575 64.000,256.667 64.000 C 256.913 64.000,257.450 64.581,257.579 64.986 C 257.640 65.180,257.760 65.295,257.845 65.243 C 257.930 65.190,258.000 65.304,258.000 65.495 C 258.000 65.687,258.112 65.887,258.250 65.940 C 258.411 66.002,258.500 66.260,258.500 66.667 C 258.500 67.047,258.591 67.332,258.728 67.385 C 258.871 67.440,258.987 67.835,259.036 68.436 C 259.080 68.966,259.203 69.429,259.308 69.464 C 259.617 69.567,259.565 72.572,259.250 72.833 C 259.090 72.966,259.000 73.334,259.000 73.854 C 259.000 74.479,258.940 74.667,258.740 74.667 C 258.597 74.667,258.527 74.743,258.585 74.835 C 258.642 74.928,258.577 75.230,258.439 75.505 C 258.302 75.780,258.259 75.962,258.345 75.910 C 258.430 75.857,258.500 75.893,258.500 75.990 C 258.500 76.087,258.387 76.167,258.250 76.167 C 258.112 76.167,258.000 76.279,258.000 76.417 C 258.000 76.554,257.925 76.667,257.833 76.667 C 257.742 76.667,257.667 76.752,257.667 76.857 C 257.667 76.961,257.535 77.154,257.375 77.286 C 257.215 77.417,257.177 77.477,257.292 77.419 C 257.406 77.361,257.500 77.393,257.500 77.490 C 257.500 77.587,257.387 77.667,257.250 77.667 C 257.112 77.667,257.000 77.742,257.000 77.833 C 257.000 78.049,256.383 78.667,256.167 78.667 C 256.075 78.667,256.000 78.779,256.000 78.917 C 256.000 79.073,255.842 79.167,255.578 79.167 C 255.346 79.167,255.113 79.279,255.060 79.417 C 255.008 79.554,254.832 79.667,254.669 79.667 C 254.507 79.667,254.281 79.779,254.167 79.917 C 254.053 80.054,253.715 80.167,253.417 80.167 C 253.118 80.167,252.781 80.279,252.667 80.417 C 252.392 80.748,249.309 80.787,249.375 80.458 C 249.401 80.326,249.173 80.230,248.750 80.196 C 248.383 80.166,248.023 80.035,247.950 79.904 C 247.877 79.774,247.633 79.667,247.408 79.667 C 247.156 79.667,247.000 79.571,247.000 79.417 C 247.000 79.278,246.852 79.167,246.667 79.167 C 246.481 79.167,246.333 79.056,246.333 78.917 C 246.333 78.779,246.261 78.667,246.172 78.667 C 246.016 78.667,244.833 77.562,244.833 77.417 C 244.833 77.377,244.608 77.115,244.333 76.833 C 244.058 76.552,243.833 76.181,243.833 76.008 C 243.833 75.836,243.740 75.663,243.627 75.626 C 243.513 75.588,243.409 75.271,243.396 74.921 C 243.382 74.565,243.266 74.226,243.133 74.151 C 242.806 73.968,242.754 68.066,243.078 67.942 C 243.192 67.898,243.334 67.565,243.392 67.203 C 243.450 66.840,243.609 66.450,243.747 66.336 C 243.884 66.222,243.958 66.067,243.911 65.991 C 243.864 65.915,243.992 65.699,244.194 65.510 C 244.397 65.321,244.503 65.167,244.430 65.167 C 244.356 65.167,244.473 65.019,244.690 64.839 C 244.906 64.659,245.013 64.509,244.927 64.506 C 244.698 64.497,245.693 63.500,245.930 63.500 C 246.041 63.500,246.174 63.387,246.227 63.250 C 246.280 63.112,246.430 63.000,246.560 63.000 C 246.691 63.000,246.841 62.887,246.894 62.750 C 246.946 62.612,247.136 62.500,247.314 62.500 C 247.493 62.500,247.665 62.422,247.697 62.326 C 247.729 62.231,247.967 62.130,248.227 62.102 C 248.486 62.074,248.747 61.974,248.808 61.878 C 249.053 61.489,252.748 61.426,252.984 61.807 M316.644 61.793 C 316.702 61.886,317.078 61.999,317.478 62.044 C 317.878 62.090,318.253 62.200,318.311 62.288 C 318.369 62.376,318.623 62.499,318.875 62.561 C 319.127 62.623,319.333 62.747,319.333 62.837 C 319.333 62.926,319.446 63.000,319.583 63.000 C 319.721 63.000,319.833 63.112,319.833 63.250 C 319.833 63.479,320.037 63.577,320.387 63.516 C 320.463 63.502,320.481 63.563,320.427 63.651 C 320.373 63.738,320.485 63.859,320.677 63.920 C 320.868 63.981,320.987 64.069,320.940 64.115 C 320.893 64.162,321.187 64.523,321.593 64.918 C 322.000 65.312,322.351 65.811,322.374 66.026 C 322.398 66.241,322.514 66.493,322.632 66.586 C 322.751 66.680,322.869 66.957,322.895 67.202 C 322.921 67.447,323.029 67.751,323.135 67.879 C 323.241 68.006,323.360 68.582,323.400 69.158 C 323.440 69.734,323.553 70.287,323.653 70.386 C 323.883 70.616,323.896 71.892,323.667 71.750 C 323.575 71.693,323.499 71.783,323.497 71.948 C 323.487 72.981,323.260 74.601,323.112 74.696 C 323.016 74.758,322.909 75.021,322.875 75.279 C 322.841 75.538,322.742 75.775,322.656 75.806 C 322.570 75.836,322.500 75.970,322.500 76.103 C 322.500 76.236,322.278 76.562,322.006 76.827 C 321.734 77.093,321.464 77.503,321.405 77.738 C 321.346 77.974,321.193 78.167,321.065 78.167 C 320.938 78.167,320.833 78.279,320.833 78.417 C 320.833 78.557,320.685 78.667,320.495 78.667 C 320.309 78.667,320.113 78.779,320.060 78.917 C 320.008 79.054,319.858 79.167,319.727 79.167 C 319.596 79.167,319.446 79.279,319.394 79.417 C 319.341 79.554,319.153 79.667,318.977 79.667 C 318.801 79.667,318.613 79.779,318.560 79.917 C 318.498 80.080,318.238 80.167,317.810 80.167 C 317.383 80.167,317.123 80.253,317.060 80.417 C 316.983 80.619,316.598 80.667,315.048 80.667 C 313.536 80.667,313.149 80.621,313.215 80.448 C 313.274 80.293,313.099 80.219,312.608 80.192 C 312.228 80.172,311.833 80.045,311.732 79.911 C 311.630 79.776,311.394 79.667,311.208 79.667 C 311.021 79.667,310.826 79.554,310.773 79.417 C 310.720 79.279,310.554 79.167,310.404 79.167 C 310.231 79.167,310.166 79.076,310.226 78.919 C 310.279 78.782,310.268 78.679,310.202 78.688 C 309.801 78.748,309.641 78.641,309.741 78.380 C 309.801 78.222,309.800 78.145,309.737 78.208 C 309.574 78.371,308.971 78.015,309.089 77.825 C 309.142 77.738,309.069 77.667,308.927 77.667 C 308.784 77.667,308.667 77.582,308.667 77.477 C 308.667 77.373,308.479 77.114,308.250 76.902 C 308.021 76.690,307.833 76.409,307.833 76.278 C 307.833 76.148,307.721 75.947,307.583 75.833 C 307.446 75.719,307.333 75.445,307.333 75.224 C 307.333 75.004,307.221 74.780,307.083 74.727 C 306.946 74.674,306.833 74.560,306.833 74.472 C 306.833 74.385,306.927 74.367,307.042 74.431 C 307.208 74.525,307.208 74.504,307.042 74.324 C 306.917 74.190,306.833 73.641,306.833 72.961 C 306.833 72.168,306.766 71.797,306.612 71.738 C 306.350 71.637,306.359 71.226,306.635 70.719 C 306.744 70.519,306.833 69.834,306.833 69.198 C 306.833 68.373,306.905 67.981,307.083 67.833 C 307.221 67.719,307.333 67.373,307.333 67.063 C 307.333 66.674,307.410 66.500,307.583 66.500 C 307.740 66.500,307.833 66.342,307.833 66.078 C 307.833 65.846,307.946 65.613,308.083 65.560 C 308.221 65.508,308.333 65.360,308.333 65.232 C 308.333 65.104,308.437 65.000,308.564 65.000 C 308.691 65.000,308.836 64.842,308.886 64.650 C 308.936 64.457,309.057 64.349,309.155 64.410 C 309.253 64.470,309.333 64.441,309.333 64.345 C 309.333 64.084,309.877 63.500,310.120 63.500 C 310.238 63.500,310.333 63.383,310.333 63.240 C 310.333 63.097,310.404 63.024,310.490 63.077 C 310.576 63.130,310.709 63.062,310.785 62.925 C 310.862 62.788,311.098 62.650,311.309 62.617 C 311.521 62.585,311.750 62.468,311.819 62.357 C 311.887 62.246,312.312 62.111,312.763 62.057 C 313.214 62.002,313.621 61.904,313.667 61.837 C 313.916 61.476,316.420 61.439,316.644 61.793 M182.106 71.750 C 182.171 71.918,182.435 72.000,182.917 72.000 C 183.398 72.000,183.662 72.082,183.727 72.250 C 183.787 72.407,184.042 72.500,184.411 72.500 C 184.823 72.500,185.000 72.575,185.000 72.750 C 185.000 72.887,185.112 73.000,185.250 73.000 C 185.543 73.000,185.618 74.599,185.329 74.696 C 185.236 74.727,185.111 75.048,185.052 75.409 C 184.994 75.771,184.781 76.220,184.579 76.408 C 184.378 76.596,184.159 76.922,184.093 77.133 C 183.940 77.620,182.902 78.667,182.573 78.667 C 182.435 78.667,182.280 78.779,182.227 78.917 C 182.174 79.054,182.027 79.167,181.899 79.167 C 181.771 79.167,181.667 79.279,181.667 79.417 C 181.667 79.583,181.500 79.667,181.167 79.667 C 180.842 79.667,180.667 79.751,180.667 79.908 C 180.667 80.077,180.431 80.164,179.875 80.199 C 179.337 80.234,179.097 80.319,179.127 80.465 C 179.161 80.630,178.833 80.669,177.711 80.632 C 176.651 80.597,176.261 80.526,176.292 80.375 C 176.320 80.234,176.098 80.167,175.601 80.167 C 175.104 80.167,174.838 80.086,174.773 79.917 C 174.720 79.779,174.525 79.667,174.339 79.667 C 174.149 79.667,174.000 79.557,174.000 79.417 C 174.000 79.274,173.850 79.167,173.649 79.167 C 173.405 79.167,173.327 79.090,173.394 78.917 C 173.446 78.779,173.417 78.667,173.328 78.667 C 172.557 78.667,172.064 75.402,172.750 74.833 C 172.887 74.719,173.000 74.525,173.000 74.402 C 173.000 74.146,174.095 73.000,174.339 73.000 C 174.428 73.000,174.500 72.887,174.500 72.750 C 174.500 72.583,174.667 72.500,175.000 72.500 C 175.333 72.500,175.500 72.417,175.500 72.250 C 175.500 72.034,176.636 71.869,177.369 71.978 C 177.434 71.988,177.445 71.884,177.393 71.748 C 177.311 71.536,177.636 71.500,179.654 71.500 C 181.595 71.500,182.027 71.544,182.106 71.750 " stroke="none" fill="#757575" fill-rule="evenodd"></path><path id="path4" d="M99.080 64.583 C 99.080 74.208,99.100 78.121,99.125 73.279 C 99.150 68.436,99.150 60.561,99.125 55.779 C 99.100 50.996,99.080 54.958,99.080 64.583 " stroke="none" fill="#550000" fill-rule="evenodd"></path><path id="path5" d="" stroke="none" fill="#b62400" fill-rule="evenodd"></path><path id="path6" d="M26.833 64.583 C 26.833 76.083,26.890 82.000,27.000 82.000 C 27.110 82.000,27.167 76.083,27.167 64.583 C 27.167 53.083,27.110 47.167,27.000 47.167 C 26.890 47.167,26.833 53.083,26.833 64.583 M44.744 104.000 C 44.744 108.721,44.765 110.652,44.792 108.292 C 44.818 105.931,44.818 102.069,44.792 99.708 C 44.765 97.348,44.744 99.279,44.744 104.000 " stroke="none" fill="#d14600" fill-rule="evenodd"></path><path id="path7" d="" stroke="none" fill="#ff0000" fill-rule="evenodd"></path><path id="path8" d="M97.792 44.298 C 97.631 44.331,97.500 44.419,97.500 44.495 C 97.500 44.570,97.106 44.837,96.625 45.087 C 96.144 45.338,95.712 45.589,95.667 45.646 C 95.621 45.703,95.321 45.890,95.000 46.062 C 93.948 46.625,93.258 47.018,92.750 47.343 C 92.475 47.519,92.138 47.715,92.000 47.779 C 91.862 47.843,91.225 48.204,90.583 48.581 C 89.942 48.958,89.304 49.320,89.167 49.385 C 89.029 49.450,88.692 49.648,88.417 49.823 C 88.142 49.999,87.579 50.327,87.167 50.552 C 86.754 50.776,86.154 51.118,85.833 51.312 C 85.513 51.505,85.137 51.716,85.000 51.780 C 84.862 51.843,83.832 52.444,82.709 53.114 C 81.587 53.785,80.638 54.333,80.601 54.333 C 80.564 54.333,79.607 54.881,78.475 55.551 C 77.343 56.220,76.304 56.821,76.167 56.886 C 76.029 56.951,75.692 57.152,75.417 57.333 C 75.142 57.515,74.804 57.716,74.667 57.781 C 74.529 57.847,73.704 58.317,72.833 58.826 C 71.962 59.335,70.950 59.901,70.583 60.084 C 70.217 60.267,69.879 60.456,69.833 60.505 C 69.719 60.627,67.661 61.833,67.568 61.833 C 67.527 61.833,67.176 62.038,66.788 62.288 C 65.709 62.985,65.450 63.138,65.020 63.330 C 64.802 63.428,64.408 63.662,64.144 63.849 C 63.143 64.562,62.708 64.562,61.507 63.850 C 60.907 63.495,60.042 62.998,59.583 62.747 C 59.125 62.496,58.632 62.187,58.487 62.062 C 58.342 61.936,58.164 61.833,58.091 61.833 C 58.018 61.833,57.403 61.496,56.724 61.083 C 56.044 60.671,55.456 60.333,55.417 60.333 C 55.377 60.333,54.761 59.990,54.048 59.571 C 53.334 59.152,52.637 58.743,52.500 58.663 C 51.293 57.954,47.076 55.504,46.417 55.129 C 45.958 54.868,45.471 54.586,45.333 54.503 C 45.196 54.420,44.521 54.030,43.833 53.636 C 43.146 53.243,42.433 52.829,42.250 52.718 C 42.067 52.606,41.759 52.442,41.567 52.354 C 41.247 52.208,39.259 51.047,38.667 50.661 C 38.529 50.571,38.304 50.446,38.167 50.382 C 38.030 50.318,37.205 49.845,36.334 49.330 C 35.463 48.815,34.637 48.342,34.500 48.278 C 34.362 48.215,34.025 48.018,33.750 47.841 C 33.475 47.663,32.912 47.348,32.500 47.141 C 32.087 46.934,31.637 46.677,31.500 46.570 C 31.363 46.464,30.875 46.171,30.417 45.920 C 29.958 45.668,29.263 45.276,28.872 45.047 C 27.841 44.445,27.406 44.600,27.253 45.623 C 27.188 46.060,27.087 46.492,27.030 46.583 C 26.860 46.856,26.852 47.167,27.015 47.167 C 27.105 47.167,27.167 54.210,27.167 64.583 C 27.167 77.350,27.117 82.000,26.980 82.000 C 26.848 82.000,26.844 82.062,26.967 82.211 C 27.115 82.388,27.214 82.865,27.365 84.118 C 27.378 84.228,27.489 84.357,27.611 84.404 C 27.733 84.451,27.833 84.644,27.833 84.833 C 27.833 85.022,27.945 85.220,28.082 85.273 C 28.219 85.325,28.290 85.435,28.239 85.517 C 28.188 85.600,28.231 85.667,28.333 85.667 C 28.436 85.667,28.473 85.742,28.417 85.833 C 28.360 85.925,28.473 86.000,28.667 86.000 C 28.874 86.000,28.974 86.073,28.910 86.178 C 28.849 86.276,28.956 86.397,29.148 86.447 C 29.340 86.497,29.455 86.605,29.404 86.688 C 29.353 86.770,29.540 86.883,29.819 86.939 C 30.098 86.995,30.412 87.144,30.517 87.270 C 30.622 87.397,30.848 87.500,31.020 87.500 C 31.193 87.500,31.333 87.612,31.333 87.750 C 31.333 87.888,31.478 88.000,31.655 88.000 C 31.832 88.000,32.089 88.112,32.226 88.250 C 32.364 88.388,32.553 88.500,32.646 88.500 C 32.740 88.500,32.893 88.631,32.987 88.792 C 33.080 88.952,33.159 89.020,33.162 88.942 C 33.164 88.864,33.433 88.958,33.760 89.150 C 34.086 89.343,34.453 89.500,34.575 89.500 C 34.697 89.500,34.841 89.612,34.894 89.750 C 34.946 89.888,35.142 90.000,35.328 90.000 C 35.514 90.000,35.667 90.077,35.667 90.172 C 35.667 90.266,35.798 90.393,35.958 90.454 C 36.119 90.515,36.349 90.663,36.470 90.782 C 36.591 90.902,36.827 91.000,36.994 91.000 C 37.161 91.000,37.341 91.112,37.394 91.250 C 37.446 91.388,37.601 91.500,37.736 91.500 C 37.872 91.500,38.046 91.612,38.123 91.749 C 38.199 91.886,38.464 92.015,38.710 92.035 C 38.957 92.055,39.196 92.168,39.241 92.286 C 39.286 92.404,39.438 92.500,39.578 92.500 C 39.718 92.500,39.833 92.569,39.833 92.653 C 39.833 92.738,40.058 92.856,40.333 92.917 C 40.608 92.977,40.833 93.099,40.833 93.189 C 40.833 93.278,41.058 93.429,41.333 93.525 C 41.608 93.621,41.791 93.767,41.740 93.850 C 41.689 93.932,41.868 94.000,42.139 94.000 C 42.423 94.000,42.672 94.106,42.727 94.250 C 42.780 94.388,42.938 94.500,43.078 94.500 C 43.218 94.500,43.333 94.574,43.333 94.663 C 43.333 94.753,43.532 94.877,43.774 94.938 C 44.901 95.220,44.847 94.740,44.833 104.381 C 44.826 109.167,44.823 113.257,44.827 113.468 C 44.830 113.681,44.908 113.807,45.000 113.750 C 45.092 113.693,45.167 113.760,45.167 113.897 C 45.167 114.035,45.392 114.281,45.667 114.443 C 45.942 114.606,46.167 114.781,46.167 114.832 C 46.167 114.912,46.650 114.917,47.635 114.849 C 47.755 114.840,47.807 114.759,47.751 114.669 C 47.694 114.576,47.757 114.545,47.895 114.598 C 48.030 114.650,48.297 114.537,48.487 114.346 C 48.678 114.156,48.921 114.000,49.029 114.000 C 49.136 114.000,49.353 113.883,49.510 113.741 C 49.667 113.599,49.954 113.470,50.148 113.456 C 50.342 113.441,50.500 113.368,50.500 113.294 C 50.500 113.220,50.685 113.075,50.911 112.972 C 51.138 112.869,51.282 112.719,51.232 112.638 C 51.183 112.558,51.204 112.502,51.279 112.516 C 51.355 112.529,51.473 112.521,51.542 112.499 C 51.610 112.477,51.723 112.446,51.792 112.432 C 51.860 112.417,52.234 112.202,52.622 111.953 C 53.009 111.704,53.441 111.500,53.580 111.500 C 53.719 111.500,53.833 111.423,53.833 111.329 C 53.833 111.235,54.021 111.087,54.250 111.000 C 54.479 110.913,54.667 110.765,54.667 110.671 C 54.667 110.577,54.850 110.500,55.075 110.500 C 55.300 110.500,55.552 110.378,55.635 110.229 C 55.718 110.080,55.989 109.958,56.236 109.958 C 56.533 109.958,56.658 109.886,56.605 109.746 C 56.552 109.608,56.734 109.493,57.125 109.420 C 57.571 109.336,57.665 109.268,57.488 109.156 C 57.311 109.044,57.363 109.004,57.691 109.003 C 57.933 109.001,58.174 108.888,58.227 108.750 C 58.280 108.612,58.467 108.500,58.644 108.500 C 58.820 108.500,59.008 108.388,59.060 108.250 C 59.113 108.112,59.266 108.000,59.400 108.000 C 59.533 108.000,59.749 107.893,59.880 107.763 C 60.010 107.633,60.259 107.501,60.433 107.471 C 60.608 107.441,60.849 107.323,60.970 107.208 C 61.091 107.094,61.298 107.000,61.429 107.000 C 61.560 107.000,61.667 106.888,61.667 106.750 C 61.667 106.610,61.815 106.500,62.005 106.500 C 62.191 106.500,62.387 106.388,62.440 106.250 C 62.492 106.112,62.706 106.000,62.914 106.000 C 63.122 106.000,63.386 105.888,63.500 105.750 C 63.614 105.612,63.814 105.500,63.944 105.500 C 64.191 105.500,64.498 105.287,64.965 104.792 C 65.117 104.631,65.370 104.500,65.527 104.500 C 65.685 104.500,65.863 104.420,65.923 104.323 C 65.983 104.226,66.194 104.075,66.391 103.987 C 66.589 103.900,66.975 103.680,67.250 103.498 C 67.525 103.316,67.956 103.085,68.208 102.984 C 68.460 102.883,68.667 102.739,68.667 102.664 C 68.667 102.588,68.892 102.477,69.168 102.416 C 69.444 102.356,69.627 102.237,69.575 102.153 C 69.493 102.021,69.904 101.925,70.054 102.042 C 70.083 102.065,70.238 101.952,70.399 101.792 C 70.559 101.631,70.798 101.500,70.929 101.500 C 71.060 101.500,71.167 101.388,71.167 101.250 C 71.167 101.037,71.575 100.910,72.036 100.978 C 72.101 100.988,72.112 100.884,72.060 100.748 C 71.994 100.578,72.072 100.500,72.304 100.500 C 72.490 100.500,72.749 100.393,72.880 100.263 C 73.010 100.133,73.259 100.001,73.433 99.971 C 73.608 99.941,73.893 99.788,74.067 99.631 C 74.241 99.474,74.447 99.384,74.525 99.432 C 74.603 99.480,74.667 99.403,74.667 99.260 C 74.667 99.110,74.810 99.000,75.005 99.000 C 75.191 99.000,75.387 98.888,75.440 98.750 C 75.492 98.612,75.711 98.500,75.925 98.500 C 76.139 98.500,76.363 98.420,76.423 98.323 C 76.483 98.226,76.717 98.076,76.943 97.990 C 77.169 97.904,77.307 97.760,77.251 97.669 C 77.194 97.576,77.257 97.545,77.398 97.599 C 77.537 97.653,77.777 97.542,77.943 97.347 C 78.107 97.156,78.365 97.000,78.517 97.000 C 78.668 97.000,78.886 96.888,79.000 96.750 C 79.114 96.612,79.311 96.500,79.437 96.500 C 79.563 96.500,79.667 96.417,79.667 96.316 C 79.667 96.214,79.783 96.176,79.925 96.230 C 80.074 96.287,80.141 96.259,80.082 96.165 C 80.026 96.074,80.135 96.000,80.323 96.000 C 80.517 96.000,80.667 95.891,80.667 95.750 C 80.667 95.612,80.811 95.500,80.988 95.500 C 81.165 95.500,81.422 95.388,81.560 95.250 C 81.697 95.112,81.923 95.000,82.062 95.000 C 82.200 95.000,82.355 94.933,82.406 94.851 C 82.457 94.768,82.814 94.537,83.200 94.335 C 83.586 94.134,83.981 93.873,84.076 93.755 C 84.172 93.637,84.459 93.491,84.715 93.432 C 84.971 93.372,85.135 93.251,85.080 93.162 C 85.025 93.073,85.129 93.000,85.310 93.000 C 85.790 93.000,86.179 92.821,86.073 92.649 C 86.022 92.567,86.126 92.500,86.303 92.500 C 86.481 92.500,86.719 92.388,86.833 92.250 C 86.947 92.112,87.146 92.000,87.276 92.000 C 87.405 92.000,87.554 91.888,87.606 91.750 C 87.659 91.612,87.847 91.500,88.023 91.500 C 88.199 91.500,88.387 91.388,88.440 91.250 C 88.492 91.112,88.672 91.000,88.838 91.000 C 89.293 91.000,89.676 90.817,89.573 90.649 C 89.522 90.567,89.670 90.500,89.902 90.500 C 90.176 90.500,90.294 90.425,90.241 90.286 C 90.190 90.154,90.303 90.061,90.534 90.043 C 90.741 90.028,90.995 89.899,91.098 89.757 C 91.202 89.616,91.385 89.500,91.505 89.500 C 91.625 89.500,91.853 89.383,92.010 89.241 C 92.167 89.099,92.449 88.971,92.636 88.956 C 92.824 88.942,92.942 88.874,92.898 88.804 C 92.855 88.734,93.010 88.629,93.243 88.570 C 93.476 88.512,93.667 88.359,93.667 88.232 C 93.667 88.036,94.091 87.912,94.536 87.978 C 94.601 87.988,94.612 87.884,94.560 87.748 C 94.488 87.562,94.590 87.500,94.964 87.500 C 95.255 87.500,95.504 87.395,95.560 87.250 C 95.613 87.112,95.806 87.000,95.990 87.000 C 96.193 87.000,96.291 86.916,96.241 86.786 C 96.190 86.655,96.302 86.561,96.526 86.544 C 96.729 86.529,96.959 86.400,97.039 86.258 C 97.118 86.116,97.276 86.000,97.389 86.000 C 97.503 86.000,97.608 85.833,97.624 85.628 C 97.639 85.424,97.768 85.172,97.909 85.068 C 98.051 84.965,98.167 84.757,98.167 84.607 C 98.167 84.456,98.260 84.333,98.375 84.333 C 98.496 84.333,98.603 84.071,98.631 83.708 C 98.656 83.364,98.727 82.858,98.788 82.583 C 98.939 81.901,98.906 46.961,98.754 45.917 C 98.687 45.458,98.537 44.971,98.421 44.833 C 98.305 44.696,98.182 44.506,98.147 44.411 C 98.112 44.316,97.952 44.265,97.792 44.298 " stroke="none" fill="#ef6c00" fill-rule="evenodd"></path><path id="path9" d="M60.707 24.269 C 60.592 24.320,60.540 24.430,60.592 24.514 C 60.644 24.598,60.572 24.667,60.432 24.667 C 60.158 24.667,58.806 25.320,58.665 25.519 C 58.618 25.586,58.375 25.692,58.124 25.755 C 57.874 25.817,57.710 25.936,57.761 26.018 C 57.812 26.100,57.699 26.167,57.510 26.167 C 57.321 26.167,57.167 26.246,57.167 26.342 C 57.167 26.438,56.942 26.596,56.667 26.692 C 56.392 26.788,56.167 26.934,56.167 27.016 C 56.167 27.099,56.028 27.167,55.859 27.167 C 55.690 27.167,55.380 27.315,55.171 27.497 C 54.961 27.678,54.725 27.786,54.645 27.737 C 54.565 27.687,54.500 27.708,54.500 27.782 C 54.500 27.856,54.144 28.103,53.708 28.331 C 53.273 28.559,52.842 28.838,52.750 28.953 C 52.658 29.067,52.400 29.187,52.175 29.220 C 51.951 29.254,51.739 29.367,51.703 29.474 C 51.668 29.580,51.538 29.667,51.415 29.667 C 51.291 29.667,51.091 29.761,50.970 29.876 C 50.849 29.991,50.432 30.235,50.044 30.418 C 49.655 30.601,49.336 30.844,49.335 30.958 C 49.334 31.136,48.883 31.253,48.458 31.186 C 48.390 31.176,48.333 31.279,48.333 31.417 C 48.333 31.554,48.189 31.667,48.012 31.667 C 47.835 31.667,47.578 31.779,47.440 31.917 C 47.303 32.054,47.119 32.167,47.032 32.167 C 46.945 32.167,46.781 32.279,46.667 32.417 C 46.553 32.554,46.335 32.667,46.183 32.667 C 46.032 32.667,45.776 32.820,45.616 33.007 C 45.456 33.194,45.251 33.302,45.161 33.247 C 45.071 33.191,44.953 33.263,44.898 33.406 C 44.843 33.549,44.656 33.667,44.482 33.667 C 44.309 33.667,44.167 33.754,44.167 33.861 C 44.167 33.968,44.118 34.007,44.058 33.947 C 43.999 33.888,43.777 34.025,43.566 34.253 C 43.355 34.480,43.038 34.667,42.862 34.667 C 42.685 34.667,42.447 34.779,42.333 34.917 C 42.219 35.054,41.983 35.167,41.808 35.167 C 41.633 35.167,41.446 35.279,41.394 35.417 C 41.341 35.554,41.156 35.667,40.982 35.667 C 40.809 35.667,40.667 35.734,40.667 35.817 C 40.667 35.900,40.442 36.046,40.167 36.142 C 39.892 36.238,39.667 36.387,39.667 36.473 C 39.667 36.560,39.479 36.678,39.250 36.735 C 39.021 36.793,38.833 36.913,38.833 37.003 C 38.833 37.093,38.688 37.167,38.510 37.167 C 38.332 37.167,38.143 37.237,38.089 37.324 C 38.036 37.410,37.647 37.653,37.226 37.863 C 36.804 38.074,36.423 38.341,36.378 38.456 C 36.334 38.572,36.116 38.667,35.894 38.667 C 35.671 38.667,35.446 38.779,35.394 38.917 C 35.341 39.054,35.161 39.167,34.994 39.167 C 34.827 39.167,34.591 39.265,34.470 39.384 C 34.349 39.504,34.119 39.652,33.958 39.712 C 33.798 39.773,33.667 39.900,33.667 39.995 C 33.667 40.089,33.522 40.167,33.345 40.167 C 33.168 40.167,32.911 40.279,32.774 40.417 C 32.636 40.554,32.368 40.667,32.179 40.667 C 31.989 40.667,31.833 40.770,31.833 40.896 C 31.833 41.022,31.603 41.171,31.322 41.227 C 31.038 41.284,30.858 41.404,30.915 41.498 C 30.973 41.591,30.865 41.667,30.677 41.667 C 30.483 41.667,30.333 41.775,30.333 41.917 C 30.333 42.131,29.918 42.259,29.458 42.186 C 29.390 42.176,29.333 42.279,29.333 42.417 C 29.333 42.554,29.221 42.667,29.083 42.667 C 28.946 42.667,28.833 42.770,28.833 42.897 C 28.833 43.024,28.681 43.168,28.495 43.216 C 28.309 43.265,28.178 43.405,28.204 43.527 C 28.229 43.650,28.164 43.734,28.060 43.714 C 27.955 43.695,27.837 43.901,27.797 44.173 C 27.743 44.542,27.791 44.667,27.987 44.667 C 28.132 44.667,28.685 44.930,29.217 45.250 C 29.748 45.571,30.219 45.833,30.262 45.833 C 30.305 45.833,30.657 46.037,31.045 46.287 C 31.433 46.536,32.087 46.914,32.500 47.127 C 32.912 47.339,33.475 47.660,33.750 47.838 C 34.025 48.017,34.362 48.215,34.500 48.278 C 34.783 48.409,37.951 50.246,38.333 50.502 C 38.471 50.594,38.696 50.720,38.833 50.782 C 38.971 50.844,39.564 51.187,40.151 51.545 C 40.738 51.902,41.375 52.266,41.567 52.354 C 41.759 52.442,42.067 52.606,42.250 52.718 C 42.433 52.829,43.146 53.243,43.833 53.636 C 44.521 54.030,45.196 54.420,45.333 54.503 C 45.471 54.586,45.958 54.868,46.417 55.129 C 47.076 55.504,51.293 57.954,52.500 58.663 C 52.637 58.743,53.334 59.152,54.048 59.571 C 54.761 59.990,55.377 60.333,55.417 60.333 C 55.456 60.333,56.044 60.671,56.724 61.083 C 57.403 61.496,58.018 61.833,58.091 61.833 C 58.164 61.833,58.342 61.936,58.487 62.062 C 58.632 62.187,59.125 62.496,59.583 62.747 C 60.042 62.998,60.907 63.495,61.507 63.850 C 62.708 64.562,63.143 64.562,64.144 63.849 C 64.408 63.662,64.802 63.428,65.020 63.330 C 65.450 63.138,65.709 62.985,66.788 62.288 C 67.176 62.038,67.527 61.833,67.568 61.833 C 67.661 61.833,69.719 60.627,69.833 60.505 C 69.879 60.456,70.217 60.267,70.583 60.084 C 70.950 59.901,71.962 59.335,72.833 58.826 C 73.704 58.317,74.529 57.847,74.667 57.781 C 74.804 57.716,75.142 57.515,75.417 57.333 C 75.692 57.152,76.029 56.951,76.167 56.886 C 76.304 56.821,77.343 56.220,78.475 55.551 C 79.607 54.881,80.564 54.333,80.601 54.333 C 80.638 54.333,81.587 53.785,82.709 53.114 C 83.832 52.444,84.862 51.843,85.000 51.780 C 85.137 51.716,85.513 51.505,85.833 51.312 C 86.154 51.118,86.754 50.776,87.167 50.552 C 87.579 50.327,88.142 49.999,88.417 49.823 C 88.692 49.648,89.029 49.450,89.167 49.385 C 89.304 49.320,89.942 48.958,90.583 48.581 C 91.225 48.204,91.862 47.843,92.000 47.779 C 92.138 47.715,92.475 47.519,92.750 47.343 C 93.258 47.018,93.948 46.625,95.000 46.062 C 95.321 45.890,95.621 45.703,95.667 45.646 C 95.712 45.589,96.144 45.338,96.625 45.087 C 97.106 44.837,97.500 44.565,97.500 44.483 C 97.500 44.400,97.608 44.333,97.740 44.333 C 98.195 44.333,98.168 44.027,97.668 43.527 C 97.392 43.251,97.167 42.945,97.167 42.846 C 97.167 42.747,97.017 42.667,96.833 42.667 C 96.650 42.667,96.519 42.577,96.542 42.468 C 96.565 42.359,96.433 42.239,96.250 42.201 C 96.067 42.163,95.804 42.036,95.667 41.919 C 95.529 41.802,95.248 41.655,95.042 41.592 C 94.835 41.529,94.667 41.408,94.667 41.322 C 94.667 41.237,94.517 41.167,94.333 41.167 C 94.148 41.167,94.000 41.056,94.000 40.917 C 94.000 40.761,93.843 40.667,93.583 40.667 C 93.354 40.667,93.167 40.599,93.167 40.516 C 93.167 40.434,92.942 40.288,92.667 40.192 C 92.392 40.096,92.167 39.938,92.167 39.842 C 92.167 39.746,92.017 39.667,91.833 39.667 C 91.650 39.667,91.500 39.593,91.500 39.503 C 91.500 39.413,91.316 39.293,91.090 39.237 C 90.865 39.180,90.593 39.029,90.486 38.900 C 90.380 38.772,90.149 38.667,89.974 38.667 C 89.799 38.667,89.613 38.554,89.560 38.417 C 89.508 38.279,89.389 38.167,89.298 38.167 C 89.207 38.167,88.798 37.942,88.391 37.667 C 87.983 37.392,87.573 37.167,87.480 37.167 C 87.386 37.167,87.197 37.054,87.060 36.917 C 86.922 36.779,86.669 36.667,86.496 36.667 C 86.324 36.667,86.123 36.572,86.050 36.457 C 85.977 36.341,85.618 36.097,85.253 35.915 C 84.887 35.733,84.488 35.490,84.366 35.375 C 84.243 35.260,84.044 35.167,83.923 35.167 C 83.801 35.167,83.659 35.054,83.606 34.917 C 83.554 34.779,83.395 34.667,83.254 34.667 C 83.113 34.667,82.687 34.442,82.307 34.167 C 81.927 33.892,81.515 33.667,81.392 33.667 C 81.268 33.667,81.167 33.598,81.167 33.513 C 81.167 33.429,80.942 33.310,80.667 33.250 C 80.392 33.190,80.167 33.076,80.167 32.998 C 80.167 32.920,79.998 32.803,79.792 32.739 C 79.585 32.675,79.143 32.407,78.809 32.144 C 78.475 31.882,78.082 31.667,77.934 31.667 C 77.787 31.667,77.667 31.598,77.667 31.513 C 77.667 31.429,77.442 31.310,77.167 31.250 C 76.892 31.190,76.667 31.069,76.667 30.982 C 76.667 30.894,76.535 30.773,76.375 30.712 C 76.215 30.652,75.984 30.504,75.863 30.384 C 75.742 30.265,75.506 30.167,75.339 30.167 C 75.172 30.167,74.992 30.054,74.940 29.917 C 74.887 29.779,74.701 29.667,74.526 29.667 C 74.351 29.667,74.114 29.554,74.000 29.417 C 73.886 29.279,73.652 29.167,73.480 29.167 C 73.307 29.167,73.167 29.054,73.167 28.917 C 73.167 28.774,73.017 28.667,72.816 28.667 C 72.623 28.667,72.181 28.442,71.833 28.167 C 71.486 27.892,71.090 27.667,70.952 27.667 C 70.815 27.667,70.659 27.554,70.606 27.417 C 70.554 27.279,70.395 27.167,70.254 27.167 C 70.113 27.167,69.687 26.942,69.307 26.667 C 68.927 26.392,68.522 26.167,68.406 26.167 C 68.289 26.167,68.169 26.091,68.138 25.998 C 68.107 25.906,67.912 25.797,67.705 25.757 C 67.497 25.717,67.219 25.587,67.086 25.467 C 66.531 24.967,66.333 24.826,66.333 24.931 C 66.333 24.991,66.221 24.947,66.083 24.833 C 65.946 24.719,65.833 24.684,65.833 24.755 C 65.833 24.827,65.676 24.742,65.483 24.567 C 65.134 24.251,61.290 24.011,60.707 24.269 " stroke="none" fill="#ff9800" fill-rule="evenodd"></path><path id="path10" d="" stroke="none" fill="#ffff00" fill-rule="evenodd"></path></g></svg>