<svg id="svg" version="1.1" width="400" height="474.8768472906404" xmlns="http://www.w3.org/2000/svg" xmlns:xlink="http://www.w3.org/1999/xlink" style="display: block;"><g id="svgg"><path id="path0" d="M343.796 200.200 C 343.796 238.260,343.843 253.771,343.900 234.668 C 343.957 215.566,343.957 184.426,343.900 165.468 C 343.843 146.511,343.796 162.140,343.796 200.200 " stroke="none" fill="#000000" fill-rule="evenodd"></path><path id="path1" d="" stroke="none" fill="#550000" fill-rule="evenodd"></path><path id="path2" d="M58.596 200.200 C 58.596 238.260,58.643 253.771,58.700 234.668 C 58.757 215.566,58.757 184.426,58.700 165.468 C 58.643 146.511,58.596 162.140,58.596 200.200 " stroke="none" fill="#993300" fill-rule="evenodd"></path><path id="path3" d="M343.396 200.200 C 343.396 238.260,343.443 253.771,343.500 234.668 C 343.557 215.566,343.557 184.426,343.500 165.468 C 343.443 146.511,343.396 162.140,343.396 200.200 " stroke="none" fill="#b62400" fill-rule="evenodd"></path><path id="path4" d="M342.497 200.076 C 342.444 238.068,342.535 269.236,342.700 269.338 C 342.971 269.506,342.970 222.433,342.697 156.000 C 342.640 142.250,342.550 162.084,342.497 200.076 M106.625 309.228 C 107.457 310.146,107.600 310.179,107.600 309.447 C 107.600 309.142,107.223 308.795,106.763 308.674 C 105.960 308.464,105.955 308.487,106.625 309.228 " stroke="none" fill="#d14600" fill-rule="evenodd"></path><path id="path5" d="M218.202 45.602 C 218.602 46.044,219.015 46.318,219.121 46.212 C 219.390 45.943,218.392 44.800,217.889 44.800 C 217.662 44.800,217.803 45.161,218.202 45.602 M173.829 51.029 C 173.483 51.374,173.200 51.852,173.200 52.090 C 173.200 52.328,173.560 52.107,174.000 51.600 C 175.147 50.278,175.016 49.841,173.829 51.029 M159.592 59.410 C 158.819 60.341,159.371 60.517,160.198 59.602 C 160.597 59.161,160.738 58.800,160.511 58.800 C 160.284 58.800,159.870 59.074,159.592 59.410 M241.900 59.533 C 242.698 60.369,243.009 60.321,242.662 59.417 C 242.532 59.078,242.149 58.800,241.813 58.800 C 241.294 58.800,241.308 58.913,241.900 59.533 M255.600 67.400 C 255.874 67.730,256.250 68.000,256.436 68.000 C 256.623 68.000,256.671 67.730,256.545 67.400 C 256.418 67.070,256.042 66.800,255.708 66.800 C 255.215 66.800,255.195 66.912,255.600 67.400 M268.800 75.400 C 268.800 75.730,269.092 76.000,269.449 76.000 C 269.980 76.000,270.008 75.891,269.600 75.400 C 269.326 75.070,269.034 74.800,268.951 74.800 C 268.868 74.800,268.800 75.070,268.800 75.400 M122.080 80.880 C 121.315 81.645,121.524 82.054,122.400 81.507 C 123.208 81.002,123.469 80.400,122.880 80.400 C 122.704 80.400,122.344 80.616,122.080 80.880 M108.800 88.600 C 108.283 89.150,108.006 89.600,108.183 89.600 C 108.484 89.600,110.000 88.047,110.000 87.739 C 110.000 87.429,109.694 87.649,108.800 88.600 M306.400 96.241 C 306.400 96.522,307.478 97.600,307.759 97.600 C 308.189 97.600,307.524 96.456,306.969 96.243 C 306.656 96.123,306.400 96.122,306.400 96.241 M320.000 105.000 C 320.000 105.330,320.292 105.600,320.649 105.600 C 321.180 105.600,321.208 105.491,320.800 105.000 C 320.526 104.670,320.234 104.400,320.151 104.400 C 320.068 104.400,320.000 104.670,320.000 105.000 M70.792 110.610 C 70.019 111.541,70.571 111.717,71.398 110.802 C 71.797 110.361,71.938 110.000,71.711 110.000 C 71.484 110.000,71.070 110.274,70.792 110.610 M58.955 128.612 C 58.024 130.034,58.413 130.125,59.530 128.747 C 60.042 128.116,60.271 127.600,60.040 127.600 C 59.808 127.600,59.320 128.056,58.955 128.612 M342.234 127.878 C 342.473 128.055,342.883 128.560,343.145 129.000 C 343.595 129.756,343.615 129.746,343.511 128.804 C 343.440 128.166,343.113 127.763,342.600 127.683 C 342.125 127.608,341.976 127.687,342.234 127.878 M343.010 270.770 C 342.865 271.226,342.578 271.600,342.373 271.600 C 342.168 271.600,342.000 271.780,342.000 272.000 C 342.000 272.220,342.150 272.400,342.332 272.400 C 342.778 272.400,343.796 270.463,343.504 270.170 C 343.377 270.044,343.154 270.313,343.010 270.770 M78.400 292.689 C 78.400 293.192,79.543 294.190,79.812 293.921 C 79.918 293.815,79.644 293.402,79.202 293.002 C 78.761 292.603,78.400 292.462,78.400 292.689 M322.700 293.233 C 322.315 293.655,322.000 294.096,322.000 294.214 C 322.000 294.648,323.514 293.602,323.740 293.011 C 324.056 292.188,323.557 292.295,322.700 293.233 M92.000 300.900 C 92.000 301.259,92.192 301.671,92.427 301.816 C 93.113 302.240,93.180 301.861,92.567 301.023 C 92.093 300.374,92.000 300.354,92.000 300.900 M309.314 301.442 C 308.827 301.969,308.589 302.400,308.786 302.400 C 309.256 302.400,310.400 301.245,310.400 300.771 C 310.400 300.288,310.358 300.313,309.314 301.442 M102.246 306.975 C 102.478 307.580,103.600 308.167,103.600 307.684 C 103.600 307.523,103.247 307.172,102.815 306.902 C 102.168 306.498,102.068 306.511,102.246 306.975 M299.002 307.198 C 298.603 307.639,298.462 308.000,298.689 308.000 C 299.192 308.000,300.190 306.857,299.921 306.588 C 299.815 306.482,299.402 306.756,299.002 307.198 M285.200 315.000 C 284.922 315.335,284.879 315.600,285.102 315.600 C 285.322 315.600,285.726 315.330,286.000 315.000 C 286.278 314.665,286.321 314.400,286.098 314.400 C 285.878 314.400,285.474 314.670,285.200 315.000 M271.714 323.042 C 271.227 323.569,270.989 324.000,271.186 324.000 C 271.656 324.000,272.800 322.845,272.800 322.371 C 272.800 321.888,272.758 321.913,271.714 323.042 M247.449 337.055 L 246.699 338.085 247.749 337.396 C 248.327 337.018,248.800 336.549,248.800 336.354 C 248.800 335.706,248.209 336.013,247.449 337.055 M234.200 344.400 C 233.802 344.840,233.678 345.200,233.924 345.200 C 234.170 345.200,234.565 344.840,234.800 344.400 C 235.035 343.960,235.160 343.600,235.076 343.600 C 234.992 343.600,234.598 343.960,234.200 344.400 M210.519 358.090 C 209.612 359.262,209.556 359.737,210.423 358.911 C 210.936 358.422,211.256 357.923,211.135 357.801 C 211.013 357.680,210.736 357.810,210.519 358.090 M196.400 366.200 C 196.122 366.535,196.079 366.800,196.302 366.800 C 196.522 366.800,196.926 366.530,197.200 366.200 C 197.478 365.865,197.521 365.600,197.298 365.600 C 197.078 365.600,196.674 365.870,196.400 366.200 M182.893 374.000 C 182.616 374.443,182.567 374.800,182.783 374.800 C 182.997 374.800,183.365 374.440,183.600 374.000 C 183.835 373.560,183.885 373.200,183.710 373.200 C 183.535 373.200,183.168 373.560,182.893 374.000 M159.200 387.800 C 158.917 388.141,158.776 388.509,158.886 388.619 C 158.996 388.729,159.317 388.541,159.600 388.200 C 159.883 387.859,160.024 387.491,159.914 387.381 C 159.804 387.271,159.483 387.459,159.200 387.800 M145.200 395.800 C 144.922 396.135,144.879 396.400,145.102 396.400 C 145.322 396.400,145.726 396.130,146.000 395.800 C 146.278 395.465,146.321 395.200,146.098 395.200 C 145.878 395.200,145.474 395.470,145.200 395.800 M142.432 397.313 C 142.414 397.705,141.995 398.189,141.500 398.388 C 140.891 398.632,140.810 398.757,141.251 398.775 C 142.074 398.807,142.941 397.790,142.669 397.113 C 142.542 396.796,142.451 396.872,142.432 397.313 " stroke="none" fill="#ff0000" fill-rule="evenodd"></path><path id="path6" d="M342.086 128.933 C 342.129 129.447,342.397 129.867,342.682 129.867 C 343.256 129.867,343.320 129.578,342.957 128.633 C 342.589 127.673,341.999 127.876,342.086 128.933 M68.562 287.100 C 69.475 288.179,70.012 288.255,69.968 287.300 C 69.948 286.843,69.864 286.782,69.727 287.124 C 69.565 287.529,69.321 287.484,68.659 286.924 L 67.800 286.200 68.562 287.100 M333.204 286.996 C 332.932 287.323,332.522 287.475,332.293 287.334 C 332.043 287.179,331.997 287.272,332.178 287.564 C 332.404 287.930,332.695 287.871,333.340 287.330 C 333.813 286.933,334.275 286.562,334.367 286.504 C 334.458 286.447,334.345 286.400,334.116 286.400 C 333.886 286.400,333.476 286.668,333.204 286.996 M322.000 293.033 C 322.000 293.382,322.214 293.595,322.475 293.508 C 323.217 293.261,323.340 292.400,322.633 292.400 C 322.285 292.400,322.000 292.685,322.000 293.033 M308.562 301.400 C 307.969 301.950,307.656 302.400,307.866 302.400 C 308.258 302.400,310.000 300.918,310.000 300.584 C 310.000 300.207,309.612 300.427,308.562 301.400 M220.201 351.934 C 220.311 352.045,220.088 352.510,219.704 352.968 C 219.195 353.574,219.304 353.537,220.103 352.830 C 221.387 351.695,221.370 351.733,220.600 351.733 C 220.270 351.733,220.090 351.824,220.201 351.934 M168.576 381.639 C 168.230 382.199,169.102 382.400,169.548 381.862 C 169.880 381.463,169.838 381.333,169.376 381.333 C 169.040 381.333,168.680 381.471,168.576 381.639 M129.544 393.659 C 129.727 394.154,130.089 394.600,130.348 394.649 C 130.608 394.699,130.636 394.649,130.410 394.537 C 130.185 394.425,130.000 394.089,130.000 393.790 C 130.000 393.492,129.822 393.137,129.605 393.003 C 129.355 392.849,129.332 393.088,129.544 393.659 M141.517 397.070 C 141.939 397.240,141.939 397.399,141.517 397.939 C 141.055 398.530,141.075 398.542,141.700 398.051 C 142.085 397.749,142.400 397.344,142.400 397.151 C 142.400 396.958,142.085 396.814,141.700 396.832 C 141.255 396.852,141.188 396.939,141.517 397.070 " stroke="none" fill="#ff3300" fill-rule="evenodd"></path><path id="path7" d="M187.544 43.166 C 187.025 43.587,186.709 44.041,186.843 44.175 C 187.266 44.600,188.313 43.975,188.523 43.172 C 188.773 42.217,188.715 42.216,187.544 43.166 M217.438 45.400 C 218.805 46.667,219.035 46.671,218.119 45.413 C 217.723 44.869,217.166 44.419,216.879 44.413 C 216.593 44.406,216.844 44.850,217.438 45.400 M180.538 47.017 C 180.166 47.988,180.602 48.082,181.398 47.202 C 182.060 46.470,182.065 46.400,181.449 46.400 C 181.078 46.400,180.668 46.678,180.538 47.017 M227.812 51.181 C 227.467 51.739,227.907 52.400,228.624 52.400 C 229.358 52.400,229.364 51.834,228.636 51.230 C 228.250 50.909,227.989 50.894,227.812 51.181 M241.333 59.722 C 241.333 60.022,241.578 60.267,241.878 60.267 C 242.485 60.267,242.379 59.526,241.742 59.314 C 241.517 59.239,241.333 59.423,241.333 59.722 M153.934 62.269 C 153.568 62.366,153.178 62.681,153.067 62.970 C 152.907 63.386,153.065 63.402,153.830 63.047 C 154.360 62.801,154.795 62.465,154.797 62.300 C 154.799 62.135,154.755 62.021,154.700 62.046 C 154.645 62.072,154.300 62.172,153.934 62.269 M146.219 67.513 C 145.730 68.193,145.669 68.414,146.055 68.103 C 146.395 67.830,146.792 67.725,146.937 67.870 C 147.082 68.015,147.200 67.743,147.200 67.267 C 147.200 66.181,147.170 66.189,146.219 67.513 M262.284 71.200 C 262.399 71.640,262.635 72.000,262.809 72.000 C 262.983 72.000,263.031 71.640,262.916 71.200 C 262.801 70.760,262.565 70.400,262.391 70.400 C 262.217 70.400,262.169 70.760,262.284 71.200 M136.482 72.627 C 135.570 73.267,135.620 74.000,136.577 74.000 C 136.868 74.000,137.193 73.550,137.298 73.000 C 137.403 72.450,137.464 72.000,137.434 72.000 C 137.403 72.000,136.975 72.282,136.482 72.627 M264.806 72.518 C 264.802 72.981,265.048 73.193,265.500 73.118 C 265.891 73.052,266.156 73.221,266.100 73.500 C 266.045 73.775,266.180 74.000,266.400 74.000 C 266.620 74.000,266.800 73.842,266.800 73.649 C 266.800 73.188,265.602 72.197,265.594 72.651 C 265.591 72.843,265.413 72.730,265.200 72.400 C 264.871 71.890,264.811 71.908,264.806 72.518 M115.829 84.629 C 115.483 84.974,115.200 85.454,115.200 85.695 C 115.200 85.936,115.247 86.058,115.304 85.967 C 115.362 85.875,115.750 85.395,116.166 84.900 C 117.028 83.876,116.780 83.677,115.829 84.629 M102.500 92.034 C 102.005 92.221,101.600 92.460,101.600 92.564 C 101.600 92.801,103.231 92.502,103.521 92.213 C 103.938 91.796,103.385 91.699,102.500 92.034 M302.509 94.400 C 303.722 95.354,304.055 95.409,303.746 94.602 C 303.619 94.274,303.367 94.096,303.186 94.209 C 303.004 94.321,302.742 94.230,302.604 94.007 C 302.466 93.783,302.159 93.600,301.922 93.600 C 301.686 93.600,301.950 93.960,302.509 94.400 M312.617 99.972 C 312.503 100.157,312.767 100.403,313.204 100.517 C 313.642 100.631,314.000 100.581,314.000 100.405 C 314.000 99.935,312.861 99.578,312.617 99.972 M85.649 101.961 C 85.346 102.153,85.220 102.509,85.370 102.751 C 85.546 103.037,85.401 103.098,84.955 102.927 C 84.489 102.749,84.362 102.815,84.558 103.132 C 85.055 103.936,85.898 103.645,86.098 102.600 C 86.203 102.050,86.269 101.603,86.245 101.606 C 86.220 101.609,85.952 101.769,85.649 101.961 M316.800 102.351 C 316.800 102.598,316.991 102.800,317.224 102.800 C 317.457 102.800,317.536 102.980,317.400 103.200 C 317.264 103.420,317.343 103.600,317.576 103.600 C 318.188 103.600,318.097 102.978,317.400 102.400 C 316.985 102.056,316.800 102.041,316.800 102.351 M326.640 107.935 C 326.513 108.141,326.661 108.518,326.969 108.774 C 327.300 109.049,327.623 109.086,327.760 108.865 C 327.887 108.659,327.739 108.282,327.431 108.026 C 327.100 107.751,326.777 107.714,326.640 107.935 M71.481 110.639 C 71.086 111.168,70.908 111.600,71.085 111.600 C 71.434 111.600,72.538 110.001,72.328 109.800 C 72.257 109.733,71.877 110.111,71.481 110.639 M330.370 110.547 C 331.452 111.723,331.666 111.838,331.380 111.091 C 331.272 110.812,330.783 110.338,330.292 110.039 C 329.441 109.520,329.445 109.544,330.370 110.547 M339.200 119.576 C 339.200 119.809,338.938 120.000,338.618 120.000 C 338.298 120.000,337.586 120.450,337.036 121.000 C 336.486 121.550,335.767 122.000,335.438 122.000 C 335.109 122.000,334.696 122.235,334.520 122.523 C 334.344 122.811,333.331 123.486,332.268 124.023 C 327.468 126.450,326.800 126.839,326.800 127.208 C 326.800 127.423,326.555 127.600,326.256 127.600 C 325.957 127.600,325.049 128.050,324.238 128.600 C 323.428 129.150,322.547 129.600,322.282 129.600 C 322.017 129.601,321.277 130.051,320.638 130.600 C 319.999 131.150,319.258 131.600,318.992 131.600 C 318.726 131.600,318.014 131.988,317.411 132.463 C 316.275 133.356,314.029 134.654,311.600 135.818 C 310.830 136.188,310.110 136.629,310.000 136.800 C 309.890 136.971,309.125 137.391,308.300 137.735 C 307.475 138.078,306.800 138.529,306.800 138.736 C 306.800 138.944,306.325 139.232,305.745 139.378 C 305.165 139.524,304.113 140.083,303.408 140.621 C 302.702 141.160,301.871 141.600,301.562 141.600 C 301.253 141.601,300.483 142.046,299.851 142.589 C 299.219 143.133,298.333 143.694,297.882 143.838 C 297.431 143.981,296.699 144.436,296.255 144.849 C 295.812 145.262,295.157 145.600,294.800 145.600 C 294.443 145.600,293.772 145.953,293.310 146.384 C 292.847 146.815,292.016 147.281,291.464 147.420 C 290.911 147.558,290.148 148.016,289.767 148.436 C 289.387 148.856,288.865 149.200,288.607 149.200 C 288.182 149.200,285.839 150.583,283.192 152.397 C 282.638 152.777,281.738 153.224,281.192 153.391 C 280.647 153.558,279.907 153.951,279.549 154.265 C 279.191 154.579,278.159 155.232,277.256 155.718 C 273.794 157.577,269.391 160.155,269.199 160.435 C 269.088 160.596,268.247 161.028,267.330 161.395 C 266.412 161.762,265.563 162.318,265.443 162.631 C 265.323 162.944,264.873 163.200,264.443 163.200 C 264.013 163.200,263.153 163.609,262.531 164.109 C 261.909 164.609,260.695 165.374,259.833 165.809 C 256.366 167.560,255.600 168.022,255.600 168.360 C 255.600 168.554,255.105 168.834,254.500 168.982 C 253.895 169.130,252.770 169.658,252.000 170.156 C 251.230 170.654,249.880 171.525,249.000 172.091 C 248.120 172.657,246.995 173.240,246.500 173.387 C 246.005 173.534,245.600 173.808,245.600 173.996 C 245.600 174.184,244.999 174.536,244.265 174.778 C 243.531 175.021,242.586 175.530,242.165 175.909 C 241.744 176.289,240.770 176.924,240.000 177.320 C 239.230 177.716,237.880 178.480,237.000 179.019 C 236.120 179.557,234.590 180.383,233.600 180.854 C 232.610 181.325,231.656 181.956,231.480 182.255 C 231.304 182.555,230.823 182.800,230.411 182.800 C 229.999 182.800,229.127 183.250,228.473 183.800 C 227.819 184.350,227.104 184.800,226.882 184.800 C 226.661 184.800,225.568 185.414,224.453 186.164 C 223.338 186.915,221.430 188.016,220.213 188.611 C 218.996 189.207,218.000 189.833,218.000 190.004 C 218.000 190.174,217.517 190.434,216.927 190.583 C 216.337 190.731,215.333 191.290,214.696 191.826 C 214.060 192.362,213.296 192.800,213.000 192.800 C 212.704 192.800,211.953 193.209,211.331 193.709 C 210.709 194.209,209.570 194.938,208.800 195.329 C 205.791 196.858,204.973 197.329,204.271 197.942 C 202.427 199.548,198.786 199.551,196.931 197.948 C 196.125 197.252,190.135 193.816,185.250 191.248 C 184.672 190.945,183.840 190.380,183.400 189.994 C 182.960 189.608,182.150 189.160,181.600 188.999 C 181.050 188.837,180.330 188.493,180.000 188.232 C 179.670 187.972,178.230 187.082,176.800 186.254 C 175.370 185.425,173.930 184.575,173.600 184.364 C 173.270 184.153,172.259 183.627,171.353 183.195 C 170.447 182.763,169.480 182.137,169.204 181.805 C 168.928 181.472,168.419 181.200,168.073 181.200 C 167.726 181.200,166.803 180.771,166.022 180.247 C 165.240 179.723,163.270 178.508,161.645 177.547 C 160.020 176.586,158.040 175.403,157.245 174.917 C 156.450 174.431,155.080 173.658,154.200 173.199 C 151.672 171.880,149.418 170.618,149.200 170.399 C 149.090 170.289,148.460 169.937,147.800 169.618 C 147.140 169.298,146.240 168.738,145.800 168.374 C 145.360 168.010,143.657 167.012,142.016 166.156 C 140.376 165.300,138.783 164.370,138.477 164.089 C 138.171 163.808,137.353 163.305,136.660 162.973 C 135.967 162.640,134.770 162.003,134.000 161.556 C 133.230 161.109,131.753 160.261,130.718 159.671 C 129.682 159.082,127.284 157.700,125.389 156.600 C 119.078 152.938,118.211 152.447,116.600 151.626 C 115.720 151.177,113.857 150.088,112.460 149.205 C 111.063 148.322,109.782 147.600,109.614 147.600 C 109.446 147.600,108.828 147.223,108.242 146.762 C 107.656 146.301,105.967 145.288,104.488 144.512 C 103.010 143.736,101.530 142.891,101.200 142.634 C 100.870 142.378,99.970 141.857,99.200 141.477 C 98.430 141.097,96.990 140.251,96.000 139.597 C 95.010 138.943,93.480 138.038,92.600 137.586 C 88.398 135.424,87.786 135.086,87.600 134.818 C 87.490 134.660,86.140 133.841,84.600 132.997 C 83.060 132.153,81.350 131.157,80.800 130.784 C 80.250 130.410,79.350 129.970,78.800 129.805 C 78.250 129.640,77.484 129.228,77.097 128.888 C 76.327 128.212,76.401 128.256,71.331 125.436 C 69.389 124.356,67.384 123.151,66.875 122.759 C 66.366 122.367,65.286 121.835,64.475 121.579 C 63.664 121.322,62.761 120.817,62.469 120.456 C 61.988 119.862,61.950 119.874,62.069 120.591 C 62.147 121.062,61.973 121.386,61.640 121.391 C 60.834 121.404,60.460 122.653,60.428 125.438 C 60.406 127.328,60.224 128.036,59.616 128.586 C 59.185 128.976,58.846 129.409,58.863 129.548 C 58.881 129.686,58.872 129.980,58.845 130.200 C 58.399 133.795,58.703 269.569,59.157 269.395 C 59.632 269.213,59.632 269.282,59.157 269.868 C 58.788 270.322,58.769 270.452,59.100 270.253 C 59.396 270.075,59.611 270.166,59.628 270.476 C 59.644 270.764,59.811 270.640,60.000 270.200 C 60.232 269.660,60.369 270.535,60.422 272.900 C 60.521 277.355,60.448 277.013,61.509 278.001 C 62.009 278.467,62.306 279.028,62.170 279.249 C 62.033 279.470,62.237 279.999,62.623 280.425 C 63.171 281.031,63.202 281.207,62.762 281.232 C 62.453 281.249,62.704 281.447,63.320 281.672 C 63.936 281.896,64.375 282.276,64.295 282.516 C 64.124 283.027,66.859 285.947,68.128 286.610 C 68.608 286.860,68.952 287.321,68.894 287.633 C 68.830 287.977,69.046 287.886,69.444 287.400 C 70.092 286.609,70.098 286.610,69.887 287.501 C 69.700 288.292,69.866 288.433,71.246 288.654 C 72.110 288.792,72.933 289.092,73.074 289.321 C 73.231 289.573,73.078 289.639,72.686 289.488 C 72.262 289.326,72.108 289.416,72.236 289.750 C 72.344 290.031,72.740 290.259,73.116 290.259 C 75.154 290.255,76.426 290.435,76.259 290.704 C 75.968 291.175,76.911 292.184,77.784 292.337 C 78.776 292.510,80.456 293.811,80.120 294.147 C 79.981 294.286,80.662 294.413,81.633 294.428 C 82.988 294.450,83.213 294.536,82.600 294.800 C 81.916 295.094,81.901 295.148,82.500 295.172 C 82.885 295.187,83.213 295.515,83.228 295.900 C 83.253 296.512,83.294 296.503,83.558 295.829 C 83.828 295.140,83.887 295.129,84.117 295.729 C 84.265 296.112,84.809 296.400,85.387 296.400 C 86.021 296.400,86.400 296.625,86.400 297.000 C 86.400 297.330,86.591 297.600,86.824 297.600 C 87.057 297.600,87.129 297.792,86.983 298.027 C 86.838 298.261,86.963 298.420,87.260 298.379 C 89.051 298.134,89.923 298.440,90.164 299.400 C 90.363 300.192,90.668 300.400,91.631 300.400 C 92.340 300.400,92.744 300.567,92.600 300.800 C 92.464 301.020,92.644 301.200,93.000 301.200 C 93.356 301.200,93.548 301.361,93.426 301.558 C 93.155 301.996,94.124 302.400,95.443 302.400 C 96.117 302.400,96.538 302.710,96.800 303.400 C 97.090 304.162,97.468 304.400,98.390 304.400 C 99.056 304.400,99.623 304.580,99.650 304.800 C 99.678 305.020,99.723 305.405,99.750 305.655 C 99.778 305.906,100.322 306.166,100.959 306.234 C 101.596 306.302,102.307 306.547,102.539 306.779 C 103.074 307.314,103.728 307.330,103.400 306.800 C 103.264 306.580,103.258 306.400,103.386 306.400 C 103.515 306.400,103.791 306.850,104.000 307.400 C 104.209 307.950,104.655 308.423,104.990 308.450 C 105.326 308.478,105.780 308.545,106.000 308.600 C 106.220 308.655,106.670 308.723,107.000 308.750 C 107.330 308.778,107.600 309.135,107.600 309.545 C 107.600 310.066,107.872 310.276,108.500 310.243 C 109.516 310.189,110.874 311.157,110.539 311.698 C 110.419 311.894,110.563 312.020,110.860 311.979 C 112.389 311.770,113.271 312.094,113.908 313.100 C 114.579 314.161,115.023 314.406,116.469 314.515 C 116.840 314.543,117.136 314.664,117.125 314.783 C 117.063 315.461,117.239 315.989,117.500 315.915 C 118.609 315.603,120.400 316.450,120.406 317.290 C 120.411 318.042,120.486 318.096,120.837 317.600 C 121.156 317.148,121.311 317.124,121.464 317.500 C 121.575 317.775,122.172 318.000,122.791 318.000 C 123.938 318.000,124.741 318.991,123.878 319.343 C 123.604 319.454,123.698 319.572,124.100 319.618 C 124.485 319.663,124.980 319.745,125.200 319.800 C 125.420 319.855,126.050 319.923,126.600 319.950 C 127.304 319.985,127.600 320.228,127.600 320.773 C 127.600 321.198,127.960 321.660,128.400 321.800 C 129.192 322.051,129.200 322.405,129.200 357.427 C 129.200 380.742,129.336 392.800,129.600 392.800 C 129.820 392.800,130.000 393.160,130.000 393.600 C 130.000 394.040,130.170 394.400,130.378 394.400 C 130.586 394.400,130.993 394.895,131.282 395.500 C 131.658 396.284,132.209 396.671,133.204 396.847 C 133.972 396.983,134.240 397.133,133.800 397.179 C 133.343 397.227,133.216 397.350,133.502 397.466 C 133.779 397.577,133.886 397.861,133.741 398.096 C 133.581 398.354,133.666 398.406,133.956 398.227 C 134.219 398.064,134.652 398.112,134.918 398.332 C 135.409 398.740,139.940 398.711,141.400 398.291 C 141.840 398.165,142.290 398.042,142.400 398.018 C 142.510 397.994,142.251 397.710,141.824 397.387 C 141.106 396.844,141.191 396.800,142.947 396.800 C 144.112 396.800,144.752 396.645,144.600 396.400 C 144.464 396.180,144.554 396.000,144.800 396.000 C 145.046 396.000,145.119 395.792,144.962 395.538 C 144.802 395.280,144.851 395.184,145.072 395.321 C 145.604 395.650,148.856 394.014,148.575 393.559 C 148.453 393.362,148.498 393.186,148.676 393.169 C 148.854 393.153,149.360 393.056,149.800 392.955 C 150.240 392.854,151.005 392.733,151.500 392.686 C 152.057 392.633,152.400 392.334,152.400 391.900 C 152.400 391.297,152.895 390.980,153.339 391.300 C 153.415 391.355,153.767 391.160,154.121 390.866 C 154.475 390.572,154.908 390.418,155.082 390.524 C 155.257 390.629,155.620 390.478,155.888 390.187 C 156.273 389.771,156.273 389.617,155.888 389.461 C 155.620 389.352,155.805 389.226,156.300 389.182 C 156.795 389.137,157.339 389.078,157.509 389.050 C 157.680 389.023,158.265 388.583,158.809 388.073 C 159.354 387.562,160.295 387.045,160.900 386.923 C 161.896 386.721,162.184 386.364,162.047 385.500 C 162.021 385.335,162.541 385.200,163.203 385.200 C 163.987 385.200,164.708 384.852,165.275 384.200 C 165.753 383.650,166.517 383.197,166.972 383.194 C 168.089 383.186,168.869 382.645,168.721 381.982 C 168.655 381.682,168.780 381.418,169.000 381.396 C 170.852 381.207,172.000 380.661,172.000 379.968 C 172.000 379.341,172.288 379.200,173.576 379.200 C 174.443 379.200,175.266 379.017,175.404 378.793 C 175.542 378.570,175.803 378.478,175.982 378.589 C 176.162 378.700,176.285 378.478,176.255 378.096 C 176.217 377.617,176.543 377.361,177.300 377.273 C 177.915 377.203,178.400 376.900,178.400 376.588 C 178.400 375.829,179.676 375.200,181.216 375.200 C 182.199 375.200,182.432 375.060,182.247 374.579 C 182.110 374.221,182.178 374.062,182.407 374.205 C 182.626 374.340,182.907 374.187,183.031 373.865 C 183.154 373.542,183.873 373.163,184.628 373.021 C 185.635 372.832,186.000 372.556,186.000 371.982 C 186.000 371.271,187.299 370.900,188.900 371.153 C 189.065 371.179,189.155 370.975,189.100 370.700 C 189.045 370.425,189.225 370.245,189.500 370.300 C 189.775 370.355,189.955 370.198,189.900 369.952 C 189.845 369.706,190.491 369.301,191.336 369.052 C 192.265 368.779,192.739 368.447,192.536 368.213 C 192.351 368.000,192.550 368.090,192.977 368.413 C 193.404 368.736,193.626 368.788,193.471 368.529 C 193.207 368.088,194.581 367.331,195.300 367.521 C 195.465 367.564,195.600 367.330,195.600 367.000 C 195.600 366.670,195.791 366.400,196.024 366.400 C 196.257 366.400,196.333 366.216,196.194 365.990 C 196.055 365.765,196.089 365.606,196.270 365.637 C 197.299 365.816,198.155 365.481,199.110 364.526 C 199.700 363.936,200.457 363.430,200.792 363.402 C 201.126 363.374,201.790 363.138,202.268 362.879 C 202.944 362.511,203.180 362.516,203.336 362.903 C 203.447 363.176,203.551 363.006,203.568 362.524 C 203.607 361.446,203.928 361.235,205.718 361.103 C 206.490 361.046,207.039 360.865,206.937 360.700 C 206.836 360.535,206.954 360.400,207.200 360.400 C 207.446 360.400,207.536 360.220,207.400 360.000 C 207.264 359.780,207.388 359.579,207.676 359.554 C 208.889 359.447,209.084 359.369,209.708 358.748 C 210.068 358.389,210.235 357.969,210.081 357.814 C 209.926 357.660,209.980 357.583,210.200 357.643 C 211.140 357.900,213.180 357.092,213.409 356.372 C 213.626 355.689,214.310 355.443,215.868 355.487 C 216.136 355.495,216.232 355.221,216.093 354.850 C 215.887 354.299,215.948 354.279,216.489 354.719 C 216.919 355.069,217.214 355.101,217.388 354.819 C 217.531 354.589,217.446 354.400,217.200 354.400 C 216.954 354.400,216.864 354.220,217.000 354.000 C 217.136 353.780,217.676 353.600,218.200 353.600 C 218.724 353.600,219.266 353.417,219.404 353.193 C 219.542 352.970,219.802 352.878,219.982 352.989 C 220.162 353.100,220.555 352.878,220.855 352.496 C 221.336 351.882,221.325 351.858,220.767 352.294 C 220.261 352.687,220.133 352.683,220.133 352.274 C 220.133 351.989,220.672 351.719,221.340 351.668 C 222.707 351.564,223.600 350.964,223.600 350.151 C 223.600 349.775,224.108 349.600,225.200 349.600 C 226.080 349.600,226.800 349.409,226.800 349.176 C 226.800 348.943,226.984 348.867,227.210 349.006 C 227.435 349.145,227.594 349.111,227.563 348.930 C 227.394 347.958,227.715 347.600,228.757 347.600 C 229.892 347.600,230.650 346.728,230.178 345.964 C 229.987 345.655,232.265 345.371,233.349 345.569 C 233.541 345.604,233.588 345.346,233.454 344.996 C 233.319 344.645,233.367 344.456,233.559 344.575 C 233.752 344.694,234.132 344.523,234.404 344.196 C 234.676 343.868,235.226 343.600,235.626 343.600 C 236.027 343.600,236.600 343.250,236.900 342.822 C 237.199 342.394,237.937 341.954,238.539 341.845 C 239.141 341.736,239.947 341.260,240.331 340.786 C 240.714 340.313,241.499 339.898,242.075 339.863 C 242.652 339.828,243.031 339.650,242.918 339.467 C 242.805 339.285,243.137 339.195,243.656 339.267 C 244.411 339.374,244.572 339.240,244.462 338.600 C 244.386 338.160,244.459 337.933,244.625 338.097 C 244.791 338.260,245.172 338.189,245.473 337.940 C 245.773 337.690,246.127 337.594,246.258 337.725 C 246.390 337.857,247.029 337.432,247.679 336.782 C 248.770 335.691,249.450 335.413,250.665 335.562 C 250.943 335.596,251.045 335.293,250.918 334.810 C 250.731 334.092,251.808 333.626,252.558 334.100 C 252.645 334.155,253.126 333.840,253.627 333.400 C 254.128 332.960,254.389 332.853,254.207 333.162 C 253.984 333.541,254.027 333.631,254.338 333.438 C 254.592 333.281,254.800 332.916,254.800 332.626 C 254.800 332.170,256.398 331.547,257.872 331.428 C 258.131 331.407,258.491 331.228,258.672 331.031 C 258.857 330.828,258.795 330.789,258.528 330.942 C 258.268 331.091,257.942 331.030,257.804 330.807 C 257.666 330.583,257.732 330.400,257.950 330.400 C 258.169 330.400,258.855 330.191,259.474 329.935 C 260.093 329.680,260.744 329.503,260.919 329.542 C 261.094 329.581,261.184 329.300,261.119 328.917 C 261.029 328.391,261.410 328.133,262.690 327.856 C 263.777 327.621,264.465 327.224,264.617 326.745 C 264.748 326.334,265.226 326.000,265.683 326.000 C 266.139 326.000,266.770 325.685,267.086 325.300 C 267.401 324.915,267.553 324.813,267.423 325.072 C 267.293 325.332,267.357 325.650,267.565 325.778 C 267.773 325.907,268.001 325.631,268.071 325.166 C 268.188 324.400,270.866 322.999,271.328 323.462 C 271.415 323.548,271.737 323.300,272.043 322.910 C 272.561 322.249,272.545 322.242,271.800 322.800 C 271.058 323.356,271.040 323.349,271.549 322.700 C 271.851 322.315,272.530 322.000,273.058 322.000 C 273.693 322.000,274.171 321.662,274.473 321.000 C 274.794 320.295,275.245 320.000,276.003 320.000 C 277.118 320.000,278.981 318.715,278.526 318.259 C 278.383 318.117,278.755 318.000,279.352 318.000 C 279.960 318.000,280.853 317.583,281.385 317.051 C 281.996 316.441,282.703 316.143,283.369 316.216 C 283.938 316.279,284.314 316.185,284.204 316.007 C 284.094 315.829,284.285 315.576,284.628 315.445 C 284.976 315.311,285.124 315.001,284.964 314.741 C 284.792 314.463,284.850 314.384,285.111 314.545 C 285.349 314.692,285.660 314.627,285.800 314.400 C 285.940 314.173,286.221 314.090,286.424 314.215 C 286.627 314.340,287.269 313.967,287.851 313.386 C 288.432 312.804,289.443 312.260,290.096 312.178 C 290.749 312.095,291.706 311.571,292.222 311.014 C 292.739 310.456,293.440 310.000,293.781 310.000 C 294.121 310.000,294.400 309.741,294.400 309.424 C 294.400 309.107,294.608 308.719,294.862 308.562 C 295.148 308.385,295.215 308.452,295.038 308.738 C 294.622 309.412,295.810 309.311,296.380 308.624 C 296.643 308.307,297.124 308.149,297.448 308.274 C 298.233 308.575,299.322 307.141,298.666 306.672 C 298.352 306.447,298.395 306.396,298.800 306.515 C 299.130 306.611,299.872 306.452,300.449 306.161 C 301.026 305.870,301.611 305.745,301.749 305.883 C 301.980 306.114,302.159 305.406,302.047 304.700 C 302.021 304.535,302.339 304.400,302.754 304.400 C 303.790 304.400,305.872 303.488,305.951 303.000 C 305.986 302.780,306.479 302.476,307.046 302.324 C 307.612 302.173,308.302 301.740,308.577 301.363 C 308.898 300.924,309.280 300.795,309.639 301.003 C 309.948 301.182,310.061 301.175,309.890 300.988 C 309.720 300.800,310.170 300.456,310.890 300.223 C 311.611 299.991,312.200 299.533,312.200 299.207 C 312.200 298.828,312.758 298.523,313.742 298.363 C 315.104 298.142,315.733 297.699,316.093 296.707 C 316.152 296.546,316.866 296.366,317.681 296.307 C 318.836 296.224,319.212 296.002,319.389 295.300 C 319.547 294.672,319.913 294.400,320.600 294.400 C 321.317 294.400,321.653 294.128,321.836 293.400 C 322.067 292.477,323.328 292.086,325.260 292.339 C 325.403 292.358,325.631 291.929,325.768 291.387 C 325.960 290.621,326.275 290.400,327.179 290.400 C 327.819 290.400,328.626 290.117,328.971 289.771 C 329.317 289.426,329.605 289.291,329.612 289.471 C 329.619 289.652,329.808 289.485,330.032 289.100 C 330.256 288.715,330.900 288.400,331.463 288.400 C 332.247 288.400,332.427 288.247,332.234 287.743 C 332.019 287.185,332.076 287.165,332.613 287.611 C 332.961 287.899,333.214 287.970,333.175 287.768 C 333.004 286.870,333.251 286.399,333.900 286.387 C 334.771 286.371,336.000 285.469,336.000 284.846 C 336.000 284.590,336.451 284.209,337.003 283.999 C 337.555 283.789,337.983 283.479,337.956 283.309 C 337.812 282.426,338.069 281.977,338.659 282.082 C 339.082 282.158,339.369 281.877,339.459 281.300 C 339.537 280.805,339.667 279.995,339.748 279.500 C 339.830 279.005,340.113 278.649,340.378 278.710 C 340.653 278.773,340.736 278.621,340.572 278.355 C 340.408 278.090,340.697 277.555,341.242 277.110 C 341.769 276.681,341.930 276.463,341.600 276.624 C 341.113 276.862,341.094 276.816,341.500 276.379 C 341.775 276.082,342.000 274.963,342.000 273.891 C 342.000 272.687,342.231 271.712,342.604 271.339 C 342.936 271.007,343.105 270.570,342.980 270.368 C 342.855 270.165,342.988 269.995,343.276 269.988 C 343.600 269.980,343.532 269.820,343.100 269.568 C 342.093 268.981,342.002 131.946,343.008 130.511 C 343.567 129.712,343.557 129.654,342.880 129.785 C 342.106 129.934,342.001 129.358,341.856 124.200 C 341.797 122.092,341.337 121.173,340.502 121.493 C 340.180 121.616,340.000 121.320,340.000 120.666 C 340.000 120.106,339.820 119.536,339.600 119.400 C 339.380 119.264,339.200 119.343,339.200 119.576 M342.996 200.200 C 342.996 238.260,343.043 253.771,343.100 234.668 C 343.157 215.566,343.157 184.426,343.100 165.468 C 343.043 146.511,342.996 162.140,342.996 200.200 " stroke="none" fill="#ef6c00" fill-rule="evenodd"></path><path id="path8" d="M191.970 41.432 C 191.411 42.027,190.611 42.400,189.893 42.400 C 189.059 42.400,188.665 42.630,188.515 43.204 C 188.319 43.954,187.822 44.189,185.800 44.487 C 185.360 44.552,184.822 45.009,184.605 45.502 C 184.342 46.100,183.864 46.400,183.175 46.400 C 182.588 46.400,181.733 46.833,181.200 47.400 C 180.683 47.950,179.953 48.400,179.576 48.400 C 178.677 48.400,176.741 49.414,176.798 49.855 C 176.822 50.045,176.518 50.264,176.121 50.343 C 175.051 50.555,174.336 51.256,174.569 51.864 C 174.724 52.268,174.284 52.400,172.787 52.400 C 170.847 52.400,170.599 52.584,170.770 53.900 C 170.809 54.202,170.313 54.424,169.518 54.461 C 168.793 54.494,167.930 54.539,167.600 54.561 C 167.270 54.582,166.942 55.005,166.872 55.500 C 166.780 56.151,166.476 56.400,165.772 56.400 C 165.237 56.400,164.800 56.588,164.800 56.818 C 164.800 57.047,164.485 57.182,164.100 57.118 C 163.633 57.039,163.437 57.224,163.512 57.674 C 163.594 58.172,163.281 58.380,162.312 58.474 C 161.303 58.571,160.970 58.808,160.872 59.500 C 160.769 60.229,160.489 60.400,159.405 60.400 C 157.669 60.400,156.800 60.748,156.800 61.443 C 156.800 61.770,156.388 62.000,155.800 62.000 C 155.250 62.000,154.800 62.180,154.800 62.400 C 154.800 62.620,154.552 62.800,154.249 62.800 C 153.946 62.800,153.492 63.048,153.240 63.352 C 152.988 63.655,152.234 64.013,151.565 64.147 C 150.835 64.293,150.454 64.564,150.614 64.822 C 150.775 65.084,150.589 65.204,150.140 65.127 C 149.733 65.057,149.441 65.212,149.490 65.470 C 149.540 65.729,149.045 66.058,148.390 66.202 C 147.574 66.381,147.200 66.705,147.200 67.232 C 147.200 67.654,146.975 68.018,146.700 68.040 C 146.425 68.061,145.696 68.124,145.080 68.179 C 144.464 68.234,143.689 68.666,143.358 69.139 C 143.025 69.613,142.324 70.000,141.796 70.000 C 141.268 70.000,140.405 70.432,139.877 70.959 C 139.349 71.487,138.576 71.984,138.159 72.063 C 137.741 72.143,137.344 72.602,137.275 73.082 C 137.173 73.798,136.847 73.979,135.475 74.078 C 134.188 74.172,133.709 74.408,133.405 75.100 C 133.057 75.893,131.988 76.262,130.679 76.040 C 130.137 75.948,129.133 77.169,129.398 77.597 C 129.545 77.835,129.135 78.000,128.397 78.000 C 126.751 78.000,125.569 78.654,125.858 79.406 C 126.029 79.853,125.777 80.000,124.843 80.000 C 124.159 80.000,123.578 80.180,123.550 80.400 C 123.522 80.620,123.478 81.025,123.450 81.300 C 123.420 81.603,122.653 81.848,121.500 81.922 C 119.689 82.038,119.410 82.267,119.570 83.500 C 119.626 83.929,117.572 84.264,116.270 84.037 C 116.089 84.006,116.028 84.122,116.135 84.295 C 116.524 84.925,115.296 85.980,114.064 86.074 C 113.369 86.127,112.800 86.382,112.800 86.642 C 112.800 86.901,112.080 87.401,111.200 87.753 C 110.320 88.105,109.600 88.665,109.600 88.997 C 109.600 89.329,109.375 89.601,109.100 89.602 C 107.791 89.608,105.600 90.495,105.600 91.019 C 105.600 91.340,105.229 91.600,104.771 91.600 C 104.316 91.600,103.671 91.872,103.339 92.204 C 103.007 92.536,102.589 92.717,102.410 92.606 C 102.230 92.495,101.981 92.674,101.854 93.002 C 101.728 93.331,101.295 93.600,100.893 93.600 C 100.490 93.600,99.944 93.816,99.680 94.080 C 99.416 94.344,99.200 94.427,99.200 94.264 C 99.200 94.102,98.949 94.201,98.642 94.484 C 98.335 94.768,98.166 95.135,98.266 95.300 C 98.365 95.465,98.090 95.600,97.653 95.600 C 97.216 95.600,96.504 96.050,96.071 96.600 C 95.511 97.313,94.898 97.600,93.937 97.600 C 92.930 97.600,92.490 97.824,92.195 98.488 C 91.945 99.051,91.290 99.479,90.410 99.656 C 89.645 99.810,88.732 100.291,88.380 100.725 C 88.029 101.159,87.395 101.580,86.971 101.661 C 86.537 101.744,86.144 102.200,86.072 102.704 C 85.976 103.376,85.676 103.601,84.872 103.605 C 83.015 103.615,82.000 104.053,82.000 104.847 C 82.000 105.472,81.696 105.600,80.208 105.600 C 78.629 105.600,78.385 105.719,78.164 106.600 C 77.982 107.327,77.645 107.600,76.930 107.600 C 75.759 107.600,74.400 108.265,74.400 108.838 C 74.400 109.063,74.608 109.119,74.862 108.962 C 75.148 108.785,75.215 108.852,75.038 109.138 C 74.881 109.392,74.227 109.600,73.584 109.600 C 72.671 109.600,72.360 109.819,72.164 110.600 C 71.982 111.327,71.645 111.600,70.930 111.600 C 69.628 111.600,68.400 112.286,68.400 113.014 C 68.400 113.371,68.012 113.600,67.408 113.600 C 66.683 113.600,66.348 113.869,66.164 114.600 C 66.007 115.226,65.630 115.600,65.157 115.600 C 64.683 115.600,64.400 115.881,64.400 116.351 C 64.400 116.764,64.130 117.326,63.800 117.600 C 63.470 117.874,63.200 117.950,63.200 117.769 C 63.200 116.792,62.325 118.511,62.233 119.669 C 62.147 120.747,62.278 121.051,62.845 121.093 C 63.849 121.169,66.322 122.412,71.000 125.192 C 73.200 126.499,75.367 127.737,75.816 127.943 C 76.265 128.148,76.873 128.605,77.165 128.958 C 77.458 129.311,77.901 129.601,78.149 129.602 C 78.645 129.605,79.030 129.803,84.000 132.615 C 85.870 133.672,87.490 134.666,87.600 134.822 C 87.786 135.086,88.402 135.427,92.600 137.586 C 93.480 138.038,95.010 138.943,96.000 139.597 C 96.990 140.251,98.430 141.097,99.200 141.477 C 99.970 141.857,100.870 142.378,101.200 142.634 C 101.530 142.891,103.010 143.736,104.488 144.512 C 105.967 145.288,107.656 146.301,108.242 146.762 C 108.828 147.223,109.446 147.600,109.614 147.600 C 109.782 147.600,111.063 148.322,112.460 149.205 C 113.857 150.088,115.720 151.177,116.600 151.626 C 118.211 152.447,119.078 152.938,125.389 156.600 C 127.284 157.700,129.682 159.082,130.718 159.671 C 131.753 160.261,133.230 161.109,134.000 161.556 C 134.770 162.003,135.967 162.640,136.660 162.973 C 137.353 163.305,138.171 163.808,138.477 164.089 C 138.783 164.370,140.376 165.300,142.016 166.156 C 143.657 167.012,145.360 168.010,145.800 168.374 C 146.240 168.738,147.140 169.298,147.800 169.618 C 148.460 169.937,149.090 170.289,149.200 170.399 C 149.418 170.618,151.672 171.880,154.200 173.199 C 155.080 173.658,156.450 174.431,157.245 174.917 C 158.040 175.403,160.020 176.586,161.645 177.547 C 163.270 178.508,165.240 179.723,166.022 180.247 C 166.803 180.771,167.726 181.200,168.073 181.200 C 168.419 181.200,168.928 181.472,169.204 181.805 C 169.480 182.137,170.447 182.763,171.353 183.195 C 172.259 183.627,173.270 184.153,173.600 184.364 C 173.930 184.575,175.370 185.425,176.800 186.254 C 178.230 187.082,179.670 187.972,180.000 188.232 C 180.330 188.493,181.050 188.837,181.600 188.999 C 182.150 189.160,182.960 189.608,183.400 189.994 C 183.840 190.380,184.672 190.945,185.250 191.248 C 190.135 193.816,196.125 197.252,196.931 197.948 C 198.786 199.551,202.427 199.548,204.271 197.942 C 204.973 197.329,205.791 196.858,208.800 195.329 C 209.570 194.938,210.709 194.209,211.331 193.709 C 211.953 193.209,212.704 192.800,213.000 192.800 C 213.296 192.800,214.060 192.362,214.696 191.826 C 215.333 191.290,216.337 190.731,216.927 190.583 C 217.517 190.434,218.000 190.174,218.000 190.004 C 218.000 189.833,218.996 189.207,220.213 188.611 C 221.430 188.016,223.338 186.915,224.453 186.164 C 225.568 185.414,226.661 184.800,226.882 184.800 C 227.104 184.800,227.819 184.350,228.473 183.800 C 229.127 183.250,229.999 182.800,230.411 182.800 C 230.823 182.800,231.304 182.555,231.480 182.255 C 231.656 181.956,232.610 181.325,233.600 180.854 C 234.590 180.383,236.120 179.557,237.000 179.019 C 237.880 178.480,239.230 177.716,240.000 177.320 C 240.770 176.924,241.744 176.289,242.165 175.909 C 242.586 175.530,243.531 175.021,244.265 174.778 C 244.999 174.536,245.600 174.184,245.600 173.996 C 245.600 173.808,246.005 173.534,246.500 173.387 C 247.342 173.137,248.118 172.683,251.900 170.225 C 252.725 169.689,253.895 169.130,254.500 168.982 C 255.105 168.834,255.600 168.554,255.600 168.360 C 255.600 168.022,256.366 167.560,259.833 165.809 C 260.695 165.374,261.909 164.609,262.531 164.109 C 263.153 163.609,264.013 163.200,264.443 163.200 C 264.873 163.200,265.323 162.944,265.443 162.631 C 265.563 162.318,266.412 161.762,267.330 161.395 C 268.247 161.028,269.088 160.596,269.199 160.435 C 269.391 160.155,273.794 157.577,277.256 155.718 C 278.159 155.232,279.191 154.579,279.549 154.265 C 279.907 153.951,280.647 153.558,281.192 153.391 C 281.738 153.224,282.638 152.777,283.192 152.397 C 285.839 150.583,288.182 149.200,288.607 149.200 C 288.865 149.200,289.387 148.856,289.767 148.436 C 290.148 148.016,290.911 147.558,291.464 147.420 C 292.016 147.281,292.847 146.815,293.310 146.384 C 293.772 145.953,294.443 145.600,294.800 145.600 C 295.157 145.600,295.812 145.262,296.255 144.849 C 296.699 144.436,297.431 143.981,297.882 143.838 C 298.333 143.694,299.219 143.133,299.851 142.589 C 300.483 142.046,301.253 141.601,301.562 141.600 C 301.871 141.600,302.702 141.160,303.408 140.621 C 304.113 140.083,305.165 139.524,305.745 139.378 C 306.325 139.232,306.800 138.944,306.800 138.736 C 306.800 138.529,307.475 138.078,308.300 137.735 C 309.125 137.391,309.890 136.971,310.000 136.800 C 310.110 136.629,310.830 136.188,311.600 135.818 C 314.029 134.654,316.275 133.356,317.411 132.463 C 318.014 131.988,318.726 131.600,318.992 131.600 C 319.258 131.600,319.999 131.150,320.638 130.600 C 321.277 130.051,322.017 129.601,322.282 129.600 C 322.547 129.600,323.428 129.150,324.238 128.600 C 325.049 128.050,325.957 127.600,326.256 127.600 C 326.555 127.600,326.800 127.423,326.800 127.208 C 326.800 126.839,327.468 126.450,332.268 124.023 C 333.331 123.486,334.344 122.811,334.520 122.523 C 334.696 122.235,335.109 122.000,335.438 122.000 C 335.767 122.000,336.486 121.550,337.036 121.000 C 337.586 120.450,338.216 120.000,338.435 120.000 C 338.654 120.000,339.069 119.780,339.356 119.512 C 339.998 118.913,339.692 117.479,338.981 117.752 C 338.522 117.928,337.803 116.985,337.917 116.357 C 337.942 116.224,337.523 115.880,336.988 115.593 C 336.452 115.307,335.912 114.752,335.788 114.361 C 335.664 113.970,335.166 113.594,334.681 113.525 C 334.175 113.453,333.798 113.114,333.795 112.728 C 333.788 111.795,333.618 111.692,331.800 111.516 C 330.920 111.431,330.197 111.190,330.194 110.981 C 330.182 110.221,329.536 109.600,328.758 109.600 C 328.321 109.600,327.514 109.150,326.964 108.600 C 326.414 108.050,325.541 107.600,325.025 107.600 C 324.358 107.600,324.014 107.311,323.836 106.600 C 323.615 105.722,323.369 105.600,321.820 105.600 C 320.295 105.600,320.038 105.478,319.928 104.700 C 319.830 104.009,319.496 103.771,318.492 103.674 C 317.773 103.605,317.281 103.393,317.398 103.203 C 317.516 103.013,317.249 102.743,316.806 102.602 C 316.363 102.461,316.000 102.178,316.000 101.973 C 316.000 101.768,315.569 101.600,315.043 101.600 C 314.516 101.600,313.982 101.330,313.855 101.000 C 313.729 100.670,313.349 100.400,313.013 100.400 C 312.676 100.400,312.400 100.220,312.400 100.000 C 312.400 99.780,312.021 99.600,311.558 99.600 C 311.094 99.600,310.361 99.150,309.929 98.600 C 309.363 97.881,308.757 97.600,307.771 97.600 C 306.541 97.600,306.210 97.307,306.341 96.334 C 306.361 96.188,305.617 95.822,304.689 95.520 C 303.760 95.218,303.035 94.782,303.078 94.552 C 303.121 94.322,302.941 94.133,302.678 94.133 C 301.934 94.133,299.200 92.749,299.200 92.373 C 299.200 92.188,298.570 91.918,297.800 91.774 C 296.537 91.537,296.210 91.204,296.353 90.300 C 296.379 90.135,296.265 90.021,296.100 90.047 C 295.935 90.073,295.620 90.053,295.400 90.001 C 295.180 89.950,294.820 89.866,294.600 89.815 C 294.380 89.764,293.765 89.694,293.233 89.661 C 292.702 89.627,292.380 89.486,292.519 89.347 C 292.909 88.958,292.043 87.600,291.405 87.600 C 290.481 87.600,288.808 86.711,289.036 86.342 C 289.152 86.154,288.628 86.000,287.870 86.000 C 286.836 86.000,286.442 85.804,286.287 85.211 C 286.141 84.654,285.608 84.347,284.472 84.165 C 283.218 83.965,282.811 83.698,282.624 82.954 C 282.443 82.233,282.094 81.988,281.192 81.950 C 279.440 81.877,279.189 81.825,279.300 81.561 C 279.526 81.022,278.235 80.000,277.327 80.000 C 276.791 80.000,276.442 79.856,276.550 79.681 C 277.075 78.831,275.843 78.106,273.747 78.031 C 273.258 78.013,272.807 77.671,272.692 77.231 C 272.547 76.674,271.993 76.388,270.679 76.191 C 269.211 75.971,268.821 75.737,268.626 74.960 C 268.439 74.215,268.117 74.000,267.192 74.000 C 266.452 74.000,266.038 73.811,266.100 73.500 C 266.156 73.221,265.891 73.052,265.500 73.118 C 265.085 73.187,264.800 72.984,264.800 72.618 C 264.800 72.210,264.424 72.000,263.695 72.000 C 262.932 72.000,262.467 71.721,262.195 71.100 C 261.904 70.437,261.403 70.167,260.292 70.075 C 259.462 70.007,258.880 69.794,258.998 69.603 C 259.332 69.063,257.549 68.000,256.311 68.000 C 255.700 68.000,255.200 67.807,255.200 67.571 C 255.200 66.873,254.118 66.000,253.252 66.000 C 252.809 66.000,252.319 65.792,252.162 65.538 C 251.974 65.235,252.069 65.176,252.438 65.368 C 252.747 65.528,252.651 65.376,252.224 65.030 C 251.796 64.683,251.019 64.400,250.495 64.400 C 249.557 64.400,248.250 63.484,248.636 63.097 C 248.746 62.988,248.017 62.657,247.017 62.362 C 245.359 61.872,245.016 61.567,245.153 60.700 C 245.179 60.535,244.300 60.400,243.200 60.400 C 241.333 60.400,241.200 60.333,241.200 59.400 C 241.200 58.551,241.015 58.400,239.976 58.400 C 239.263 58.400,238.856 58.233,239.000 58.000 C 239.136 57.780,238.956 57.600,238.600 57.600 C 238.244 57.600,238.052 57.439,238.174 57.242 C 238.440 56.811,237.482 56.400,236.214 56.400 C 235.634 56.400,235.217 56.108,235.087 55.611 C 234.941 55.054,234.408 54.747,233.272 54.565 C 232.018 54.365,231.611 54.098,231.424 53.354 C 231.221 52.544,230.939 52.400,229.555 52.400 C 228.248 52.400,227.883 52.237,227.711 51.580 C 227.579 51.077,227.051 50.670,226.348 50.530 C 225.717 50.403,225.200 50.081,225.200 49.814 C 225.200 49.247,223.511 48.400,222.381 48.400 C 221.692 48.400,221.425 47.998,221.541 47.136 C 221.560 46.991,220.699 46.751,219.626 46.604 C 218.172 46.404,217.625 46.140,217.475 45.565 C 217.351 45.093,216.786 44.697,216.015 44.543 C 215.230 44.386,214.829 44.101,214.950 43.786 C 215.075 43.459,214.513 43.122,213.356 42.831 C 212.372 42.583,211.470 42.127,211.352 41.818 C 210.676 40.058,193.580 39.718,191.970 41.432 " stroke="none" fill="#ff9800" fill-rule="evenodd"></path><path id="path9" d="" stroke="none" fill="#ffb600" fill-rule="evenodd"></path><path id="path10" d="" stroke="none" fill="#ffff00" fill-rule="evenodd"></path></g></svg>