<?xml version="1.0" encoding="utf-8"?>
<!-- Generator: Adobe Illustrator 19.0.0, SVG Export Plug-In . SVG Version: 6.00 Build 0)  -->
<svg version="1.1" xmlns="http://www.w3.org/2000/svg" xmlns:xlink="http://www.w3.org/1999/xlink" x="0px" y="0px"
	 width="1314.5px" height="403.3px" viewBox="0 0 1314.5 403.3" style="enable-background:new 0 0 1314.5 403.3;"
	 xml:space="preserve">
<style type="text/css">
	.st0{display:none;}
	.st1{display:inline;}
	.st2{fill:#DC4637;}
	.st3{fill:#414242;}
	.st4{fill:#ED174F;}
	.st5{opacity:0.43;clip-path:url(#SVGID_2_);fill:#49A848;}
	.st6{fill:#FFC425;}
	.st7{fill:#0079C1;}
	.st8{fill:#49A942;}
	.st9{fill:#FFFFFF;}
	.st10{fill:#6D6D6D;}
	.st11{clip-path:url(#SVGID_4_);fill:#DC4637;}
	.st12{opacity:0.2;clip-path:url(#SVGID_4_);}
	.st13{clip-path:url(#SVGID_6_);fill:#FFFFFF;}
	.st14{filter:url(#Adobe_OpacityMaskFilter);}
	.st15{clip-path:url(#SVGID_8_);fill:url(#SVGID_10_);}
	.st16{clip-path:url(#SVGID_8_);mask:url(#SVGID_9_);fill:url(#SVGID_11_);}
	.st17{opacity:0.2;clip-path:url(#SVGID_13_);}
	.st18{clip-path:url(#SVGID_15_);}
	.st19{clip-path:url(#SVGID_13_);fill:#0F9D58;}
	.st20{clip-path:url(#SVGID_19_);fill:#273238;}
	.st21{clip-path:url(#SVGID_13_);fill:#F3B41B;}
	.st22{clip-path:url(#SVGID_21_);fill:#FFFFFF;}
	.st23{clip-path:url(#SVGID_23_);fill:#FFFFFF;}
	.st24{clip-path:url(#SVGID_25_);fill:#3F2723;}
	.st25{clip-path:url(#SVGID_27_);fill:#BE3B26;}
	.st26{clip-path:url(#SVGID_29_);fill:#3F2723;}
	.st27{clip-path:url(#SVGID_13_);fill:#557EBF;}
	.st28{clip-path:url(#SVGID_31_);fill:#2D3079;}
	.st29{clip-path:url(#SVGID_33_);fill:#FFFFFF;}
	.st30{fill:#CCCCCC;}
	.st31{fill:#557EBF;}
	.st32{fill:#F3B41B;}
	.st33{fill:#0F9D58;}
	.st34{fill:#F5BA38;}
	.st35{opacity:0.43;clip-path:url(#SVGID_35_);fill:#49A848;}
	.st36{fill:none;}
	.st37{fill:#FDC113;}
	.st38{opacity:0.2;fill:#BE3B26;enable-background:new    ;}
	.st39{opacity:0.2;fill:#273238;enable-background:new    ;}
	.st40{opacity:0.2;fill:#FFFFFF;enable-background:new    ;}
	.st41{fill:url(#XMLID_2_);}
	.st42{fill:url(#XMLID_3_);}
	.st43{fill:#DC4537;}
	.st44{opacity:0.2;fill:#2D3079;enable-background:new    ;}
	.st45{opacity:0.2;fill:#3F2723;enable-background:new    ;}
	.st46{fill:url(#XMLID_4_);}
	.st47{opacity:0.54;}
	.st48{fill:#010101;}
</style>
<g id="Layer_2_copy" class="st0">
	<g class="st1">
		<g>
			<path class="st2" d="M500.4-197.6c0-1.1-0.9-2-2-2h-78.2c-1.1,0-2,0.9-2,2v36.2c0,1.1,0.9,2,2,2h78.2c1.1,0,2-0.9,2-2V-197.6z"/>
		</g>
		<path class="st2" d="M420.1-180.8c-0.1-0.1-0.3-0.3-0.4-0.3c-1.4-0.4-1.1,2.5-1.4,3.2c-0.7,1.5-2.5,1.7-3.8,0.9
			c-2-1.1-2.4,0.3-1.8,2c0.4,1,1,2,1.7,2.9c0.8,1,1.9,1.8,2.6,3c0.7,1.2,1.2,2.5,1.3,3.8c0.1,0.7,0.1,1.3,0.1,2
			c0,0.5,0.1,1.1,0.7,1.2c0.8,0.2,1.4-1.1,1.6-1.7c0.1-0.3,0.1-0.7,0.2-1c0-0.6,0.2-1-0.1-1.6c-0.3-0.6-0.3-1.4-0.3-2.1
			c0-1.7-0.1-3.5-0.1-5.2c0-1.7-0.1-3.4-0.1-5c0-0.2-0.1-0.5,0-0.7c0-0.1,0.1-0.2,0.1-0.3c0-0.2,0.1-0.3,0-0.5
			C420.4-180.5,420.3-180.7,420.1-180.8z"/>
	</g>
	<g class="st1">
		<g>
			<g>
				<path class="st3" d="M298.3-164.2c-0.5,0-1,0.2-1.3,0.6c-0.3,0.4-0.5,0.9-0.5,1.5c0,0.7,0.2,1.2,0.5,1.5
					c0.3,0.4,0.7,0.5,1.3,0.5c0.3,0,0.7-0.1,1.2-0.2v0.5c-0.3,0.1-0.8,0.2-1.3,0.2c-0.7,0-1.3-0.2-1.7-0.7c-0.4-0.5-0.6-1.1-0.6-1.9
					c0-0.5,0.1-1,0.3-1.4c0.2-0.4,0.5-0.7,0.8-0.9c0.4-0.2,0.8-0.3,1.3-0.3c0.5,0,1,0.1,1.4,0.3l-0.2,0.5
					C299-164.2,298.6-164.2,298.3-164.2z"/>
				<path class="st3" d="M305.2-162.2c0,0.8-0.2,1.4-0.6,1.9c-0.4,0.5-1,0.7-1.7,0.7c-0.7,0-1.3-0.2-1.7-0.7
					c-0.4-0.5-0.6-1.1-0.6-1.9c0-0.8,0.2-1.5,0.6-1.9c0.4-0.5,1-0.7,1.7-0.7c0.7,0,1.3,0.2,1.7,0.7C305-163.6,305.2-163,305.2-162.2
					z M301.2-162.2c0,0.7,0.1,1.2,0.4,1.6c0.3,0.4,0.7,0.5,1.3,0.5c0.6,0,1-0.2,1.3-0.5c0.3-0.4,0.4-0.9,0.4-1.6
					c0-0.7-0.1-1.2-0.4-1.6c-0.3-0.4-0.7-0.5-1.3-0.5c-0.6,0-1,0.2-1.3,0.5C301.4-163.4,301.2-162.8,301.2-162.2z"/>
				<path class="st3" d="M310.6-159.6h-0.7l-2.7-4.3h0c0,0.5,0.1,1,0.1,1.4v2.9h-0.5v-5.1h0.7l2.7,4.2h0c0-0.1,0-0.3,0-0.6
					c0-0.3,0-0.6,0-0.7v-2.9h0.5V-159.6z"/>
				<path class="st3" d="M316.2-159.6h-0.7l-2.7-4.3h0c0,0.5,0.1,1,0.1,1.4v2.9h-0.5v-5.1h0.7l2.7,4.2h0c0-0.1,0-0.3,0-0.6
					c0-0.3,0-0.6,0-0.7v-2.9h0.5V-159.6z"/>
				<path class="st3" d="M320.8-159.6H318v-5.1h2.8v0.5h-2.2v1.6h2.1v0.5h-2.1v1.9h2.2V-159.6z"/>
				<path class="st3" d="M324.4-164.2c-0.6,0-1,0.2-1.3,0.6c-0.3,0.4-0.5,0.9-0.5,1.5c0,0.7,0.2,1.2,0.5,1.5
					c0.3,0.4,0.7,0.5,1.3,0.5c0.3,0,0.7-0.1,1.2-0.2v0.5c-0.3,0.1-0.8,0.2-1.3,0.2c-0.7,0-1.3-0.2-1.7-0.7c-0.4-0.5-0.6-1.1-0.6-1.9
					c0-0.5,0.1-1,0.3-1.4c0.2-0.4,0.5-0.7,0.8-0.9c0.4-0.2,0.8-0.3,1.3-0.3c0.5,0,1,0.1,1.4,0.3l-0.2,0.5
					C325.1-164.2,324.7-164.2,324.4-164.2z"/>
				<path class="st3" d="M328.5-159.6H328v-4.5h-1.6v-0.5h3.8v0.5h-1.6V-159.6z"/>
			</g>
			<g>
				<path class="st3" d="M341-159.6v-5.1h0.6v5.1H341z"/>
				<path class="st3" d="M347.3-159.6h-0.7l-2.7-4.3h0c0,0.5,0.1,1,0.1,1.4v2.9h-0.5v-5.1h0.7l2.7,4.2h0c0-0.1,0-0.3,0-0.6
					c0-0.3,0-0.6,0-0.7v-2.9h0.5V-159.6z"/>
				<path class="st3" d="M349.6-159.6H349v-5.1h2.8v0.5h-2.2v1.9h2.1v0.5h-2.1V-159.6z"/>
				<path class="st3" d="M357.3-162.2c0,0.8-0.2,1.4-0.6,1.9c-0.4,0.5-1,0.7-1.7,0.7c-0.7,0-1.3-0.2-1.7-0.7
					c-0.4-0.5-0.6-1.1-0.6-1.9c0-0.8,0.2-1.5,0.6-1.9c0.4-0.5,1-0.7,1.7-0.7c0.7,0,1.3,0.2,1.7,0.7
					C357.1-163.6,357.3-163,357.3-162.2z M353.3-162.2c0,0.7,0.1,1.2,0.4,1.6c0.3,0.4,0.7,0.5,1.3,0.5c0.6,0,1-0.2,1.3-0.5
					c0.3-0.4,0.4-0.9,0.4-1.6c0-0.7-0.1-1.2-0.4-1.6c-0.3-0.4-0.7-0.5-1.3-0.5c-0.6,0-1,0.2-1.3,0.5
					C353.5-163.4,353.3-162.8,353.3-162.2z"/>
				<path class="st3" d="M359.4-161.7v2.1h-0.6v-5.1h1.4c0.6,0,1.1,0.1,1.4,0.4c0.3,0.2,0.4,0.6,0.4,1.1c0,0.7-0.3,1.1-1,1.4
					l1.4,2.3h-0.7l-1.2-2.1H359.4z M359.4-162.2h0.8c0.4,0,0.7-0.1,0.9-0.2c0.2-0.2,0.3-0.4,0.3-0.7c0-0.3-0.1-0.6-0.3-0.7
					c-0.2-0.1-0.5-0.2-0.9-0.2h-0.8V-162.2z"/>
				<path class="st3" d="M365.7-159.6l-1.7-4.5h0c0,0.4,0,0.8,0,1.3v3.2h-0.5v-5.1h0.9l1.6,4.2h0l1.6-4.2h0.9v5.1h-0.6v-3.3
					c0-0.4,0-0.8,0-1.2h0l-1.7,4.5H365.7z"/>
			</g>
			<g>
				<path class="st3" d="M380.7-159.6v-5.1h0.6v5.1H380.7z"/>
				<path class="st3" d="M386.9-159.6h-0.7l-2.7-4.3h0c0,0.5,0.1,1,0.1,1.4v2.9H383v-5.1h0.7l2.7,4.2h0c0-0.1,0-0.3,0-0.6
					c0-0.3,0-0.6,0-0.7v-2.9h0.5V-159.6z"/>
				<path class="st3" d="M391.5-161c0,0.4-0.2,0.8-0.5,1c-0.3,0.2-0.8,0.4-1.3,0.4c-0.6,0-1-0.1-1.4-0.2v-0.6
					c0.2,0.1,0.4,0.2,0.7,0.2c0.2,0.1,0.5,0.1,0.7,0.1c0.4,0,0.7-0.1,0.9-0.2c0.2-0.2,0.3-0.4,0.3-0.6c0-0.2,0-0.3-0.1-0.4
					c-0.1-0.1-0.2-0.2-0.3-0.3c-0.2-0.1-0.4-0.2-0.7-0.3c-0.5-0.2-0.8-0.4-1-0.6c-0.2-0.2-0.3-0.5-0.3-0.9c0-0.4,0.1-0.7,0.4-0.9
					c0.3-0.2,0.7-0.3,1.2-0.3c0.5,0,1,0.1,1.4,0.3l-0.2,0.5c-0.4-0.2-0.8-0.3-1.2-0.3c-0.3,0-0.5,0.1-0.7,0.2
					c-0.2,0.1-0.3,0.3-0.3,0.6c0,0.2,0,0.3,0.1,0.4c0.1,0.1,0.2,0.2,0.3,0.3c0.2,0.1,0.4,0.2,0.7,0.3c0.5,0.2,0.9,0.4,1.1,0.6
					C391.4-161.6,391.5-161.3,391.5-161z"/>
				<path class="st3" d="M396-163.2c0,0.5-0.2,0.9-0.5,1.2c-0.3,0.3-0.8,0.4-1.5,0.4h-0.6v2h-0.6v-5.1h1.3
					C395.4-164.7,396-164.2,396-163.2z M393.4-162.1h0.5c0.5,0,0.9-0.1,1.1-0.3c0.2-0.2,0.3-0.4,0.3-0.8c0-0.3-0.1-0.6-0.3-0.8
					c-0.2-0.2-0.6-0.2-1-0.2h-0.7V-162.1z"/>
				<path class="st3" d="M397.4-159.6v-5.1h0.6v5.1H397.4z"/>
				<path class="st3" d="M400.3-161.7v2.1h-0.6v-5.1h1.4c0.6,0,1.1,0.1,1.4,0.4c0.3,0.2,0.4,0.6,0.4,1.1c0,0.7-0.3,1.1-1,1.4
					l1.4,2.3h-0.7l-1.2-2.1H400.3z M400.3-162.2h0.8c0.4,0,0.7-0.1,0.9-0.2c0.2-0.2,0.3-0.4,0.3-0.7c0-0.3-0.1-0.6-0.3-0.7
					c-0.2-0.1-0.5-0.2-0.9-0.2h-0.8V-162.2z"/>
				<path class="st3" d="M407.2-159.6h-2.8v-5.1h2.8v0.5H405v1.6h2.1v0.5H405v1.9h2.2V-159.6z"/>
			</g>
			<path class="st3" d="M335.3-162c0,0.4-0.3,0.7-0.7,0.7c-0.4,0-0.7-0.3-0.7-0.7c0-0.4,0.3-0.7,0.7-0.7
				C335-162.7,335.3-162.4,335.3-162z"/>
			<path class="st3" d="M374.9-162c0,0.4-0.3,0.7-0.7,0.7c-0.4,0-0.7-0.3-0.7-0.7c0-0.4,0.3-0.7,0.7-0.7
				C374.6-162.7,374.9-162.4,374.9-162z"/>
		</g>
		<g>
			<g>
				<path class="st3" d="M343.5-188.6h11.3v14.2c-3.1,1.1-6.5,1.6-10.2,1.6c-4.1,0-7.2-1.2-9.4-3.5c-2.2-2.3-3.3-5.7-3.3-10.1
					c0-4.2,1.2-7.5,3.6-9.9c2.4-2.4,5.8-3.5,10.2-3.5c1.7,0,3.2,0.2,4.7,0.5c1.5,0.3,2.7,0.7,3.8,1.2l-2.2,5.6
					c-1.9-0.9-4-1.4-6.2-1.4c-2.1,0-3.7,0.7-4.8,2c-1.1,1.3-1.7,3.3-1.7,5.8c0,2.5,0.5,4.3,1.5,5.6c1,1.3,2.5,1.9,4.4,1.9
					c1.1,0,2-0.1,2.9-0.3v-4.1h-4.7V-188.6z"/>
				<path class="st3" d="M360.2-199.5h9.2c3.6,0,6.2,0.5,8,1.6c1.7,1.1,2.6,2.7,2.6,5c0,1.5-0.4,2.7-1.1,3.8c-0.8,1-1.7,1.7-3,2v0.2
					c1.6,0.4,2.8,1.2,3.5,2.2c0.7,1,1.1,2.3,1.1,3.9c0,2.4-0.9,4.3-2.7,5.6c-1.8,1.4-4.2,2.1-7.3,2.1h-10.2V-199.5z M367.3-189.4
					h2.1c1,0,1.8-0.2,2.4-0.6c0.6-0.4,0.8-1,0.8-1.9c0-1.5-1.1-2.2-3.3-2.2h-2V-189.4z M367.3-184.2v5.5h2.5c2.2,0,3.3-0.9,3.3-2.8
					c0-0.9-0.3-1.5-0.9-2c-0.6-0.5-1.5-0.7-2.6-0.7H367.3z"/>
				<path class="st3" d="M395.6-188.6H407v14.2c-3.1,1.1-6.5,1.6-10.2,1.6c-4.1,0-7.2-1.2-9.4-3.5c-2.2-2.3-3.3-5.7-3.3-10.1
					c0-4.2,1.2-7.5,3.6-9.9c2.4-2.4,5.8-3.5,10.2-3.5c1.7,0,3.2,0.2,4.7,0.5c1.5,0.3,2.8,0.7,3.8,1.2l-2.2,5.6
					c-1.9-0.9-4-1.4-6.2-1.4c-2.1,0-3.7,0.7-4.8,2c-1.1,1.3-1.7,3.3-1.7,5.8c0,2.5,0.5,4.3,1.5,5.6c1,1.3,2.5,1.9,4.4,1.9
					c1.1,0,2-0.1,2.9-0.3v-4.1h-4.7V-188.6z"/>
			</g>
		</g>
		<g>
			<path class="st4" d="M305.8-177.2L305.8-177.2c1.1,0,2.2-0.4,3-1.2l3.8,3.8l0,0c3.8-3.8,3.8-9.9,0-13.7l-3.8,3.8l0,0
				c1.7,1.7,1.7,4.3,0,6C307.9-177.6,306.9-177.2,305.8-177.2z"/>
			<g>
				<defs>
					<path id="SVGID_1_" d="M305.8-171.8l0-5.4c1.1,0,2.2-0.4,3-1.2l0,0c1.7-1.7,1.7-4.3,0-6l0,0l0,0l3.8-3.8
						c3.8,3.8,3.8,9.9,0,13.7l0,0C310.7-172.7,308.2-171.8,305.8-171.8L305.8-171.8z"/>
				</defs>
				<clipPath id="SVGID_2_">
					<use xlink:href="#SVGID_1_"  style="overflow:visible;"/>
				</clipPath>
				<path class="st5" d="M325.8-187.1l-5.1-1.7c-0.3,1-1.1,1.9-2.1,2.5l0,0c-2.1,1.1-4.6,0.2-5.7-1.9l0,0h0l-4.8,2.5
					c2.8,5.6,7.7,6.9,13,4.2l0,0C323.3-182.7,325-184.8,325.8-187.1L325.8-187.1z"/>
			</g>
			<path class="st6" d="M322.4-198.1c-3.8-3.8-9.9-3.8-13.7,0l0,0l3.8,3.8c1.7-1.7,4.4-1.7,6,0l0,0c0.8,0.8,1.2,1.9,1.2,3l0,0l0,0
				h5.4C325.3-193.7,324.3-196.2,322.4-198.1L322.4-198.1z"/>
			<path class="st7" d="M298.9-174.6c3.8,3.8,9.9,3.8,13.7,0l0,0l-3.8-3.8c-1.7,1.7-4.3,1.7-6,0l0,0c-0.8-0.8-1.2-1.9-1.2-3l0,0l0,0
				h-5.4C296.1-179,297.1-176.5,298.9-174.6L298.9-174.6z"/>
			<path class="st8" d="M319.9-191.2c0,1.1-0.4,2.2-1.3,3c-1.7,1.6-4.4,1.6-6,0l0,0c-3.8-3.8-9.9-3.8-13.7-0.1
				c-1.9,1.9-2.9,4.4-2.9,6.8l5.4,0c0-1.1,0.4-2.2,1.3-3c1.7-1.7,4.4-1.6,6,0l0,0l0,0c3.8,3.8,9.9,3.8,13.7,0.1
				c1.9-1.9,2.9-4.4,2.9-6.8L319.9-191.2z"/>
			<path class="st4" d="M312.6-188.3L312.6-188.3c-1.7-1.7-1.6-4.3,0-6l-3.8-3.8c-1.9,1.9-2.9,4.5-2.8,7
				C308.4-191,310.8-190.1,312.6-188.3z"/>
		</g>
	</g>
	<g class="st1">
		<g>
			<rect x="422.4" y="-194.4" class="st36" width="80" height="27"/>
			<text transform="matrix(1.0074 0 0 1 422.3566 -181.6001)" class="st9" style="font-family:'Bevan'; font-size:18.059px;">KUALA</text>
		</g>
		<text transform="matrix(1.0074 0 0 1 422.4464 -165.2393)" class="st9" style="font-family:'Bevan'; font-size:14.1446px;">LUMPUR</text>
	</g>
</g>
<g id="Layer_2_copy_3" class="st0">
	<g class="st1">
		<g>
			<path class="st10" d="M727.7,213.1c0,39.8-11.8,71.5-35.4,95.1c-26.8,28.1-61.7,42.2-104.7,42.2c-41.1,0-76.1-14.3-104.9-42.8
				c-28.8-28.5-43.2-63.9-43.2-106.1S454,124,482.8,95.5c28.8-28.5,63.7-42.8,104.9-42.8c20.4,0,39.9,4,58.5,11.9
				c18.6,8,33.4,18.6,44.6,31.8l-25.1,25.1c-18.8-22.5-44.8-33.8-78-33.8c-30,0-55.9,10.5-77.8,31.6c-21.9,21.1-32.8,48.5-32.8,82.2
				c0,33.7,10.9,61.1,32.8,82.2c21.9,21.1,47.8,31.6,77.8,31.6c31.8,0,58.4-10.6,79.6-31.8c13.8-13.8,21.8-33,23.9-57.7H587.6v-34.2
				h138.1C727,199,727.7,206.2,727.7,213.1z"/>
			<path class="st10" d="M772.2,344V59.1h103.1c22.3,0,41.6,7.4,57.9,22.1c16.3,14.7,24.5,33.2,24.5,55.5c0,13.5-3.5,25.5-10.5,35.8
				c-7,10.3-16.4,18.2-28.1,23.5v1.6c14.1,4.8,25.6,13,34.6,24.7c9,11.7,13.5,25.2,13.5,40.6c0,23.3-8.6,42.7-25.7,58.1
				c-17.1,15.4-37.3,23.1-60.7,23.1H772.2z M808.9,181.2h66.5c13.8,0,24.9-4.6,33.2-13.7c8.4-9.2,12.5-19.2,12.5-30
				c0-10.9-4-20.8-12.1-29.8c-8.1-9-18.8-13.5-32-13.5h-68.1V181.2z M808.9,309h73.6c14.1,0,25.5-4.9,34.2-14.7
				c8.8-9.8,13.1-20.6,13.1-32.2c0-11.7-4.5-22.3-13.5-32c-9-9.7-20.8-14.5-35.4-14.5h-72V309z"/>
			<path class="st10" d="M1282.8,213.1c0,39.8-11.8,71.5-35.4,95.1c-26.8,28.1-61.7,42.2-104.7,42.2c-41.1,0-76.1-14.3-104.9-42.8
				c-28.8-28.5-43.2-63.9-43.2-106.1s14.4-77.5,43.2-106.1c28.8-28.5,63.7-42.8,104.9-42.8c20.4,0,39.9,4,58.5,11.9
				c18.6,8,33.4,18.6,44.6,31.8l-25.1,25.1c-18.9-22.5-44.8-33.8-78-33.8c-30,0-55.9,10.5-77.8,31.6c-21.9,21.1-32.8,48.5-32.8,82.2
				c0,33.7,10.9,61.1,32.8,82.2c21.9,21.1,47.8,31.6,77.8,31.6c31.8,0,58.4-10.6,79.6-31.8c13.8-13.8,21.8-33,23.9-57.7h-103.5
				v-34.2h138.1C1282.2,199,1282.8,206.2,1282.8,213.1z"/>
		</g>
		<g>
			<g>
				<defs>
					<path id="SVGID_3_" d="M97.8,255C97.8,255,97.8,255,97.8,255c0-23.5,19.1-42.6,42.6-42.6c11.7,0,22.4,4.8,30.1,12.4
						c0,0,0,0,0,0c7.7,7.7,12.4,18.3,12.4,30.1c0,11.7-4.8,22.4-12.4,30.1c-7.7,7.7-18.4,12.5-30.1,12.5
						C116.9,297.6,97.8,278.5,97.8,255 M217.3,178.2C217.3,178.2,217.2,178.1,217.3,178.2c-7.7-7.7-12.5-18.4-12.5-30.1
						c0-11.7,4.8-22.4,12.5-30.1c7.7-7.7,18.4-12.5,30.1-12.5c23.5,0,42.6,19.1,42.6,42.6v0c0,23.5-19.1,42.5-42.6,42.5
						C235.6,190.6,224.9,185.8,217.3,178.2 M170.4,71.2c-19.3,19.3-31.3,45.8-31.8,75.2c-59.2,0.9-107,49.2-107,108.6c0,0,0,0,0,0
						c0,60,48.7,108.7,108.7,108.7c30,0,57.2-12.2,76.9-31.8c19.3-19.3,31.3-45.8,31.8-75.2c59.2-0.9,107-49.2,107-108.6v0
						c0-60-48.7-108.7-108.7-108.7C217.3,39.3,190.1,51.5,170.4,71.2"/>
				</defs>
				<clipPath id="SVGID_4_">
					<use xlink:href="#SVGID_3_"  style="overflow:visible;"/>
				</clipPath>
				<path class="st11" d="M170.5,224.9c7.7,7.7,12.4,18.3,12.4,30.1c0,11.7-4.8,22.4-12.4,30.1l46.8,46.8
					c19.3-19.3,31.3-45.8,31.8-75.2c-0.6,0-1.1,0-1.7,0C217.3,256.7,190.1,244.6,170.5,224.9"/>
				<path class="st11" d="M217.2,178.1c-7.7-7.7-12.5-18.3-12.5-30.1c0-11.7,4.8-22.4,12.5-30.1l-46.8-46.8
					c-19.3,19.3-31.3,45.8-31.8,75.2c0.6,0,1.1,0,1.7,0C170.4,146.3,197.6,158.5,217.2,178.1"/>
				<g class="st12">
					<g>
						<defs>
							<rect id="SVGID_5_" x="204.8" y="149.1" width="12.5" height="29"/>
						</defs>
						<clipPath id="SVGID_6_">
							<use xlink:href="#SVGID_5_"  style="overflow:visible;"/>
						</clipPath>
						<path class="st13" d="M204.8,149.1c0,0.4,0,0.7,0,1c0,8.3,2.4,16,6.5,22.5c2,1.8,4.1,3.6,6,5.5
							C209.8,170.7,205.1,160.4,204.8,149.1"/>
					</g>
				</g>
			</g>
			<g>
				<defs>
					<path id="SVGID_7_" d="M170.9,225.4l70.3,70.3c3.2-7.9,5.5-16.3,6.7-25c0.7-4.6,1-9.2,1.1-13.9c-0.6,0-1.1,0-1.7,0
						C217.5,256.7,190.5,244.7,170.9,225.4C170.9,225.3,170.9,225.4,170.9,225.4"/>
				</defs>
				<clipPath id="SVGID_8_">
					<use xlink:href="#SVGID_7_"  style="overflow:visible;"/>
				</clipPath>
				<defs>
					<filter id="Adobe_OpacityMaskFilter" filterUnits="userSpaceOnUse" x="135.7" y="186.2" width="148.5" height="148.5">
						<feColorMatrix  type="matrix" values="1 0 0 0 0  0 1 0 0 0  0 0 1 0 0  0 0 0 1 0"/>
					</filter>
				</defs>
				<mask maskUnits="userSpaceOnUse" x="135.7" y="186.2" width="148.5" height="148.5" id="SVGID_9_">
					<g class="st14">
						
							<radialGradient id="SVGID_10_" cx="-333.0375" cy="54.091" r="2.0935" gradientTransform="matrix(34.7203 34.7203 34.7203 -34.7203 9854.9531 13665.8574)" gradientUnits="userSpaceOnUse">
							<stop  offset="0" style="stop-color:#333333"/>
							<stop  offset="1" style="stop-color:#050505"/>
						</radialGradient>
						<polygon class="st15" points="209.9,186.2 284.2,260.5 209.9,334.7 135.7,260.5 						"/>
					</g>
				</mask>
				
					<radialGradient id="SVGID_11_" cx="-333.0375" cy="54.091" r="2.0935" gradientTransform="matrix(34.7203 34.7203 34.7203 -34.7203 9854.9531 13665.8574)" gradientUnits="userSpaceOnUse">
					<stop  offset="0" style="stop-color:#3F2723"/>
					<stop  offset="1" style="stop-color:#3F2723"/>
				</radialGradient>
				<polygon class="st16" points="209.9,186.2 284.2,260.5 209.9,334.7 135.7,260.5 				"/>
			</g>
			<g>
				<defs>
					<path id="SVGID_12_" d="M97.8,255C97.8,255,97.8,255,97.8,255c0-23.5,19.1-42.6,42.6-42.6c11.7,0,22.4,4.8,30.1,12.4
						c0,0,0,0,0,0c7.7,7.7,12.4,18.3,12.4,30.1c0,11.7-4.8,22.4-12.4,30.1c-7.7,7.7-18.4,12.5-30.1,12.5
						C116.9,297.6,97.8,278.5,97.8,255 M217.3,178.2C217.3,178.2,217.2,178.1,217.3,178.2c-7.7-7.7-12.5-18.4-12.5-30.1
						c0-11.7,4.8-22.4,12.5-30.1c7.7-7.7,18.4-12.5,30.1-12.5c23.5,0,42.6,19.1,42.6,42.6v0c0,23.5-19.1,42.5-42.6,42.5
						C235.6,190.6,224.9,185.8,217.3,178.2 M170.4,71.2c-19.3,19.3-31.3,45.8-31.8,75.2c-59.2,0.9-107,49.2-107,108.6c0,0,0,0,0,0
						c0,60,48.7,108.7,108.7,108.7c30,0,57.2-12.2,76.9-31.8c19.3-19.3,31.3-45.8,31.8-75.2c59.2-0.9,107-49.2,107-108.6v0
						c0-60-48.7-108.7-108.7-108.7C217.3,39.3,190.1,51.5,170.4,71.2"/>
				</defs>
				<clipPath id="SVGID_13_">
					<use xlink:href="#SVGID_12_"  style="overflow:visible;"/>
				</clipPath>
				<g class="st17">
					<g>
						<defs>
							<rect id="SVGID_14_" x="13.5" y="129.3" width="376.7" height="161.1"/>
						</defs>
						<clipPath id="SVGID_15_">
							<use xlink:href="#SVGID_14_"  style="overflow:visible;"/>
						</clipPath>
						<g class="st18">
							<defs>
								<rect id="SVGID_16_" x="13.5" y="129.3" width="376.7" height="161.1"/>
							</defs>
							<clipPath id="SVGID_17_">
								<use xlink:href="#SVGID_16_"  style="overflow:visible;"/>
							</clipPath>
							<g style="clip-path:url(#SVGID_17_);">
								
									<image style="overflow:visible;" width="180" height="77" xlink:href="B4AC832813EE8BC7.png"  transform="matrix(2.0926 0 0 2.0926 13.4701 129.3336)">
								</image>
							</g>
						</g>
					</g>
				</g>
				<path class="st19" d="M289.9,148.1c0,23.5-19.1,42.6-42.6,42.6c-11.7,0-22.4-4.8-30.1-12.5c0,0,0,0,0,0
					c-19.7-19.7-46.9-31.8-76.9-31.8c-0.6,0-1.1,0-1.7,0c-59.2,0.9-107,49.2-107,108.6h66.1c0-23.5,19.1-42.5,42.6-42.5
					c11.7,0,22.4,4.8,30.1,12.4c0,0,0,0,0,0c19.7,19.7,46.8,31.8,76.8,31.8c0.6,0,1.1,0,1.7,0c59.2-0.9,107-49.2,107-108.6H289.9z"
					/>
				<g class="st17">
					<g>
						<defs>
							<rect id="SVGID_18_" x="97.8" y="148.1" width="258.2" height="108.7"/>
						</defs>
						<clipPath id="SVGID_19_">
							<use xlink:href="#SVGID_18_"  style="overflow:visible;"/>
						</clipPath>
						<path class="st20" d="M97.8,255c0-23.5,19.1-42.5,42.6-42.5c11.7,0,22.4,4.8,30.1,12.4c0,0,0,0,0,0
							c19.7,19.7,46.8,31.8,76.8,31.8c0.6,0,1.1,0,1.7,0c59.2-0.9,107-49.2,107-108.6H356c-1.1,58.5-48.4,105.7-106.9,106.6
							c-0.6,0-1.1,0-1.7,0c-30,0-57.2-12.2-76.8-31.8c0,0,0,0,0,0c-7.7-7.7-18.3-12.5-30.1-12.5c-23.5,0-42.5,19-42.6,42.5"/>
					</g>
				</g>
				<path class="st21" d="M247.3,105.5c23.5,0,42.6,19.1,42.6,42.6v0H356v0c0-60-48.7-108.7-108.7-108.7c-30,0-57.2,12.2-76.9,31.8
					l46.8,46.8C224.9,110.2,235.6,105.5,247.3,105.5"/>
				<g class="st17">
					<g>
						<defs>
							<rect id="SVGID_20_" x="138.7" y="39.3" width="217.4" height="108.7"/>
						</defs>
						<clipPath id="SVGID_21_">
							<use xlink:href="#SVGID_20_"  style="overflow:visible;"/>
						</clipPath>
						<path class="st22" d="M170.4,73.3c19.7-19.7,46.9-31.8,76.9-31.8c59.4,0,107.5,47.5,108.6,106.6h0.1v0
							c0-60-48.7-108.7-108.7-108.7c-30,0-57.2,12.2-76.9,31.8c-19.3,19.3-31.3,45.8-31.8,75.2c0,0,0,0,0.1,0
							C139.7,117.8,151.6,92.1,170.4,73.3"/>
					</g>
				</g>
				<g class="st17">
					<g>
						<defs>
							<rect id="SVGID_22_" x="31.7" y="146.3" width="258.2" height="108.7"/>
						</defs>
						<clipPath id="SVGID_23_">
							<use xlink:href="#SVGID_22_"  style="overflow:visible;"/>
						</clipPath>
						<path class="st23" d="M289.9,148.1c0,23.5-19.1,42.6-42.6,42.6c-11.7,0-22.4-4.8-30.1-12.5c0,0,0,0,0,0
							c-19.7-19.7-46.9-31.8-76.9-31.8c-0.6,0-1.1,0-1.7,0c-59.2,0.9-107,49.2-107,108.6h0c1.1-58.5,48.4-105.6,107-106.5
							c0.6,0,1.1,0,1.7,0c30,0,57.2,12.2,76.9,31.8c0,0,0,0,0,0c7.7,7.7,18.3,12.5,30.1,12.5c23.5,0,42.6-19,42.6-42.5V148.1z"/>
					</g>
				</g>
				<g class="st17">
					<g>
						<defs>
							<rect id="SVGID_24_" x="204.7" y="116.9" width="12.5" height="30.1"/>
						</defs>
						<clipPath id="SVGID_25_">
							<use xlink:href="#SVGID_24_"  style="overflow:visible;"/>
						</clipPath>
						<path class="st24" d="M217.2,118c-1.5,1.5-2.8,3-4,4.6c-0.4,0.5-0.8,1.1-1.2,1.7c-1.4,2.1-2.7,4.4-3.7,6.8
							c-0.3,0.6-0.5,1.2-0.7,1.8c-0.3,0.6-0.5,1.3-0.7,1.9c-1.2,3.8-2,8-2.1,12.2c0-0.2,0-0.3,0-0.5v0c0-0.2,0-0.4,0-0.5
							c0-11.2,4.4-21.4,11.4-29L217.2,118z"/>
					</g>
				</g>
				<g class="st17">
					<g>
						<defs>
							<rect id="SVGID_26_" x="216.2" y="103.4" width="73.7" height="44.7"/>
						</defs>
						<clipPath id="SVGID_27_">
							<use xlink:href="#SVGID_26_"  style="overflow:visible;"/>
						</clipPath>
						<path class="st25" d="M289.9,146v2.1c0-23.5-19.1-42.6-42.6-42.6c-11.7,0-22.4,4.8-30.1,12.5l-1-1c0.3-0.4,0.7-0.7,1-1.1
							c7.7-7.7,18.4-12.5,30.1-12.5C270.8,103.4,289.9,122.4,289.9,146"/>
					</g>
				</g>
				<g class="st17">
					<g>
						<defs>
							<rect id="SVGID_28_" x="216.2" y="256.7" width="32.8" height="75.2"/>
						</defs>
						<clipPath id="SVGID_29_">
							<use xlink:href="#SVGID_28_"  style="overflow:visible;"/>
						</clipPath>
						<path class="st26" d="M249,256.7c0,2.7-0.2,5.5-0.4,8.2c-0.4,4.5-1.1,8.9-2,13.2c-0.6,2.5-1.2,5.1-1.9,7.5
							c0,0.1-0.1,0.2-0.1,0.4c-0.2,0.8-0.5,1.5-0.7,2.3c-1.1,3.3-2.3,6.6-3.7,9.8c-0.4,0.8-0.7,1.6-1,2.3c-1.4,3.2-3,6.2-4.8,9.2
							c-0.8,1.4-1.6,2.7-2.4,4c-0.1,0.2-0.3,0.4-0.4,0.6c-0.4,0.6-0.9,1.3-1.3,1.9c-1.9,2.8-4,5.6-6.2,8.2c-1,1.1-2,2.3-3,3.4
							c-0.7,0.8-1.4,1.5-2.1,2.3c-0.6,0.6-1.2,1.2-1.8,1.8l-1.1-1.1c0.4-0.4,0.7-0.7,1.1-1c0.6-0.6,1.2-1.2,1.8-1.8
							c0.7-0.7,1.4-1.5,2.1-2.3c1-1.2,2-2.3,3-3.4c2.2-2.6,4.3-5.4,6.2-8.2c0.4-0.7,0.9-1.3,1.3-2c0.1-0.2,0.3-0.3,0.4-0.5
							c0.8-1.3,1.6-2.7,2.4-4c1.7-3,3.3-6,4.8-9.2c0.3-0.8,0.7-1.6,1-2.4c1.4-3.2,2.6-6.4,3.7-9.8c0.2-0.7,0.5-1.5,0.7-2.3
							c0-0.1,0.1-0.2,0.1-0.4c0.7-2.5,1.4-5,1.9-7.5c0.9-4.3,1.6-8.7,2-13.2C248.8,260.8,248.9,258.7,249,256.7L249,256.7L249,256.7
							z"/>
					</g>
				</g>
				<path class="st27" d="M140.4,297.6c-23.5,0-42.6-19.1-42.6-42.6c0,0,0,0,0,0H31.7c0,0,0,0,0,0c0,60,48.7,108.7,108.7,108.7
					c30,0,57.2-12.2,76.9-31.8l-46.8-46.8C162.8,292.8,152.1,297.6,140.4,297.6"/>
				<g class="st17">
					<g>
						<defs>
							<rect id="SVGID_30_" x="31.7" y="255" width="185.6" height="108.7"/>
						</defs>
						<clipPath id="SVGID_31_">
							<use xlink:href="#SVGID_30_"  style="overflow:visible;"/>
						</clipPath>
						<path class="st28" d="M217.3,331.9c-19.7,19.7-46.9,31.8-76.9,31.8c-60,0-108.7-48.7-108.7-108.7v0h0
							c1.1,59.1,49.3,106.6,108.6,106.6c15,0,29.3-3,42.3-8.5c12.5-5.3,23.9-12.9,33.5-22.3L217.3,331.9z"/>
					</g>
				</g>
				<g class="st17">
					<g>
						<defs>
							<rect id="SVGID_32_" x="97.8" y="255" width="85.1" height="44.7"/>
						</defs>
						<clipPath id="SVGID_33_">
							<use xlink:href="#SVGID_32_"  style="overflow:visible;"/>
						</clipPath>
						<path class="st29" d="M97.8,257.1C97.8,257.1,97.8,257.1,97.8,257.1c0,23.5,19.1,42.6,42.6,42.6c11.8,0,22.4-4.8,30.1-12.5
							c7.7-7.7,12.4-18.3,12.4-30.1c0-0.4,0-0.7,0-1c-0.3,11.3-4.9,21.6-12.4,29c-7.7,7.7-18.4,12.5-30.1,12.5
							c-23.5,0-42.6-19.1-42.6-42.6c0,0,0,0,0,0V257.1z"/>
					</g>
				</g>
			</g>
		</g>
	</g>
</g>
<g id="Layer_6" class="st0">
	<g class="st1">
		<path class="st9" d="M435.8-152.6c0,3.8-3.1,6.9-6.9,6.9H376c-3.8,0-6.9-3.1-6.9-6.9v-52.9c0-3.8,3.1-6.9,6.9-6.9h52.9
			c3.8,0,6.9,3.1,6.9,6.9V-152.6z"/>
		<path class="st30" d="M428.9-145.3H376c-4.1,0-7.4-3.3-7.4-7.4v-52.9c0-4.1,3.3-7.4,7.4-7.4h52.9c4.1,0,7.4,3.3,7.4,7.4v52.9
			C436.3-148.6,432.9-145.3,428.9-145.3z M376-212c-3.6,0-6.5,2.9-6.5,6.5v52.9c0,3.6,2.9,6.5,6.5,6.5h52.9c3.6,0,6.5-2.9,6.5-6.5
			v-52.9c0-3.6-2.9-6.5-6.5-6.5H376z"/>
	</g>
	<g class="st1">
		<g>
			<path class="st31" d="M429.9-156c0,0.5-0.4,0.9-0.9,0.9h-29.3c-0.5,0-0.9-0.4-0.9-0.9v-8.7c0-0.5,0.4-0.9,0.9-0.9H429
				c0.5,0,0.9,0.4,0.9,0.9V-156z"/>
		</g>
		<path class="st31" d="M406.3-155.7c-0.1,0-0.1,0.1-0.1,0.1c-0.1,0.4,0.8,0.3,1,0.4c0.4,0.2,0.5,0.8,0.3,1.2
			c-0.4,0.6,0.1,0.7,0.6,0.5c0.3-0.1,0.6-0.3,0.9-0.5c0.3-0.3,0.6-0.6,0.9-0.8c0.4-0.2,0.8-0.4,1.2-0.4c0.2,0,0.4,0,0.6,0
			c0.2,0,0.3,0,0.4-0.2c0-0.2-0.3-0.4-0.5-0.5c-0.1,0-0.2,0-0.3,0c-0.2,0-0.3-0.1-0.5,0c-0.2,0.1-0.4,0.1-0.6,0.1
			c-0.5,0-1.1,0-1.6,0c-0.5,0-1,0-1.6,0c-0.1,0-0.1,0-0.2,0c0,0-0.1,0-0.1,0c-0.1,0-0.1,0-0.2,0
			C406.5-155.7,406.4-155.7,406.3-155.7z"/>
	</g>
	<g class="st1">
		<g>
			<path class="st32" d="M395.1-197.2c0,0.4-0.3,0.7-0.7,0.7h-18.6c-0.4,0-0.7-0.3-0.7-0.7v-9.1c0-0.4,0.3-0.7,0.7-0.7h18.6
				c0.4,0,0.7,0.3,0.7,0.7V-197.2z"/>
		</g>
		<path class="st32" d="M382.7-197.1c-0.1,0-0.1,0.1-0.1,0.1c-0.1,0.4,0.8,0.3,1,0.4c0.4,0.2,0.5,0.8,0.3,1.2
			c-0.3,0.6,0.1,0.7,0.6,0.5c0.3-0.1,0.6-0.3,0.9-0.5c0.3-0.3,0.6-0.6,0.9-0.8c0.4-0.2,0.8-0.4,1.2-0.4c0.2,0,0.4,0,0.6,0
			c0.2,0,0.3,0,0.4-0.2c0-0.3-0.3-0.4-0.5-0.5c-0.1,0-0.2,0-0.3,0c-0.2,0-0.3,0-0.5,0c-0.2,0.1-0.4,0.1-0.6,0.1c-0.5,0-1.1,0-1.6,0
			c-0.5,0-1,0-1.6,0c-0.1,0-0.1,0-0.2,0c0,0-0.1,0-0.1,0c-0.1,0-0.1,0-0.2,0C382.9-197.2,382.8-197.1,382.7-197.1z"/>
	</g>
	<g class="st1">
		<g>
			<path class="st33" d="M429.8-173.3c0,0.7-0.6,1.4-1.4,1.4h-28c-0.7,0-1.4-0.6-1.4-1.4v-32.4c0-0.7,0.6-1.4,1.4-1.4h28
				c0.7,0,1.4,0.6,1.4,1.4V-173.3z"/>
		</g>
		<path class="st33" d="M403.2-173c-0.1,0.1-0.2,0.2-0.2,0.3c-0.3,0.9,1.5,0.7,2,0.9c0.9,0.4,1,1.6,0.6,2.4
			c-0.7,1.3,0.2,1.5,1.3,1.1c0.7-0.2,1.3-0.6,1.8-1.1c0.6-0.5,1.2-1.2,1.9-1.7c0.7-0.4,1.6-0.7,2.4-0.8c0.4-0.1,0.8-0.1,1.3-0.1
			c0.3,0,0.7-0.1,0.7-0.4c0.1-0.5-0.7-0.9-1.1-1c-0.2,0-0.4-0.1-0.6-0.1c-0.4,0-0.7-0.1-1,0c-0.4,0.2-0.9,0.2-1.3,0.2
			c-1.1,0-2.2,0.1-3.3,0.1c-1.1,0-2.1,0-3.2,0.1c-0.1,0-0.3,0-0.4,0c-0.1,0-0.1-0.1-0.2-0.1c-0.1,0-0.2,0-0.3,0
			C403.4-173.1,403.3-173,403.2-173z"/>
	</g>
	<g class="st1">
		<g>
			<path class="st2" d="M395.8-155.8c0,0.7-0.6,1.3-1.3,1.3h-17.9c-0.7,0-1.3-0.6-1.3-1.3v-36.3c0-0.7,0.6-1.3,1.3-1.3h17.9
				c0.7,0,1.3,0.6,1.3,1.3V-155.8z"/>
		</g>
		<path class="st2" d="M378.2-155.5c-0.1,0.1-0.2,0.2-0.2,0.3c-0.3,0.9,1.5,0.7,2,0.9c0.9,0.4,1,1.6,0.6,2.4
			c-0.7,1.3,0.2,1.5,1.3,1.1c0.7-0.2,1.3-0.6,1.8-1.1c0.6-0.5,1.2-1.2,1.9-1.7c0.7-0.4,1.5-0.7,2.4-0.9c0.4-0.1,0.8-0.1,1.2-0.1
			c0.3,0,0.7-0.1,0.7-0.4c0.1-0.5-0.7-0.9-1.1-1c-0.2-0.1-0.4-0.1-0.6-0.1c-0.4,0-0.7-0.1-1,0c-0.4,0.2-0.9,0.2-1.3,0.2
			c-1.1,0-2.2,0-3.3,0.1c-1.1,0-2.1,0-3.2,0c-0.1,0-0.3,0-0.4,0c-0.1,0-0.1-0.1-0.2-0.1c-0.1,0-0.2,0-0.3,0
			C378.4-155.7,378.3-155.6,378.2-155.5z"/>
	</g>
</g>
<g id="Layer_2_copy_2" class="st0">
	<g class="st1">
		<g>
			<g>
				<g>
					<path class="st34" d="M443.6-226.8c0-1.1-0.9-2-2-2h-81.3c-1.1,0-2,0.9-2,2v39.3c0,1.1,0.9,2,2,2h81.3c1.1,0,2-0.9,2-2V-226.8z
						"/>
				</g>
				<path class="st34" d="M377.7-187.7c-0.2,0.1-0.3,0.3-0.4,0.5c-0.5,1.5,2.6,1.2,3.4,1.5c1.6,0.7,1.8,2.7,1,4.1
					c-1.2,2.1,0.3,2.6,2.2,1.9c1.1-0.4,2.2-1.1,3.1-1.8c1.1-0.9,2-2.1,3.2-2.8c1.3-0.8,2.7-1.2,4.1-1.4c0.7-0.1,1.4-0.1,2.1-0.1
					c0.5,0,1.2-0.1,1.3-0.7c0.2-0.9-1.2-1.5-1.9-1.7c-0.3-0.1-0.7-0.1-1.1-0.2c-0.6-0.1-1.1-0.2-1.7,0.1c-0.7,0.3-1.5,0.3-2.2,0.3
					c-1.9,0-3.7,0.1-5.6,0.1c-1.8,0-3.6,0.1-5.4,0.1c-0.2,0-0.5,0.1-0.7,0c-0.1,0-0.2-0.1-0.3-0.1c-0.2,0-0.3-0.1-0.5,0
					C378.1-188,377.8-187.9,377.7-187.7z"/>
			</g>
			<g>
				<g>
					<rect x="363.9" y="-221.8" class="st36" width="80" height="27"/>
					<text transform="matrix(1.0074 0 0 1 363.9401 -209.0166)" class="st9" style="font-family:'Bevan'; font-size:18.059px;">KUALA</text>
				</g>
				<text transform="matrix(1.0074 0 0 1 364.0299 -193.0728)" class="st9" style="font-family:'Bevan'; font-size:14.1446px;">LUMPUR</text>
			</g>
		</g>
		<g>
			<g>
				<g>
					<path class="st3" d="M359.7-151.9c-0.4,0-0.8,0.1-1,0.4c-0.2,0.3-0.4,0.7-0.4,1.2c0,0.5,0.1,0.9,0.4,1.2c0.2,0.3,0.6,0.4,1,0.4
						c0.3,0,0.6-0.1,0.9-0.1v0.4c-0.3,0.1-0.6,0.2-1,0.2c-0.6,0-1-0.2-1.3-0.5c-0.3-0.3-0.5-0.8-0.5-1.5c0-0.4,0.1-0.8,0.2-1.1
						c0.1-0.3,0.4-0.5,0.6-0.7c0.3-0.2,0.6-0.2,1-0.2c0.4,0,0.8,0.1,1.1,0.2l-0.2,0.4C360.2-151.8,360-151.9,359.7-151.9z"/>
					<path class="st3" d="M365-150.3c0,0.6-0.2,1.1-0.5,1.5c-0.3,0.4-0.7,0.5-1.3,0.5c-0.6,0-1-0.2-1.3-0.5
						c-0.3-0.3-0.5-0.8-0.5-1.5c0-0.6,0.2-1.1,0.5-1.5c0.3-0.3,0.7-0.5,1.3-0.5c0.6,0,1,0.2,1.3,0.5
						C364.9-151.4,365-150.9,365-150.3z M362-150.3c0,0.5,0.1,0.9,0.3,1.2c0.2,0.3,0.5,0.4,1,0.4c0.4,0,0.7-0.1,1-0.4
						c0.2-0.3,0.3-0.7,0.3-1.2c0-0.5-0.1-0.9-0.3-1.2c-0.2-0.3-0.5-0.4-1-0.4c-0.4,0-0.8,0.1-1,0.4C362.1-151.2,362-150.8,362-150.3
						z"/>
					<path class="st3" d="M369.2-148.3h-0.5l-2.1-3.3h0c0,0.4,0,0.7,0,1.1v2.2h-0.4v-3.9h0.5l2.1,3.3h0c0,0,0-0.2,0-0.5
						c0-0.3,0-0.4,0-0.6v-2.2h0.4V-148.3z"/>
					<path class="st3" d="M373.5-148.3H373l-2.1-3.3h0c0,0.4,0,0.7,0,1.1v2.2h-0.4v-3.9h0.5l2.1,3.3h0c0,0,0-0.2,0-0.5
						c0-0.3,0-0.4,0-0.6v-2.2h0.4V-148.3z"/>
					<path class="st3" d="M377-148.3h-2.1v-3.9h2.1v0.4h-1.7v1.3h1.6v0.4h-1.6v1.4h1.7V-148.3z"/>
					<path class="st3" d="M379.7-151.9c-0.4,0-0.8,0.1-1,0.4c-0.2,0.3-0.4,0.7-0.4,1.2c0,0.5,0.1,0.9,0.4,1.2c0.2,0.3,0.6,0.4,1,0.4
						c0.3,0,0.6-0.1,0.9-0.1v0.4c-0.3,0.1-0.6,0.2-1,0.2c-0.6,0-1-0.2-1.3-0.5c-0.3-0.3-0.5-0.8-0.5-1.5c0-0.4,0.1-0.8,0.2-1.1
						c0.1-0.3,0.4-0.5,0.6-0.7c0.3-0.2,0.6-0.2,1-0.2c0.4,0,0.8,0.1,1.1,0.2l-0.2,0.4C380.3-151.8,380-151.9,379.7-151.9z"/>
					<path class="st3" d="M382.9-148.3h-0.4v-3.5h-1.2v-0.4h2.9v0.4h-1.2V-148.3z"/>
				</g>
				<g>
					<path class="st3" d="M392.6-148.3v-3.9h0.4v3.9H392.6z"/>
					<path class="st3" d="M397.3-148.3h-0.5l-2.1-3.3h0c0,0.4,0,0.7,0,1.1v2.2h-0.4v-3.9h0.5l2.1,3.3h0c0,0,0-0.2,0-0.5
						c0-0.3,0-0.4,0-0.6v-2.2h0.4V-148.3z"/>
					<path class="st3" d="M399.1-148.3h-0.4v-3.9h2.1v0.4h-1.7v1.4h1.6v0.4h-1.6V-148.3z"/>
					<path class="st3" d="M405.1-150.3c0,0.6-0.2,1.1-0.5,1.5c-0.3,0.4-0.7,0.5-1.3,0.5c-0.6,0-1-0.2-1.3-0.5
						c-0.3-0.3-0.5-0.8-0.5-1.5c0-0.6,0.2-1.1,0.5-1.5c0.3-0.3,0.7-0.5,1.3-0.5c0.6,0,1,0.2,1.3,0.5
						C404.9-151.4,405.1-150.9,405.1-150.3z M402-150.3c0,0.5,0.1,0.9,0.3,1.2c0.2,0.3,0.5,0.4,1,0.4c0.4,0,0.7-0.1,1-0.4
						c0.2-0.3,0.3-0.7,0.3-1.2c0-0.5-0.1-0.9-0.3-1.2c-0.2-0.3-0.5-0.4-1-0.4c-0.4,0-0.8,0.1-1,0.4C402.1-151.2,402-150.8,402-150.3
						z"/>
					<path class="st3" d="M406.6-149.9v1.6h-0.4v-3.9h1.1c0.5,0,0.8,0.1,1,0.3c0.2,0.2,0.3,0.5,0.3,0.8c0,0.5-0.3,0.9-0.8,1l1,1.8
						h-0.5l-0.9-1.6H406.6z M406.6-150.3h0.6c0.3,0,0.5-0.1,0.7-0.2c0.1-0.1,0.2-0.3,0.2-0.6c0-0.3-0.1-0.4-0.2-0.6
						c-0.2-0.1-0.4-0.2-0.7-0.2h-0.6V-150.3z"/>
					<path class="st3" d="M411.5-148.3l-1.3-3.5h0c0,0.3,0,0.6,0,1v2.5h-0.4v-3.9h0.7l1.2,3.2h0l1.2-3.2h0.7v3.9h-0.4v-2.5
						c0-0.3,0-0.6,0-0.9h0l-1.3,3.5H411.5z"/>
				</g>
				<g>
					<path class="st3" d="M423-148.3v-3.9h0.4v3.9H423z"/>
					<path class="st3" d="M427.8-148.3h-0.5l-2.1-3.3h0c0,0.4,0,0.7,0,1.1v2.2h-0.4v-3.9h0.5l2.1,3.3h0c0,0,0-0.2,0-0.5
						c0-0.3,0-0.4,0-0.6v-2.2h0.4V-148.3z"/>
					<path class="st3" d="M431.3-149.4c0,0.3-0.1,0.6-0.4,0.8c-0.2,0.2-0.6,0.3-1,0.3c-0.5,0-0.8-0.1-1.1-0.2v-0.4
						c0.2,0.1,0.3,0.1,0.5,0.2c0.2,0,0.4,0.1,0.6,0.1c0.3,0,0.5-0.1,0.7-0.2c0.2-0.1,0.2-0.3,0.2-0.5c0-0.1,0-0.2-0.1-0.3
						c-0.1-0.1-0.1-0.2-0.3-0.2c-0.1-0.1-0.3-0.2-0.6-0.2c-0.4-0.1-0.6-0.3-0.8-0.5c-0.2-0.2-0.2-0.4-0.2-0.7c0-0.3,0.1-0.5,0.3-0.7
						c0.2-0.2,0.5-0.3,0.9-0.3c0.4,0,0.7,0.1,1.1,0.2l-0.1,0.4c-0.3-0.1-0.6-0.2-0.9-0.2c-0.2,0-0.4,0.1-0.6,0.2
						c-0.1,0.1-0.2,0.2-0.2,0.4c0,0.1,0,0.2,0.1,0.3c0,0.1,0.1,0.2,0.2,0.2c0.1,0.1,0.3,0.2,0.5,0.2c0.4,0.1,0.7,0.3,0.8,0.5
						C431.2-149.8,431.3-149.6,431.3-149.4z"/>
					<path class="st3" d="M434.8-151.1c0,0.4-0.1,0.7-0.4,0.9c-0.3,0.2-0.6,0.3-1.1,0.3h-0.5v1.5h-0.4v-3.9h1
						C434.3-152.2,434.8-151.8,434.8-151.1z M432.8-150.2h0.4c0.4,0,0.7-0.1,0.9-0.2c0.2-0.1,0.3-0.3,0.3-0.6c0-0.3-0.1-0.5-0.2-0.6
						c-0.2-0.1-0.4-0.2-0.8-0.2h-0.5V-150.2z"/>
					<path class="st3" d="M435.9-148.3v-3.9h0.4v3.9H435.9z"/>
					<path class="st3" d="M438.1-149.9v1.6h-0.4v-3.9h1.1c0.5,0,0.8,0.1,1,0.3c0.2,0.2,0.3,0.5,0.3,0.8c0,0.5-0.3,0.9-0.8,1l1,1.8
						h-0.5l-0.9-1.6H438.1z M438.1-150.3h0.6c0.3,0,0.5-0.1,0.7-0.2c0.1-0.1,0.2-0.3,0.2-0.6c0-0.3-0.1-0.4-0.2-0.6
						c-0.2-0.1-0.4-0.2-0.7-0.2h-0.6V-150.3z"/>
					<path class="st3" d="M443.4-148.3h-2.1v-3.9h2.1v0.4h-1.7v1.3h1.6v0.4h-1.6v1.4h1.7V-148.3z"/>
				</g>
				<path class="st3" d="M388.2-150.2c0,0.3-0.2,0.5-0.5,0.5c-0.3,0-0.5-0.2-0.5-0.5c0-0.3,0.2-0.5,0.5-0.5
					C387.9-150.7,388.2-150.5,388.2-150.2z"/>
				<path class="st3" d="M418.6-150.2c0,0.3-0.2,0.5-0.5,0.5c-0.3,0-0.5-0.2-0.5-0.5c0-0.3,0.2-0.5,0.5-0.5
					C418.4-150.7,418.6-150.5,418.6-150.2z"/>
			</g>
			<g>
				<g>
					<path class="st3" d="M394.5-170.6h8.7v10.9c-2.4,0.8-5,1.2-7.8,1.2c-3.1,0-5.5-0.9-7.2-2.7c-1.7-1.8-2.6-4.4-2.6-7.7
						c0-3.3,0.9-5.8,2.8-7.6c1.9-1.8,4.5-2.7,7.8-2.7c1.3,0,2.5,0.1,3.6,0.4c1.1,0.2,2.1,0.5,3,0.9l-1.7,4.3
						c-1.5-0.7-3.1-1.1-4.8-1.1c-1.6,0-2.8,0.5-3.7,1.6c-0.9,1-1.3,2.5-1.3,4.4c0,1.9,0.4,3.3,1.2,4.3c0.8,1,1.9,1.5,3.4,1.5
						c0.8,0,1.6-0.1,2.2-0.2v-3.2h-3.6V-170.6z"/>
					<path class="st3" d="M407.3-179h7.1c2.7,0,4.8,0.4,6.1,1.2c1.3,0.8,2,2.1,2,3.8c0,1.1-0.3,2.1-0.9,2.9
						c-0.6,0.8-1.3,1.3-2.3,1.5v0.1c1.3,0.3,2.2,0.9,2.7,1.7c0.6,0.8,0.8,1.8,0.8,3c0,1.8-0.7,3.3-2.1,4.3c-1.4,1.1-3.3,1.6-5.6,1.6
						h-7.9V-179z M412.8-171.2h1.6c0.8,0,1.4-0.2,1.8-0.5c0.4-0.3,0.6-0.8,0.6-1.4c0-1.1-0.9-1.7-2.6-1.7h-1.5V-171.2z M412.8-167.2
						v4.2h1.9c1.7,0,2.6-0.7,2.6-2.2c0-0.7-0.2-1.2-0.7-1.5c-0.5-0.4-1.1-0.5-2-0.5H412.8z"/>
					<path class="st3" d="M434.5-170.6h8.7v10.9c-2.4,0.8-5,1.2-7.8,1.2c-3.1,0-5.5-0.9-7.2-2.7c-1.7-1.8-2.6-4.4-2.6-7.7
						c0-3.3,0.9-5.8,2.8-7.6c1.9-1.8,4.5-2.7,7.8-2.7c1.3,0,2.5,0.1,3.6,0.4c1.1,0.2,2.1,0.5,3,0.9l-1.7,4.3
						c-1.5-0.7-3.1-1.1-4.8-1.1c-1.6,0-2.8,0.5-3.7,1.6c-0.9,1-1.3,2.5-1.3,4.4c0,1.9,0.4,3.3,1.2,4.3c0.8,1,1.9,1.5,3.4,1.5
						c0.8,0,1.6-0.1,2.2-0.2v-3.2h-3.6V-170.6z"/>
				</g>
			</g>
			<g>
				<path class="st4" d="M365.4-161.8L365.4-161.8c0.8,0,1.7-0.3,2.3-0.9l2.9,2.9l0,0c2.9-2.9,2.9-7.6,0-10.5l-2.9,2.9l0,0
					c1.3,1.3,1.3,3.3,0,4.6C367.1-162.1,366.3-161.8,365.4-161.8z"/>
				<g>
					<defs>
						<path id="SVGID_34_" d="M365.4-157.7l0-4.2c0.8,0,1.7-0.3,2.3-1l0,0c1.3-1.3,1.3-3.3,0-4.6l0,0l0,0l2.9-2.9
							c2.9,2.9,2.9,7.6,0,10.5l0,0C369.2-158.4,367.3-157.7,365.4-157.7L365.4-157.7z"/>
					</defs>
					<clipPath id="SVGID_35_">
						<use xlink:href="#SVGID_34_"  style="overflow:visible;"/>
					</clipPath>
					<path class="st35" d="M380.8-169.5l-4-1.3c-0.3,0.8-0.8,1.5-1.6,1.9l0,0c-1.6,0.8-3.6,0.2-4.4-1.4l0,0h0l-3.7,1.9
						c2.2,4.3,6,5.3,10,3.3l0,0C378.9-166.1,380.2-167.7,380.8-169.5L380.8-169.5z"/>
				</g>
				<path class="st6" d="M378.2-177.9c-2.9-2.9-7.6-2.9-10.5,0l0,0l2.9,2.9c1.3-1.3,3.3-1.3,4.6,0l0,0c0.6,0.6,1,1.5,1,2.3l0,0l0,0
					h4.2C380.4-174.5,379.7-176.5,378.2-177.9L378.2-177.9z"/>
				<path class="st7" d="M360.2-159.8c2.9,2.9,7.6,2.9,10.5,0l0,0l-2.9-2.9c-1.3,1.3-3.3,1.3-4.6,0l0,0c-0.6-0.6-1-1.5-1-2.3l0,0
					l0,0H358C358-163.2,358.7-161.3,360.2-159.8L360.2-159.8z"/>
				<path class="st8" d="M376.3-172.6c0,0.8-0.3,1.7-1,2.3c-1.3,1.3-3.3,1.3-4.6,0l0,0c-2.9-2.9-7.6-2.9-10.5,0
					c-1.5,1.4-2.2,3.3-2.2,5.2l4.2,0c0-0.8,0.3-1.7,1-2.3c1.3-1.3,3.3-1.3,4.6,0l0,0l0,0c2.9,2.9,7.6,2.9,10.5,0
					c1.5-1.4,2.2-3.3,2.2-5.2L376.3-172.6z"/>
				<path class="st4" d="M370.7-170.3L370.7-170.3c-1.3-1.3-1.3-3.3,0-4.6l-2.9-2.9c-1.5,1.5-2.2,3.4-2.2,5.4
					C367.4-172.5,369.3-171.8,370.7-170.3z"/>
			</g>
		</g>
	</g>
</g>
<g id="Layer_5" class="st0">
</g>
<g id="Layer_7">
	<g>
		<g id="XMLID_50_">
			<g id="XMLID_72_">
				<path class="st36" d="M234.4,190.6L135.7,20H3.8l108.9,188.2L3.8,396.4h131.9l98.6-170.6C240.7,214.9,240.7,201.5,234.4,190.6z"
					/>
				<polygon id="XMLID_80_" class="st37" points="177.8,320.8 146.5,266.7 71.5,396.4 135.7,396.4 178.6,322.2 				"/>
				<path class="st36" d="M234.4,190.6L135.7,20H3.8l108.9,188.2L3.8,396.4h131.9l98.6-170.6C240.7,214.9,240.7,201.5,234.4,190.6z"
					/>
				<polygon class="st33" points="112.7,208.2 146.5,266.7 71.5,396.4 3.8,396.4 				"/>
				<path class="st36" d="M234.4,190.6L135.7,20H3.8l108.9,188.2L3.8,396.4h131.9l98.6-170.6C240.7,214.9,240.7,201.5,234.4,190.6z"
					/>
				<polygon class="st38" points="135.7,393.5 73.2,393.5 71.5,396.4 135.7,396.4 178.6,322.2 177.8,320.8 				"/>
				<path class="st36" d="M234.4,190.6L135.7,20H3.8l108.9,188.2L3.8,396.4h131.9l98.6-170.6C240.7,214.9,240.7,201.5,234.4,190.6z"
					/>
				<polygon class="st39" points="5.5,393.5 3.8,396.4 71.5,396.4 73.2,393.5 				"/>
				<path class="st36" d="M234.4,190.6L135.7,20H3.8l108.9,188.2L3.8,396.4h131.9l98.6-170.6C240.7,214.9,240.7,201.5,234.4,190.6z"
					/>
				<polygon class="st40" points="3.8,396.4 5.5,396.4 113.6,209.7 112.7,208.2 				"/>
				<path class="st36" d="M234.4,190.6L135.7,20H3.8l108.9,188.2L3.8,396.4h131.9l98.6-170.6C240.7,214.9,240.7,201.5,234.4,190.6z"
					/>
				
					<radialGradient id="XMLID_2_" cx="178.1588" cy="127.0618" r="130.1702" gradientTransform="matrix(1 0 0 1 0 194)" gradientUnits="userSpaceOnUse">
					<stop  offset="0" style="stop-color:#BE3B26;stop-opacity:0.2"/>
					<stop  offset="1" style="stop-color:#BE3B26;stop-opacity:2.000000e-02"/>
				</radialGradient>
				<polygon id="XMLID_79_" class="st41" points="178.6,322.2 178.6,322.2 146.5,266.7 138.6,280.3 				"/>
				<path class="st36" d="M234.4,190.6L135.7,20H3.8l108.9,188.2L3.8,396.4h131.9l98.6-170.6C240.7,214.9,240.7,201.5,234.4,190.6z"
					/>
				
					<radialGradient id="XMLID_3_" cx="177.7892" cy="127.8849" r="131.2269" gradientTransform="matrix(1 0 0 1 0 194)" gradientUnits="userSpaceOnUse">
					<stop  offset="0" style="stop-color:#273238;stop-opacity:0.2"/>
					<stop  offset="1" style="stop-color:#273238;stop-opacity:2.000000e-02"/>
				</radialGradient>
				<polygon id="XMLID_78_" class="st42" points="138.6,280.3 146.5,266.7 112.7,208.2 96.6,236.1 				"/>
				<path class="st36" d="M234.4,190.6L135.7,20H3.8l108.9,188.2L3.8,396.4h131.9l98.6-170.6C240.7,214.9,240.7,201.5,234.4,190.6z"
					/>
				<g id="XMLID_75_">
					<g id="XMLID_76_">
						<polygon id="XMLID_77_" class="st31" points="71.5,20 3.8,20 178.6,322.2 212.4,263.8 212.5,263.7 						"/>
					</g>
				</g>
				<path class="st36" d="M234.4,190.6L135.7,20H3.8l108.9,188.2L3.8,396.4h131.9l98.6-170.6C240.7,214.9,240.7,201.5,234.4,190.6z"
					/>
				<path class="st43" d="M234.4,225.9c6.3-10.9,6.3-24.4,0-35.3L135.7,20H71.5l141,243.7L234.4,225.9z"/>
				<path class="st36" d="M234.4,190.6L135.7,20H3.8l108.9,188.2L3.8,396.4h131.9l98.6-170.6C240.7,214.9,240.7,201.5,234.4,190.6z"
					/>
				<polygon class="st44" points="212.5,263.7 211.6,262.3 178.6,319.3 5.5,20 3.8,20 178.6,322.2 212.4,263.8 				"/>
				<path class="st36" d="M234.4,190.6L135.7,20H3.8l108.9,188.2L3.8,396.4h131.9l98.6-170.6C240.7,214.9,240.7,201.5,234.4,190.6z"
					/>
				<path class="st40" d="M135.7,22.9l98.6,170.6c2.9,5,4.4,10.6,4.6,16.2c0.3-6.6-1.2-13.2-4.6-19.1L135.7,20H3.8l1.7,2.9H135.7z"
					/>
				<path class="st36" d="M234.4,190.6L135.7,20H3.8l108.9,188.2L3.8,396.4h131.9l98.6-170.6C240.7,214.9,240.7,201.5,234.4,190.6z"
					/>
				<path id="XMLID_74_" class="st45" d="M212.5,263.7l21.9-37.9c3.4-5.9,4.9-12.5,4.6-19.1c-0.2,5.6-1.7,11.1-4.6,16.2l-22.8,39.4
					L212.5,263.7z"/>
				<path class="st36" d="M234.4,190.6L135.7,20H3.8l108.9,188.2L3.8,396.4h131.9l98.6-170.6C240.7,214.9,240.7,201.5,234.4,190.6z"
					/>
				
					<radialGradient id="XMLID_4_" cx="0.8972" cy="-171.0592" r="395.0978" gradientTransform="matrix(1 0 0 1 0 194)" gradientUnits="userSpaceOnUse">
					<stop  offset="0" style="stop-color:#FFFFFF;stop-opacity:0.1"/>
					<stop  offset="1" style="stop-color:#FFFFFF;stop-opacity:0"/>
				</radialGradient>
				<path id="XMLID_73_" class="st46" d="M234.4,190.6L135.7,20H3.8l108.9,188.2L3.8,396.4h131.9l98.6-170.6
					C240.7,214.9,240.7,201.5,234.4,190.6z"/>
			</g>
		</g>
	</g>
	<g id="XMLID_8_" class="st47">
		<path id="XMLID_104_" class="st48" d="M716.9,52.9h90C898.5,52.9,956,113.7,956,199c0,85.7-57.6,146.2-149.2,146.2h-90V52.9
			L716.9,52.9z M808.4,300.9c63.8,0,103.3-35.4,103.3-101.9c0-66.1-39.5-101.9-103.3-101.9h-47.3v203.7H808.4z"/>
		<rect id="XMLID_103_" x="378.7" y="45.2" class="st36" width="903.5" height="318.9"/>
		<path id="XMLID_102_" class="st48" d="M679.9,185.8H539.7v43.4h98.8c-3.3,22.1-10.9,39.4-22.4,50.9
			c-14.6,14.6-37.5,30.8-77.7,30.8c-61.9,0-110.3-49.9-110.3-111.8S476.5,87.3,538.4,87.3c33.4,0,57.8,13.1,75.8,30l29.6-29.6
			c-25.1-24-58.5-42.4-105.4-42.4c-84.8,0-156.1,69-156.1,153.8c0,84.8,71.3,153.8,156.1,153.8c45.8,0,80.3-15,107.3-43.1
			c27.8-27.8,36.4-66.8,36.4-98.3C682.2,201.7,681.4,193.3,679.9,185.8z"/>
		<path id="XMLID_86_" class="st48" d="M1282.2,185.8H1142v43.4h98.8c-3.3,22.1-10.9,39.4-22.4,50.9c-14.6,14.6-37.5,30.8-77.7,30.8
			c-61.9,0-110.3-49.9-110.3-111.8s48.4-111.8,110.3-111.8c33.4,0,57.8,13.1,75.8,30l29.6-29.6c-25.1-24-58.5-42.4-105.4-42.4
			c-84.8,0-156.1,69-156.1,153.8c0,84.8,71.3,153.8,156.1,153.8c45.8,0,80.3-15,107.3-43.1c27.8-27.8,36.4-66.8,36.4-98.3
			C1284.5,201.7,1283.7,193.3,1282.2,185.8z"/>
	</g>
</g>
</svg>
