<?xml version="1.0" encoding="utf-8"?>
<!-- Generator: Adobe Illustrator 19.0.0, SVG Export Plug-In . SVG Version: 6.00 Build 0)  -->
<svg version="1.1" id="Layer_1" xmlns="http://www.w3.org/2000/svg" xmlns:xlink="http://www.w3.org/1999/xlink" x="0px" y="0px"
	 viewBox="149.7 288.7 589.1 262.4" style="enable-background:new 149.7 288.7 589.1 262.4;" xml:space="preserve">
<style type="text/css">
	.st0{opacity:0.5;fill:#D0DCF7;enable-background:new    ;}
	.st1{fill:#D0DCF7;}
	.st2{fill:#616161;}
	.st3{fill:#E2A86F;}
	.st4{fill:#4162F1;}
	.st5{fill:#20C0F0;}
	.st6{fill:#4878EF;}
	.st7{fill:#F75B37;}
	.st8{fill:#C68855;}
	.st9{fill:#D69A5F;}
	.st10{fill:#00BFA5;}
	.st11{fill:#6D98FD;}
	.st12{fill:#C4834D;}
	.st13{fill:#E0E0E0;}
	.st14{fill:#BDBDBD;}
	.st15{fill:none;stroke:#C17B42;stroke-linecap:round;stroke-miterlimit:10;}
	.st16{fill:#E8B180;}
	.st17{fill:#3B60E2;}
	.st18{fill:#DB9E67;}
	.st19{fill:#FFFFFF;}
	.st20{fill:#D8A877;}
	.st21{fill:#E2B583;}
	.st22{fill:#99B7FE;}
</style>
<path class="st0" d="M417.5,487.5c0.6-3.5,1-7.1,1-10.7v-30.2c0-33.4-27.3-60.6-60.6-60.6H210.3c-33.4,0-60.6,27.3-60.6,60.6v30.2
	c0,3.7,0.3,7.2,1,10.7H417.5z"/>
<path class="st0" d="M738.7,487.4h-92.6c-15.1,0-27.4-12.3-27.4-27.4v-46.8c0-15.1,12.3-27.4,27.4-27.4h65.3
	c15.1,0,27.4,12.3,27.4,27.4v74.2H738.7z"/>
<path id="XMLID_77_" class="st0" d="M597.3,522.3c1.2,1.5-2.2,2.9-8.2,3.7c10.8,7.7,17.7,19.1,17.7,19.1c2.5,3.3-3.1,6-12.4,6
	s-19-2.7-21.5-6c0,0-10.3-11.4-11.1-19.1c-7.2-0.8-12.6-2.1-13.7-3.7c0,0-4.6-11.9,15.7-11.9c20.2,0,33.5,11.7,33.5,11.7h-0.1
	C597.2,522.2,597.3,522.2,597.3,522.3z"/>
<polyline class="st1" points="332.6,437.3 344.3,487.5 321.8,487.5 321.8,431.4 "/>
<polyline class="st1" points="695.2,437.3 706.9,487.5 684.4,487.5 684.4,431.4 "/>
<rect x="602.4" y="387.7" class="st2" width="14.7" height="30.3"/>
<path class="st2" d="M619.5,365.6v65.2c0,13.4,10.8,24.2,24.2,24.2l0,0c13.4,0,24.2-10.8,24.2-24.2v-59.1L619.5,365.6z"/>
<path class="st3" d="M648.5,348.9l-22.5-2.3c-3.1-1.5-6.5-2.3-10.1-2.3h-5.6c-1.5,0-2.9,0.1-4.2,0.3l-17.8-1.8l2.3-1.4
	c0,0-2.7-0.2-3.1,1.3l-0.4,0.9l-0.2,0.9c-1.3,5-2.6,14,1.4,23.9l-0.1,0.2c-1.4,4.6-1.6,9.5-0.2,14.1c0,0.1,0.1,0.2,0.1,0.3
	c10.3,2.4,13.6-5.8,13.7-6.1c0.3-0.9,1.3-1.3,2.1-1c0.9,0.3,1.3,1.3,1,2.1c0,0.1-3.4,8.8-13.1,8.8c-0.7,0-1.4,0-2.2-0.1
	c3,5.9,8.4,9.9,15.9,10.3l0,0l1.7,0.1c0.3,0,0.6,0.1,0.9,0.1h5.6v6.6v3.4V418h16l0,0h17.2v-30.2v-3.5l-3.4-4.4l3.8-1.2L648.5,348.9z
	"/>
<path class="st3" d="M592.4,373h-8.7c-1.9,0-2.9-2.2-1.7-3.6l4.3-5.4l2-3.3"/>
<path id="XMLID_76_" class="st4" d="M617.6,349.9l4.3-1.8l-3.7,5.4C618.2,353.6,617.6,351.8,617.6,349.9z"/>
<path class="st5" d="M695.6,439.9c0-15.7-12-28.6-26.7-28.6h-14.6h-0.7h-44.8c-1.6,0-3.2,0.1-4.7,0.2h-4.4c-18,0-32.8,15.8-32.8,35
	c0,0,0.1,40.4,0.1,41.2h14.6c0,0.2,0,0.4,0,0.4h105.6c0-0.7,0.1-1.5,0.1-2.3v-37.1h8.4L695.6,439.9L695.6,439.9z"/>
<circle class="st6" cx="583.6" cy="439.6" r="3"/>
<circle class="st6" cx="605.7" cy="421" r="3"/>
<circle class="st6" cx="650.9" cy="421" r="3"/>
<circle class="st6" cx="628.4" cy="439.6" r="3"/>
<circle class="st6" cx="673.3" cy="439.6" r="3"/>
<circle class="st6" cx="650.9" cy="462.7" r="3"/>
<path class="st3" d="M577.5,448.6v39.1H567c0-0.6-0.1-30.9-0.1-39.1H577.5z"/>
<g>
	<circle class="st7" cx="602.9" cy="462.5" r="3"/>
</g>
<circle class="st2" cx="596.3" cy="363.6" r="1.8"/>
<ellipse id="XMLID_75_" transform="matrix(0.232 -0.9727 0.9727 0.232 122.6262 888.8712)" class="st8" cx="624.2" cy="366.8" rx="7.5" ry="6.5"/>
<circle class="st3" cx="630" cy="411.3" r="16.4"/>
<path class="st3" d="M672.2,488.1h10.9c5.9,0,10.6-4.8,10.6-10.6v-28.8h-21.5V488.1z"/>
<path class="st8" d="M606.7,396.9"/>
<polygon class="st9" points="613.6,397.1 620.8,397.1 613.6,401.5 "/>
<path id="XMLID_73_" class="st4" d="M617.4,347.9l4.3-1.8l-3.7,5.4C618.1,351.6,617.5,349.9,617.4,347.9z"/>
<g>
	<circle class="st7" cx="628.4" cy="481.1" r="3"/>
	<circle class="st7" cx="606" cy="462.7" r="3"/>
</g>
<g>
	<path class="st2" d="M678.3,460.7c0.2,0.1,0.4,0.2,0.4,0.2h-0.6L678.3,460.7z"/>
</g>
<path class="st8" d="M372.7,372.9v30.7H353v23.1h19.7h8.6h0.2l0,0c6.4-0.1,11.5-5.3,11.5-11.7v-42h-20.3V372.9z"/>
<path class="st10" d="M353,403.6h-55l0,0h-30.4l0,0h-16.4c-15.8,0-28.7,13.8-28.7,30.7v9.5h9v39.9c0,0.8-1.3,2.9-1.2,3.7l97.8,0.3
	v-50.2h25v-33.9H353z"/>
<path class="st8" d="M308.4,350.4l8-4.7c1.7-1,1.5-3.6-0.4-4.3l-6.9-2.6l-3.6-1.9"/>
<path id="XMLID_72_" class="st4" d="M272.5,342.9l-4.9,0.7l6.3,3C274,346.6,273.6,344.7,272.5,342.9z"/>
<path class="st8" d="M301.1,360.6c0-4.1,6.6-7.5,15.2-8.1c-1.5-3.2-3.7-6.1-6.3-8.5l-0.2-0.2c-1.8-11.4-7.8-19-11.8-22.8l-0.9-1.8
	l-0.6,0.4c-1.3-1.1-2.1-1.7-2.1-1.7l1.3,2.2l-15.4,11.4c-1.3,0.6-2.7,1.3-4.1,2.1l-5.2,3.1c-3.4,2-6.1,4.6-8.1,7.7l-19.5,14.4
	l17.5,29.5l4.1-3.8l-0.4,7.8c0,0,0.1-1.9,1.1-1.1v12.2h35.2l0.1-19.2c0,0,6.6-3.5,6.9-3.7l1.5-1.1c4.3-2.9,7-6.7,8.3-10.9
	C308.5,368.5,301.1,364.9,301.1,360.6z"/>
<circle class="st2" cx="297.9" cy="344.9" r="2"/>
<path class="st2" d="M302.6,299.5c-6.2-10.4-19.6-13.9-30.1-7.7c-6.1,3.6-9.8,9.8-10.6,16.3c-0.1,0.4-0.2,0.8-0.1,1.2l0,0
	c-0.1,1.1,0,2.3,0.1,3.4c-0.5,6.9-5.3,9.8-5.3,9.8c-3.7,1.5-6.5,3.2-8.7,5l0,0c-0.1,0.1-0.2,0.2-0.3,0.3c-1.3,1.1-2.4,2.3-3.3,3.4
	c-11.5,13.5-2.9,25.8-1.4,27.8c0.2,0.4,0.5,0.7,0.6,1c-0.1,3.2,0,12.6,6,18.3c7.3,7,16.5,15.1,16.5,15.1s19.5-20.2,9.7-50.3
	c4.8-1.8,15.5-7.4,19.8-12.1c2.2-2.1,4.2-4.7,6.1-7.6C306.4,316.6,307.1,307.2,302.6,299.5z"/>
<ellipse id="XMLID_71_" transform="matrix(0.6953 0.7187 -0.7187 0.6953 336.8362 -89.4958)" class="st8" cx="274" cy="352.5" rx="8" ry="7"/>
<path class="st11" d="M259.2,403.6c0.6,12.8,11.2,23.1,24.2,23.1s23.6-10.2,24.2-23.1h-40l0,0H259.2z"/>
<circle class="st8" cx="283.4" cy="403.6" r="17.6"/>
<path class="st8" d="M247.6,486h-14.5c-4.7,0-8.5-3.8-8.5-8.5v-33.8h23.1V486H247.6z"/>
<path class="st8" d="M308.3,380.4"/>
<polyline class="st12" points="224.6,443.7 247.6,450.4 247.6,443.7 "/>
<path class="st13" d="M315,478h-13.6c-1.3,0-2.4-1.1-2.4-2.4v-24.5c0-1.3,1.1-2.4,2.4-2.4H315c1.3,0,2.4,1.1,2.4,2.4v24.5
	C317.4,476.9,316.3,478,315,478z"/>
<path class="st8" d="M307.4,487.5h-76.9c-3.3,0-6-2.7-6-6l0.3-18.7h82.5c2.4,0,4.3,3.2,4.3,7.1v10.5
	C311.7,484.4,309.8,487.5,307.4,487.5z"/>
<circle class="st14" cx="308.2" cy="453" r="1.9"/>
<path class="st8" d="M386.2,345h-6.5c-1.5,0-2.9,0.3-4.2,0.8v-11.1c0-2-1.6-3.6-3.6-3.6h-0.6c-2,0-3.6,1.6-3.6,3.6V357v2.7v3.9
	c0,6.6,5.4,12,12,12h6.5c6.6,0,12-5.4,12-12v-6.5C398.2,350.4,392.8,345,386.2,345z"/>
<line class="st15" x1="373.4" y1="358.1" x2="398.2" y2="358.1"/>
<path class="st15" d="M373.4,367l0.7-3h5.3c1.8,0,3.2-1.4,3.2-3.2v-0.2c0-1.4-1.1-2.5-2.5-2.5h-3.4"/>
<path class="st15" d="M396.8,349.8"/>
<line class="st15" x1="383.6" y1="349.2" x2="383.6" y2="358.1"/>
<line class="st15" x1="391.2" y1="349.2" x2="391.2" y2="358.1"/>
<polygon class="st16" points="451.4,377.6 451.4,410.5 470.3,410.5 470.3,410.5 487.9,410.5 487.9,393.4 487.9,387.9 487.9,377.6 
	"/>
<path class="st6" d="M536.4,434.6c0-17.3-13.2-31.4-29.4-31.4h-14.4h-2.4H446h-4.4h-12.4c-16.2,0-29.4,14.1-29.4,31.4v9.7h9.2v40.8
	c0,0.8,0.1,1.7,0.1,2.5h116.1c0-0.7,0.1-34.2,0.1-43.3h11.1L536.4,434.6L536.4,434.6z"/>
<path class="st17" d="M399.8,434.6v3.1h136.6v-3.1c0-7.4-2.4-14.2-6.5-19.6H406.3C402.3,420.4,399.8,427.2,399.8,434.6z"/>
<path class="st17" d="M404.7,477H534c0-6.8,0-15.6,0-22.7H404.7V477z"/>
<ellipse id="XMLID_69_" transform="matrix(0.232 -0.9727 0.9727 0.232 39.862 762.0449)" class="st16" cx="502.5" cy="355.8" rx="8.2" ry="7.2"/>
<circle class="st16" cx="469.9" cy="403.2" r="18.1"/>
<rect x="401.9" y="444.3" class="st16" width="23.6" height="43.3"/>
<rect x="510.7" y="444.3" class="st16" width="23.6" height="43.3"/>
<path class="st8" d="M495.5,387.4"/>
<path class="st18" d="M451.4,385.8c5.3,3.8,11.8,8.8,18.7,8.8c6.6,0,12.7-4.8,17.8-8.1v-8.8h-36.5V385.8z"/>
<ellipse id="XMLID_68_" transform="matrix(0.232 0.9727 -0.9727 0.232 681.2312 -151.1041)" class="st16" cx="436.3" cy="355.9" rx="8.2" ry="7.2"/>
<circle class="st2" cx="497.8" cy="320.1" r="11.5"/>
<ellipse class="st2" cx="501.4" cy="329.6" rx="8.4" ry="9.5"/>
<ellipse class="st2" cx="441.6" cy="322.2" rx="8.4" ry="9.5"/>
<path class="st16" d="M487.8,314.4h-35.3c-8.3,0-15,6.8-15,15v29.2c0,16.7,13.6,31.5,30.3,31.5h4.6c16.7,0,30.3-14.8,30.3-31.5
	v-29.2C502.8,321.1,496.1,314.4,487.8,314.4z"/>
<path id="XMLID_67_" class="st19" d="M471.1,375.3c-7.4,0-13-4.6-13-4.7c-0.6-0.5-0.7-1.4-0.2-2.1c0.5-0.6,1.4-0.7,2.1-0.2
	c0.4,0.4,10.7,8.9,21.5,0c0.6-0.5,1.5-0.4,2.1,0.2c0.5,0.6,0.4,1.5-0.2,2.1C479,374.1,474.8,375.3,471.1,375.3z"/>
<circle class="st2" cx="457.5" cy="353.7" r="2"/>
<circle class="st2" cx="483.3" cy="353.7" r="2"/>
<path class="st2" d="M500.4,328.1c-0.7-1.4-1.6-2.7-2.7-3.8c-8.4,17.4,5.1,24.9,5.1,24.9v-2.1v-9.4v-8.6L500.4,328.1z"/>
<path class="st2" d="M439,328.1c0.7-1.4,1.6-2.7,2.7-3.8c8.4,17.4-5.1,24.9-5.1,24.9v-2.1v-9.4v-8.6L439,328.1z"/>
<path class="st20" d="M470.4,364c-2.5,0-4.3-1.9-4.4-2c-0.2-0.2-0.2-0.6,0-0.8c0.2-0.2,0.6-0.2,0.8,0c0,0,1.6,1.7,3.7,1.6
	c1.1,0,2.2-0.6,3.2-1.6c0.2-0.2,0.5-0.2,0.8,0c0.2,0.2,0.2,0.5,0,0.8C473.2,363.3,471.9,364,470.4,364L470.4,364z"/>
<polyline class="st21" points="401.9,444.3 425.6,450.6 425.6,444.3 "/>
<polyline class="st21" points="534.3,444.3 510.7,450.6 510.7,444.3 "/>
<path class="st2" d="M436.6,349.1l11.6-38.3C429.4,324.3,436.6,349.1,436.6,349.1z"/>
<path class="st2" d="M502.9,349.1c0,0,7.2-24.8-11.6-38.3"/>
<path class="st8" d="M313.9,462.8h-19.2c-4.3,0-7.9,3.6-7.9,7.9v9c0,4.3,3.6,7.9,7.9,7.9h19.2c4.3,0,7.9-3.6,7.9-7.9v-9
	C321.8,466.3,318.2,462.8,313.9,462.8z"/>
<polyline class="st8" points="299,455.2 293,464 299.1,464 "/>
<polyline class="st9" points="693.7,448.7 672.2,455.4 672.2,448.7 "/>
<path class="st2" d="M601.9,478.6h14.9c1.3,0,2.4-1.1,2.4-2.4v-25.1c0-1.3-1.1-2.4-2.4-2.4h-14.9c-1.3,0-2.4,1.1-2.4,2.4v25.1
	C599.5,477.5,600.6,478.6,601.9,478.6z"/>
<path class="st3" d="M624.4,463.3l-5.1-7.6l-0.1,7.6h-8.3h-6.5c-4.3,0-7.9,3.6-7.9,7.9v9c0,4.3,3.6,7.9,7.9,7.9h6.5h12.7h64.2
	c3.3,0,6-2.7,6-6v-18.7L624.4,463.3L624.4,463.3z"/>
<path class="st13" d="M476.7,447.7h-13.8c-1.3,0-2.4-1.1-2.4-2.4v-24.9c0-1.3,1.1-2.4,2.4-2.4h13.8c1.3,0,2.4,1.1,2.4,2.4v24.9
	C479.1,446.6,478,447.7,476.7,447.7z"/>
<circle class="st14" cx="469.8" cy="422.3" r="1.9"/>
<path class="st16" d="M480.1,434.6h-19.2c-0.1,0-0.3,0-0.4,0v-6.1l-49.3,59.1h31.7l22.3-28.3h15c4.3,0,7.9-3.6,7.9-7.9v-9
	C487.9,438.2,484.4,434.6,480.1,434.6z"/>
<path class="st2" d="M666.5,356.9L666.5,356.9c0,0-0.1-0.8-0.4-2.2c-0.7-3.4-1.7-6.5-2.7-9.4c-3.6-10.5-10.4-24.9-22-29.3
	c-18.8-7.3-62.1-2.7-58.2,37.3c0,0,16.3,8.8,30.3,4.6c4.8,1.6,9.3,2.6,13.4,2.9v33.9c0,9.2,7.4,16.6,16.6,16.6h7.7l0.4-12.7
	l11.1,11.2C668.6,387.3,668.9,370,666.5,356.9z"/>
<path class="st2" d="M638.3,315c0,0,29.6,4.1,29.6,56.7"/>
<ellipse id="XMLID_66_" transform="matrix(0.232 -0.9727 0.9727 0.232 122.0227 885.7168)" class="st3" cx="621.9" cy="365.6" rx="7.5" ry="6.5"/>
<circle class="st6" cx="619.7" cy="373.7" r="3"/>
<g id="XMLID_62_">
	<path class="st22" d="M574.1,503.9l-24.6,4.4c0,0,4.4,11.9,24.6,11.9c20.2,0,24.6-11.7,24.6-11.7L574.1,503.9z"/>
	<ellipse id="XMLID_65_" class="st11" cx="574.1" cy="508.3" rx="24.6" ry="4.4"/>
	<path class="st22" d="M593.6,489.4h-2.3c0-2.3-0.3-3.8-0.3-3.8c0-3.3-7.6-6-17-6c-9.4,0-17,2.7-17,6c0,0-3.9,25.8,17,25.8
		c7.6,0,11.9-3.4,14.3-7.7h5.2c3.9,0,7.1-3.2,7.1-7.1S597.6,489.4,593.6,489.4z M593.6,499.7h-3.5c0.7-2.1,1-4.3,1.2-6.3h2.4
		c1.7,0,3.1,1.4,3.1,3.1S595.4,499.7,593.6,499.7z"/>
	<ellipse id="XMLID_64_" class="st22" cx="574.1" cy="485.6" rx="17" ry="6"/>
	<ellipse id="XMLID_63_" class="st11" cx="574.1" cy="485.7" rx="12.4" ry="4.4"/>
</g>
<path id="XMLID_61_" class="st0" d="M201.2,538.8c-7.2,0-13.9-1.9-15-4.3L171,492.9h0.1c-0.8-1.6,2.6-2.9,7.4-2.9
	c4.8,0,9.4,1.3,10.1,2.9l23.5,41.6C213.3,536.9,208.4,538.8,201.2,538.8z"/>
<path class="st19" d="M179.7,452.4l-13-1.1l4.2,41.6c0,1.6,4,2.9,8.8,2.9c4.8,0,8.7-1.3,8.7-2.9l4.2-41.6L179.7,452.4z"/>
<path class="st2" d="M498.4,297.3L498.4,297.3c-2.5-2.2-5.8-3.4-9.3-2.9c-5.7,0.9-8.4,5.5-8.8,6.1h-0.1c-0.4-0.8-4.6-7.6-14.8-6.4
	c-6.7,0.8-10.9,6.4-13.1,10.5c-1.1-0.3-2.2-0.5-3.4-0.5c-6.3,0-11.5,5.1-11.5,11.5c0,2.4,0.7,4.6,1.9,6.4c-2,4.8-2.9,10.8-2,18.2
	l3.3-12.2c3.6,1.2,39.3,12.5,58.9-2.6c0.2-0.3,0.3-0.6,0.5-0.9l0.1,3.5l6.9,0.9l-3.9-8.5l5.9-0.3
	C509.8,306.2,498.4,297.3,498.4,297.3z"/>
<ellipse id="XMLID_45_" class="st1" cx="179.7" cy="451.3" rx="13" ry="4.3"/>
<polygon class="st11" points="328,437.3 321.8,437.3 328,444.3 "/>
<path class="st3" d="M587,377.1c0,0,0.5,8.1,3.4,10.9c2.8,2.8,18.7-4.7,18.7-4.7l0.8-7l-2.7-3.7"/>
<path class="st19" d="M597.5,383.8c-4.1,4.7-9.8,2.7-9.8,2.7c-0.6-0.2-0.8-0.8-0.6-1.4s0.8-0.8,1.4-0.6c0.2,0.1,5.8,2,8.9-4.3
	c0.3-0.5,0.9-0.7,1.4-0.5c0.5,0.3,0.7,0.9,0.5,1.4C598.7,382.2,598.1,383.1,597.5,383.8z"/>
<path class="st2" d="M323.6,359.2c-1.3,1.1-2.7,1.9-4.1,2.5c-6.8,2.9-13.7,0.9-13.8,0.8c-0.8-0.2-1.2-1.1-1-1.8
	c0.2-0.8,1.1-1.2,1.8-1c0.4,0.1,9.1,2.7,15.7-3.2c-3.7-5.8-8.9-8.9-8.9-8.9s-7.9,7.9-21.9,8.8s-13-17.6-13-17.6l-10.8-8.8
	c0,0,0,0,10.1,33.8l-3.7-0.4l1.2,3.6c0,0,4.8,17.6,20,22.6c1.5,0.6,3.1,0.9,4.6,1.1c0,0,0,0,0.1,0l0,0c12.1,1.1,24.4-9.7,25.6-19
	C326.2,366.7,325.2,362.6,323.6,359.2z"/>
<circle class="st14" cx="615.2" cy="451.9" r="1.3"/>
<path class="st12" d="M393.1,376.3v-3c-1.3,0.9-3.9,2.6-7.3,3H393.1z"/>
</svg>
