<svg xmlns="http://www.w3.org/2000/svg" width="193" height="72" viewBox="0 0 193 72" xmlns:xlink="http://www.w3.org/1999/xlink">
  <title>
    logo-white-women-techmakers
  </title>
  <defs>
    <polygon id="a" points="55.498 47.503 55.498 0 0 0 0 47.503"/>
  </defs>
  <g fill="none" fill-rule="evenodd">
    <g fill="#FFFFFF" transform="translate(73 16.188)">
      <polygon points="5.091 12.267 5.573 14.723 5.637 14.736 6.239 12.267 9.606 .76 10.843 .76 14.211 12.267 14.79 14.746 14.857 14.736 15.369 12.267 18.246 .76 19.58 .76 15.489 16.81 14.256 16.81 10.68 4.497 10.263 2.813 10.197 2.813 9.792 4.497 6.184 16.81 4.938 16.81 .846 .76 2.192 .76"/>
      <path d="M22.248 11.028c0 1.382.345 2.537 1.037 3.48.696.94 1.662 1.407 2.898 1.407 1.22 0 2.177-.467 2.872-1.407.694-.943 1.045-2.098 1.045-3.48v-.362c0-1.359-.35-2.51-1.052-3.458-.697-.946-1.66-1.42-2.887-1.42-1.222 0-2.18.474-2.876 1.42-.692.948-1.037 2.1-1.037 3.458v.362zm-1.313-.357c0-1.757.476-3.199 1.433-4.323.955-1.124 2.219-1.686 3.793-1.686 1.584 0 2.85.562 3.806 1.686.955 1.124 1.436 2.566 1.436 4.323v.364c0 1.761-.48 3.204-1.43 4.324-.952 1.12-2.212 1.68-3.79 1.68-1.59 0-2.86-.56-3.815-1.68-.957-1.12-1.433-2.563-1.433-4.324v-.364zM35.237 4.884l.122 1.973c.38-.7.883-1.238 1.515-1.62.63-.382 1.384-.574 2.258-.574.902 0 1.658.221 2.268.663.61.438 1.045 1.112 1.305 2.015.358-.839.869-1.492 1.527-1.968.66-.472 1.462-.71 2.41-.71 1.264 0 2.238.423 2.922 1.266.684.847 1.029 2.154 1.029 3.925v6.956H49.28V9.818c0-1.472-.257-2.513-.772-3.122-.515-.603-1.23-.909-2.149-.909-1.015 0-1.798.319-2.352.961-.554.64-.895 1.459-1.025 2.462 0 .053 0 .128.004.222.004.098.006.164.006.209v7.17H41.67V9.817c0-1.442-.263-2.476-.785-3.1-.522-.621-1.239-.93-2.149-.93-.926 0-1.659.238-2.2.71-.55.477-.927 1.117-1.144 1.916v8.396H34.07V4.884h1.167zM58.255 5.787c-.97 0-1.779.372-2.437 1.115-.655.742-1.036 1.679-1.149 2.799l.023.053h6.934v-.329c0-1.033-.305-1.897-.91-2.592-.603-.7-1.425-1.046-2.461-1.046m.165 11.252c-1.48 0-2.707-.55-3.689-1.652-.982-1.102-1.47-2.498-1.47-4.188v-.606c0-1.704.485-3.12 1.459-4.245.972-1.124 2.154-1.685 3.535-1.685 1.453 0 2.595.465 3.424 1.39.832.926 1.248 2.156 1.248 3.7v1.128h-8.355v.317c0 1.342.353 2.464 1.06 3.364.706.905 1.637 1.353 2.788 1.353.816 0 1.512-.113 2.09-.34a4.146 4.146 0 0 0 1.477-.982l.557.903c-.447.474-1.009.848-1.69 1.129-.682.276-1.491.414-2.434.414M66.676 4.884l.119 2.082c.379-.733.894-1.301 1.536-1.702.647-.4 1.412-.601 2.292-.601 1.285 0 2.259.396 2.933 1.186.669.79 1.006 2.02 1.006 3.695v7.266h-1.315V9.541c0-1.367-.251-2.335-.761-2.903-.506-.567-1.224-.85-2.156-.85-.918 0-1.667.245-2.246.733-.581.492-.999 1.138-1.255 1.95v8.34h-1.312V4.883h1.16z"/>
      <polygon points="12.988 24.684 7.507 24.684 7.507 39.611 6.194 39.611 6.194 24.684 .717 24.684 .717 23.562 12.988 23.562"/>
      <path d="M18.41 28.587c-.97 0-1.784.372-2.438 1.116-.658.743-1.041 1.675-1.148 2.798l.022.053h6.931v-.328c0-1.036-.302-1.898-.907-2.592-.606-.699-1.423-1.047-2.46-1.047m.163 11.252c-1.478 0-2.711-.55-3.687-1.651-.982-1.1-1.475-2.498-1.475-4.189v-.606c0-1.704.49-3.12 1.463-4.244.97-1.123 2.149-1.686 3.536-1.686 1.449 0 2.59.465 3.422 1.39.832.926 1.245 2.158 1.245 3.7v1.125h-8.354v.32c0 1.343.357 2.465 1.064 3.364.706.906 1.634 1.354 2.786 1.354.818 0 1.512-.113 2.09-.34a4.059 4.059 0 0 0 1.474-.982l.558.902c-.443.474-1.005.849-1.69 1.129-.68.278-1.492.414-2.432.414M30.057 38.716c.865 0 1.63-.25 2.297-.746.66-.496.991-1.19.991-2.074h1.16l.023.067c.036 1.1-.402 2.021-1.313 2.763-.91.743-1.966 1.113-3.158 1.113-1.614 0-2.856-.555-3.737-1.667-.877-1.113-1.317-2.547-1.317-4.295v-.461c0-1.734.441-3.162 1.322-4.278.885-1.116 2.122-1.675 3.72-1.675 1.297 0 2.377.387 3.242 1.158.864.772 1.281 1.788 1.25 3.042l-.021.068h-1.17c0-.956-.318-1.717-.957-2.289-.636-.568-1.419-.855-2.344-.855-1.27 0-2.21.46-2.815 1.372-.609.912-.917 2.064-.917 3.45v.462c0 1.41.306 2.57.912 3.48.601.913 1.545 1.365 2.832 1.365M38.585 29.722a4.37 4.37 0 0 1 1.576-1.663c.655-.396 1.42-.596 2.294-.596 1.248 0 2.205.391 2.87 1.17.669.78 1.001 1.984 1.001 3.626v7.352h-1.312v-7.39c0-1.294-.254-2.225-.76-2.788-.506-.562-1.205-.846-2.093-.846-.896 0-1.645.239-2.247.711-.603.478-1.047 1.111-1.329 1.895v8.418h-1.312V22.415h1.312v7.307zM50.842 27.686l.122 1.97c.38-.697.883-1.237 1.515-1.62.627-.381 1.38-.573 2.258-.573.902 0 1.659.223 2.268.66.61.441 1.043 1.115 1.306 2.019.357-.84.863-1.493 1.526-1.968.662-.472 1.462-.71 2.41-.71 1.264 0 2.237.423 2.922 1.266.681.847 1.028 2.153 1.028 3.925v6.956h-1.316v-6.992c0-1.471-.253-2.513-.768-3.122-.515-.606-1.23-.91-2.148-.91-1.015 0-1.8.32-2.353.962-.554.641-.895 1.46-1.025 2.462 0 .053.001.128.005.221.004.098.007.164.007.21v7.169h-1.327v-6.992c0-1.442-.26-2.475-.78-3.1-.523-.622-1.24-.932-2.15-.932-.926 0-1.659.239-2.2.711-.547.478-.929 1.117-1.144 1.918v8.395h-1.327V27.686h1.17zM72.778 38.671c.94 0 1.774-.219 2.495-.664.721-.447 1.24-1.014 1.564-1.704v-2.49h-2.64c-1.184 0-2.133.252-2.847.765-.71.51-1.065 1.146-1.065 1.902 0 .647.22 1.174.663 1.583.439.404 1.05.608 1.83.608zm4.297.94a13.79 13.79 0 0 1-.186-1.049 7.209 7.209 0 0 1-.052-.89 5.31 5.31 0 0 1-1.751 1.554c-.727.409-1.55.613-2.46.613-1.153 0-2.048-.307-2.685-.925-.638-.618-.956-1.442-.956-2.48 0-1.1.468-1.985 1.413-2.643.945-.664 2.22-.993 3.823-.993h2.616v-1.476c0-.853-.273-1.521-.816-2.008-.542-.483-1.303-.727-2.28-.727-.91 0-1.667.232-2.268.693-.602.464-.902 1.03-.902 1.701l-1.204-.012-.023-.066c-.045-.888.36-1.685 1.21-2.389.847-.7 1.928-1.05 3.242-1.05 1.304 0 2.352.333 3.149 1.004.794.666 1.192 1.625 1.192 2.877v5.861c0 .42.024.829.07 1.225.047.397.127.79.235 1.18h-1.367z"/>
      <polygon points="84.456 33.791 82.947 33.791 82.947 39.611 81.635 39.611 81.635 22.415 82.947 22.415 82.947 32.666 84.325 32.666 88.72 27.686 90.253 27.686 90.275 27.738 85.541 33.111 90.764 39.555 90.731 39.611 89.235 39.611"/>
      <path d="M96.682 28.587c-.97 0-1.783.372-2.439 1.116-.656.743-1.04 1.675-1.148 2.798l.022.053h6.933v-.328c0-1.036-.302-1.898-.91-2.592-.604-.699-1.422-1.047-2.458-1.047m.164 11.252c-1.48 0-2.708-.55-3.69-1.651-.98-1.1-1.474-2.498-1.474-4.189v-.606c0-1.704.49-3.12 1.464-4.244.974-1.123 2.149-1.686 3.536-1.686 1.453 0 2.593.465 3.421 1.39.834.926 1.25 2.158 1.25 3.7v1.125h-8.355v.32c0 1.343.353 2.465 1.06 3.364.706.906 1.636 1.354 2.788 1.354.816 0 1.511-.113 2.088-.34a4.11 4.11 0 0 0 1.479-.982l.557.902c-.446.474-1.009.849-1.691 1.129-.682.278-1.494.414-2.433.414M109.39 28.819l-.976-.066c-.822 0-1.499.234-2.027.701-.529.465-.906 1.108-1.132 1.923v8.234h-1.31V27.686h1.147l.163 1.98v.135c.342-.734.803-1.307 1.378-1.72.576-.411 1.26-.618 2.055-.618.168 0 .33.014.487.04.16.026.287.05.388.08l-.174 1.236zM118.653 36.57c0-.555-.229-1.04-.686-1.46-.454-.418-1.277-.758-2.466-1.025-1.413-.307-2.459-.714-3.13-1.22-.677-.51-1.014-1.224-1.014-2.149 0-.91.382-1.68 1.143-2.31.762-.63 1.77-.943 3.024-.943 1.333 0 2.388.332 3.17 1 .78.661 1.151 1.496 1.115 2.496l-.019.063h-1.216c0-.651-.278-1.22-.826-1.708-.551-.483-1.292-.727-2.224-.727-.957 0-1.67.208-2.15.621-.477.413-.716.895-.716 1.452 0 .546.205 1.002.618 1.36.413.358 1.233.674 2.468.941 1.403.321 2.459.751 3.158 1.3.701.553 1.051 1.3 1.051 2.242 0 .997-.4 1.798-1.2 2.414-.798.616-1.85.922-3.163.922-1.44 0-2.566-.344-3.387-1.033-.818-.692-1.206-1.514-1.161-2.468l.02-.068h1.201c.053.857.401 1.476 1.048 1.865.64.387 1.402.58 2.279.58.947 0 1.695-.208 2.242-.626.546-.415.82-.924.82-1.518"/>
    </g>
    <g transform="translate(0 12.3)">
      <mask id="b" fill="white">
        <use xlink:href="#a"/>
      </mask>
      <path fill="#FFFFFF" d="M53.329 0h-12.75v5.535h9.411v36.532h-9.41v5.436h12.749c1.193 0 2.169-1.212 2.169-2.413V2.184A2.183 2.183 0 0 0 53.328 0zM5.509 5.535h9.41V0H2.168C.977 0 0 .983 0 2.184V45.09c0 1.2.977 2.413 2.17 2.413h12.748v-5.436h-9.41V5.535zm17.915 8.423l-12.86 23.844h8.597l12.86-23.844h-8.597zm-12.86 22.506l8.597-15.94V9.7h-8.598v26.763zm21.845-21.887l-4.3 7.97 8.229 15.255h8.596L32.41 14.577zm12.525 21.887L36.286 20.43V9.7h8.648v26.763z" mask="url(#b)"/>
    </g>
    <rect width="193" height="72"/>
  </g>
</svg>
