<svg id="LOGOS" xmlns="http://www.w3.org/2000/svg" viewBox="289.3 377.7 426.8 68.1"><style>.st0{fill:#17bcac}</style><path d="M334.7 430.2l7.5-32.7h10.4l-12.9 47.3H331l-10.1-32.5-10 32.5h-8.7l-12.9-47.3h10.4l7.7 32.3 9.7-32.3h8l9.6 32.7zM357.2 420.8c0-4.6.9-8.8 2.8-12.5 1.9-3.7 4.4-6.6 7.7-8.6s7.1-3 11.5-3c6.4 0 11.6 2.1 15.6 6.2s6.1 9.6 6.4 16.4v2.5c0 4.7-.9 8.8-2.7 12.5-1.8 3.7-4.4 6.5-7.7 8.5s-7.2 3-11.6 3c-6.7 0-12-2.2-16-6.7-4-4.4-6-10.4-6-17.8v-.5zm10.7.9c0 4.9 1 8.7 3 11.4 2 2.7 4.8 4.1 8.4 4.1s6.4-1.4 8.4-4.2c2-2.8 3-6.9 3-12.3 0-4.8-1-8.6-3.1-11.4-2.1-2.8-4.9-4.2-8.4-4.2s-6.2 1.4-8.3 4.1c-2.1 2.7-3 7-3 12.5zM421.3 397.5l.3 4.9c3.3-3.9 7.9-5.8 13.6-5.8 6.3 0 10.7 2.4 13 7.3 3.4-4.8 8.3-7.3 14.5-7.3 5.2 0 9.1 1.4 11.7 4.3s3.9 7.1 3.9 12.8v31.1h-10.6v-30.7c0-3-.7-5.2-2-6.6-1.3-1.4-3.5-2.1-6.5-2.1-2.4 0-4.4.6-5.9 1.9-1.5 1.3-2.6 3-3.2 5.1v32.4h-10.6v-31.1c-.1-5.6-3-8.4-8.5-8.4-4.3 0-7.3 1.7-9.1 5.2v34.3h-10.6v-47.3h10zM510.8 445.7c-6.7 0-12.2-2.1-16.4-6.4-4.2-4.2-6.3-9.9-6.3-16.9v-1.3c0-4.7.9-8.9 2.7-12.7 1.8-3.7 4.4-6.6 7.7-8.7 3.3-2.1 7-3.1 11-3.1 6.4 0 11.4 2.1 14.9 6.2s5.3 9.9 5.3 17.4v4.4h-30.9c.3 3.9 1.6 7 3.9 9.3 2.3 2.3 5.2 3.4 8.6 3.4 4.9 0 8.8-2 11.9-5.9l5.7 5.5c-1.9 2.8-4.4 5-7.6 6.6-3 1.4-6.6 2.2-10.5 2.2zm-1.3-40.5c-2.9 0-5.3 1-7.1 3.1-1.8 2-2.9 4.9-3.4 8.5h20.2v-.8c-.2-3.6-1.2-6.3-2.8-8.1-1.6-1.8-4-2.7-6.9-2.7zM549.9 397.5l.3 5.5c3.5-4.2 8.1-6.3 13.8-6.3 9.9 0 14.9 5.6 15 16.9v31.3h-10.6v-30.7c0-3-.6-5.2-1.9-6.7s-3.4-2.2-6.4-2.2c-4.3 0-7.5 1.9-9.6 5.8v33.7h-10.6v-47.3h10z"/><path class="st0" d="M632.8 430.2l7.5-32.7h10.4l-12.9 47.3H629l-10.1-32.5-10 32.5h-8.7l-12.9-47.3h10.4l7.7 32.3 9.7-32.3h8l9.7 32.7zM658.6 385.3c0-1.6.5-3 1.6-4.1 1-1.1 2.5-1.6 4.4-1.6s3.4.5 4.5 1.6c1 1.1 1.6 2.4 1.6 4.1 0 1.6-.5 2.9-1.6 4-1 1.1-2.5 1.6-4.5 1.6-1.9 0-3.4-.5-4.4-1.6-1.1-1.1-1.6-2.4-1.6-4zm11.2 59.6h-10.6v-47.4h10.6v47.4zM692.8 444.9h-10.6v-67.2h10.6v67.2zM716.1 444.9h-10.6v-67.2h10.6v67.2z"/></svg>