<?xml version="1.0" encoding="UTF-8"?>
<svg width="515px" height="515px" viewBox="0 0 515 515" version="1.1" xmlns="http://www.w3.org/2000/svg" xmlns:xlink="http://www.w3.org/1999/xlink">
    <defs></defs>
    <g id="Mocks" stroke="none" stroke-width="1" fill="none" fill-rule="evenodd">
        <g id="Next18_LP_wider-than-1440" transform="translate(-1548.000000, -532.000000)" fill="#34A853">
            <path d="M2063,553.539203 L2063,532 L1952.64241,532 L1952.64241,553.539203 C1952.64241,634.676311 1886.64027,700.684769 1805.50316,700.684769 C1724.37237,700.684769 1658.35759,634.676311 1658.35759,553.539203 L1658.35759,532 L1548,532 L1548,553.539203 C1548,658.940315 1611.68195,749.699574 1702.56132,789.503161 C1611.68195,829.306748 1548,920.072329 1548,1025.46712 L1548,1047 L1658.35759,1047 L1658.35759,1025.46712 C1658.35759,944.330011 1724.37237,878.327875 1805.50316,878.327875 C1886.64027,878.327875 1952.64241,944.330011 1952.64241,1025.46712 L1952.64241,1047 L2063,1047 L2063,1025.46712 C2063,920.072329 1999.32438,829.306748 1908.43868,789.503161 C1999.32438,749.699574 2063,658.940315 2063,553.539203" id="Fill-1-Copy"></path>
        </g>
    </g>
</svg>